<svg><defs><font horiz-adv-x="0"><font-face font-family="Alef" font-weight="400" units-per-em="2048" panose-1="0 0 5 0 0 0 0 0 0 0" ascent="1638" descent="-410" x-height="1040" cap-height="1438" bbox="-102 -682 1854 2067" underline-thickness="150" underline-position="-67" unicode-range="U+000D-U+FB4B"/><glyph glyph-name="uniFB01" unicode="fi" horiz-adv-x="1541" d="M451 1040h902v-1040h-172v895h-730v-750h334v-145h-682v145h174v750h-174v145h174v113q0 74 14 128t49 100 102.5 69.5 166.5 23.5q129 0 307-43l-31-141q-168 35-256 35-43 0-72.5-4.5t-49.5-18-31-28.5-16.5-45-7-57-1.5-75v-57zm736 208q-34 32-34 81 0 48 34 82 34 32 82 32 46 0 80-32 33-35 33-82 0-48-33-81-34-34-80-34-48 0-82 34z"/><glyph glyph-name="uniFB02" unicode="fl" horiz-adv-x="1513" d="M1179 1440h172v-1440h-1248v145h174v750h-174v145h174v113q0 74 14 128t49 100 102.5 69.5 166.5 23.5q129 0 307-43l-31-141q-168 35-256 35-43 0-72.5-4.5t-49.5-18-31-28.5-16.5-45-7-57-1.5-75v-57h334v-145h-334v-750h728v1295z"/><glyph glyph-name=".notdef" horiz-adv-x="748" d="M68 0v1365h544v-1365h-544zm68 68h408v1229h-408v-1229z"/><glyph glyph-name="glyph1" horiz-adv-x="2048"/><glyph glyph-name="glyph1" horiz-adv-x="2048"/><glyph glyph-name="uni000D" horiz-adv-x="2048"/><glyph glyph-name="space" horiz-adv-x="580"/><glyph glyph-name="exclam" unicode="!" horiz-adv-x="645" d="M150 1363q35 54 74 75.5t81 21.5q34 0 58-14t39-37.5 22-55.5 7-68l-41-863-119-34-40 808zm173-1139q25 0 47.5-9.5t39-26 26-39 9.5-47.5q0-24-9.5-46t-26-39-39-27-47.5-10q-24 0-46.5 9.5t-39.5 26-27 39-10 47.5 10 47.5 26.5 39 39 26 47.5 9.5z"/><glyph glyph-name="quotedbl" unicode=""" horiz-adv-x="923" d="M126 1409q42 30 72.5 41t61.5 11q55 0 88.5-21t48-54.5 11.5-76.5-21-87q-12-28-31.5-67t-42-80l-45-80.5-38.5-68.5h-134l87 289zm401 0q42 30 72 41t61 11q54 0 87-21t48-55 13-77-20-86q-12-28-32-67l-42.5-80-45-80.5-38.5-68.5h-134l87 289z"/><glyph glyph-name="numbersign" unicode="#" horiz-adv-x="1291" d="M913 946h110l-78-213h236l-39-105h-232l-77-206h235l-37-107h-237l-78-211h-109l70 211h-219l-80-211h-117l80 211h-231l37 107h231l78 206h-240l41 105h238l78 213h108l-78-213h232zm-195-524l78 206h-230l-71-206h223z"/><glyph glyph-name="dollar" unicode="$" horiz-adv-x="1170" d="M654 1302v-475q76-21 130-42.5t107.5-55.5 86-76.5 52.5-105.5 20-143q0-181-106.5-287t-289.5-133v-115h-145v107q-202 4-389 85l61 145q168-69 328-76v557q-74 20-126.5 41.5t-101.5 53.5-79.5 73-49.5 99.5-22 133.5q0 154 103 253t276 116v114h145v-115q164-15 315-82l-61-145q-144 61-254 73zm-145-434v433q-90-14-145-66.5t-55-146.5q0-93 47.5-139.5t152.5-80.5zm145-222v-503q103 24 160 91t57 170q0 101-53 153.5t-164 88.5z"/><glyph glyph-name="percent" unicode="%" horiz-adv-x="1217" d="M354 1326q43 0 83.5-13t70.5-46q31-32 50.5-92t19.5-144q0-56-8.5-93t-23.5-69q-16-32-37-53.5t-46-34.5-52.5-18-56.5-5q-44 0-84 12.5t-72 44.5q-31 32-50.5 87.5t-19.5 138.5q0 84 19.5 139t50.5 87q32 33 72 46t84 13zm0-81q-32 0-56.5-11.5t-40.5-37.5-25-64-9-91q0-54 9-91.5t25-63.5q16-25 40.5-37t56.5-12q30 0 54.5 12t40.5 37q16 26 25 63.5t9 91.5q0 53-9 91t-25 64-40.5 37.5-54.5 11.5zm705-180v-125l-901-674v125zm-194-484q43 0 83.5-13t70.5-46q31-32 50.5-87t19.5-139q0-56-8.5-98t-23.5-74q-16-32-37-53.5t-46-34.5-52.5-18-56.5-5q-44 0-84 12.5t-72 44.5q-31 32-50.5 87.5t-19.5 138.5q0 84 19.5 139t50.5 87q32 33 72 46t84 13zm0-81q-32 0-56.5-11.5t-40.5-37.5-25-64-9-91q0-54 9-91.5t25-63.5q16-25 40.5-37t56.5-12q30 0 54.5 12t40.5 37q16 26 25 63.5t9 91.5q0 53-9 91t-25 64-40.5 37.5-54.5 11.5z"/><glyph glyph-name="ampersand" unicode="&" horiz-adv-x="1505" d="M1352 298l98-75q-25-49-41-77t-42.5-64.5-50.5-56-58-33.5-73-14q-68 0-123 31t-129 122q-178-155-414-155-57 0-110 10-146 26-227.5 123t-81.5 242q0 70 15.5 125t56 110 94 104.5 144.5 122.5q-91 119-121 187.5t-30 137.5q0 139 90 230.5t258 91.5q130 0 311-43l-41-135q-11 2-50.5 11t-51 11l-38.5 6.5-46.5 6-40.5 1.5q-110 0-158.5-49t-48.5-128q0-42 23.5-92t82.5-134l410-529q76 121 101 271h-131v137h448v-137h-182q-44-232-145-389 54-72 85.5-104t58.5-32q35 0 70.5 38.5t87.5 127.5zm-512-46l-344 449q-104-76-160.5-152.5t-56.5-174.5q0-107 70.5-173t185.5-66q70 0 151 29.5t154 87.5z"/><glyph glyph-name="quotesingle" unicode="'" horiz-adv-x="557" d="M145 1409q42 30 72 41t61 11q54 0 87-21t48-55 12.5-77-20.5-86q-11-28-31-67l-42.5-80-45-80.5-38.5-68.5h-134l87 289z"/><glyph glyph-name="parenleft" unicode="(" horiz-adv-x="781" d="M620 1323q-63-90-108.5-172t-75.5-168.5-44-183-14-215.5 14-215.5 44-183 75.5-168.5 108.5-172l-52-54q-86 65-155.5 149t-118.5 184.5-76 216-27 243.5 27 243.5 76 216 118.5 184.5 155.5 149z"/><glyph glyph-name="parenright" unicode=")" horiz-adv-x="781" d="M161-155q63 90 108.5 172t75.5 168.5 44 183 14 215.5-14 215.5-44 183-75.5 168.5-108.5 172l52 54q85-65 155-149t119-184.5 76-216 27-243.5-27-243.5-76-216-119-184.5-155-149z"/><glyph glyph-name="asterisk" unicode="*" horiz-adv-x="1099" d="M502 1439h100l12-251 239 64 32-94-234-88 138-207-80-58-157 195-157-195-79 58 136 209-235 88 32 94 241-66z"/><glyph glyph-name="plus" unicode="+" horiz-adv-x="1130" d="M979 608v-137h-346v-345h-137v345h-345v137h346v346h137v-346h345z"/><glyph glyph-name="comma" unicode="," horiz-adv-x="698" d="M205 177q38 27 65.5 37t55.5 10q49 0 79-19.5t43.5-50 11.5-69.5-18-78q-11-26-29-61l-38-72.5-40.5-73.5-35.5-62h-122l79 262z"/><glyph glyph-name="hyphen" unicode="-" horiz-adv-x="1164" d="M204 632h756v-148h-756v148z"/><glyph glyph-name="period" unicode="." horiz-adv-x="645" d="M323 224q25 0 47.5-9t39.5-26q35-35 35-87 0-51-35-86-17-17-39.5-26.5t-47.5-9.5-47 9.5-39 26.5-26.5 39-9.5 47 9.5 47.5 26.5 39.5q35 35 86 35z"/><glyph glyph-name="slash" unicode="/" horiz-adv-x="1147" d="M849 1438h159l-710-1438h-159z"/><glyph glyph-name="zero" unicode="0" horiz-adv-x="1247" d="M624 1081q114 0 212-43.5t169-118.5 111.5-176 40.5-215q0-115-40.5-216t-111.5-176-169-118.5-212-43.5q-115 0-212.5 43.5t-169 118.5-112 176-40.5 216q0 114 40.5 215t112 176 169 118.5 212.5 43.5zm0-158q-78 0-144-30.5t-114-84-75-125.5-27-155 27-155.5 75-126 114-84 144-30.5 144 30.5 113.5 84 74.5 126 27 155.5-27 155-74.5 125.5-113.5 84-144 30.5z"/><glyph glyph-name="one" unicode="1" horiz-adv-x="759" d="M90 923l358 160 87-44v-1039h-174v874l-210-89z"/><glyph glyph-name="two" unicode="2" horiz-adv-x="953" d="M501 1083q74 0 135.5-16.5t111-51.5 77.5-94.5 28-138.5q0-65-15-114-28-88-124-147-48-30-209-100l-5-2.5-5-2-5-2.5q-58-25-74.5-33t-53-33-47-47-22-61-11.5-90h551v-150h-723v140q0 76 18 136.5t46 102.5 78.5 78.5 100 61 124.5 54.5q57 23 86 37t60 37.5 43.5 54.5 12.5 74q0 85-53 124t-142 39q-143 0-301-77l-54 129q181 92 372 92z"/><glyph glyph-name="three" unicode="3" horiz-adv-x="977" d="M554 901h-158q-89 0-143 8-80 12-145 37l57 143q70-27 133-35 64-8 205-8h264v-114l-254-314q76 6 139-13t105.5-55.5 72.5-86.5 43.5-105.5 13.5-113.5q0-337-423-462-172-51-374-57v155q186 12 302 44 150 42 235.5 120t85.5 208q0 112-61.5 171t-167.5 59q-72 0-157-31l-48 95z"/><glyph glyph-name="four" unicode="4" horiz-adv-x="1129" d="M515 1083l165-36q-15-135-93-291l-304-606h420v276h168v-276h188v-150h-188v-274h-168v274h-593l-40 124 328 648q56 111 77 163.5t40 147.5z"/><glyph glyph-name="five" unicode="5" horiz-adv-x="977" d="M90-275v154q186 12 302 44 150 42 235.5 120t85.5 209q0 112-64 173-60 57-167 57-113 0-232-56l-87 60 33 560h234q141 0 205 8 63 8 133 35l57-143q-65-25-145-37-54-8-143-8h-187l-18-309q93 29 186 29 172 0 262-93 53-53 80-128t27-156q0-337-423-462-172-51-374-57z"/><glyph glyph-name="six" unicode="6" horiz-adv-x="1065" d="M868 1324v-136q-249 11-389-90t-180-325q64 43 144.5 68.5t150.5 25.5q178 0 282-109 104-117 104-323 0-90-26.5-170.5t-78.5-146-139-104-198-38.5q-154 0-256.5 68t-147 186.5-40.5 283.5q6 223 69 406 41 117 113 201t166.5 129 199.5 63 226 11zm-588-717q-12-59-12-132 0-76 14-138t44.5-112 84-77.5 127.5-27.5q129 0 198.5 84t69.5 227q0 156-69 227-64 65-178 65-65 0-140.5-32.5t-138.5-83.5z"/><glyph glyph-name="seven" unicode="7" horiz-adv-x="992" d="M90 1046h445q115 0 189 9 70 9 139 27l49-144q-194-283-276-449-86-170-111-332-20-128-20-348v-74h-174q0 275 22.5 432t106.5 337q63 136 228 392h-598v150z"/><glyph glyph-name="eight" unicode="8" horiz-adv-x="1064" d="M778 704q47-24 85.5-54t65.5-70 41.5-91 14.5-118q0-94-34.5-167.5t-95.5-124-143.5-77-179.5-26.5-180 26.5-143.5 78-95 126.5-34.5 171q0 58 16 108.5t44.5 92.5 68.5 76 89 60q-30 21-56 47t-45.5 59.5-30.5 76.5-11 98q0 77 31 136t84 99.5 122 61.5 146 21q78 0 148-21t123-61.5 84-100 31-135.5q0-89-38-162t-107-130zm-241 469q-47 0-88-11.5t-71-34-47.5-56.5-17.5-79q0-68 34-109t85-65.5 110.5-38 111.5-26.5q31 28 52 55t34 55.5 18.5 60 5.5 68.5q0 46-18.5 80t-49.5 56.5-72 33.5-87 11zm-5-1056q66 0 119 18t89.5 51 56 80 19.5 105q0 51-17.5 89t-47.5 65-70 45.5-84 32-90.5 23.5-88.5 20q-84-48-127-114t-43-154q0-61 19.5-109.5t56-82 89.5-51.5 119-18z"/><glyph glyph-name="nine" unicode="9" horiz-adv-x="1065" d="M201-265v136q249-11 389 90t180 325q-64-43-144.5-68.5t-150.5-25.5q-178 0-282 109-104 117-104 323 0 90 26.5 170.5t78.5 146 139 104 198 38.5q154 0 256.5-68t147-186.5 40.5-283.5q-6-223-69-406-41-117-113-201t-166.5-129-199.5-63-226-11zm588 717q12 59 12 132 0 76-14 138t-44.5 112-84 77.5-127.5 27.5q-129 0-198.5-84t-69.5-227q0-156 69-227 64-65 178-65 65 0 140.5 32.5t138.5 83.5z"/><glyph glyph-name="colon" unicode=":" horiz-adv-x="670" d="M335 887q28 0 52.5-10.5t42.5-28.5 28.5-42.5 10.5-52.5q0-27-10.5-51.5t-28.5-42.5q-18-19-42.5-29.5t-52.5-10.5-52.5 10.5-42.5 29.5q-18 18-28.5 42.5t-10.5 51.5q0 28 10.5 52.5t28.5 42.5 42.5 28.5 52.5 10.5zm0-639q28 0 52.5-10.5t42.5-28.5 28.5-42.5 10.5-52.5q0-27-10.5-51.5t-28.5-42.5q-18-19-42.5-29.5t-52.5-10.5-52.5 10.5-42.5 29.5q-18 18-28.5 42.5t-10.5 51.5q0 28 10.5 52.5t28.5 42.5 42.5 28.5 52.5 10.5z"/><glyph glyph-name="semicolon" unicode=";" horiz-adv-x="724" d="M393 887q28 0 52.5-10.5t42.5-28.5 28.5-42.5 10.5-52.5q0-27-10.5-51.5t-28.5-42.5q-18-19-42.5-29.5t-52.5-10.5-52.5 10.5-42.5 29.5q-18 18-28.5 42.5t-10.5 51.5q0 28 10.5 52.5t28.5 42.5 42.5 28.5 52.5 10.5zm-133-710q38 27 65.5 37t55.5 10q49 0 79-19.5t43.5-50 11.5-69.5-18-78q-11-26-29-61l-38-72.5-40.5-73.5-35.5-62h-122l79 262z"/><glyph glyph-name="less" unicode="<" horiz-adv-x="957" d="M892 238v-141l-827 362v116l827 360v-140l-643-277z"/><glyph glyph-name="equal" unicode="=" horiz-adv-x="1130" d="M151 665v137h828v-137h-828zm0-383v137h828v-137h-828z"/><glyph glyph-name="greater" unicode=">" horiz-adv-x="959" d="M894 459l-827-362v141l643 280-643 277v140l827-360v-116z"/><glyph glyph-name="question" unicode="?" horiz-adv-x="1096" d="M120 1363q58 29 118 50t124 33q36 6 74 10t76 4q50 0 98.5-7.5t96.5-25.5q94-38 151.5-119t57.5-210q0-95-31-160.5t-87.5-114.5-137-86.5-179.5-75.5v-239l-139-40-60 350 190 82 142.5 75.5 90 90 31.5 127.5q0 57-22.5 97t-59.5 64q-31 20-69 28t-80 8q-87 0-172.5-27.5t-154.5-63.5zm290-1139q25 0 47.5-9.5t39-26 26-39 9.5-47.5q0-24-9.5-46t-26-39-39-27-47.5-10q-24 0-46.5 9.5t-39.5 26-27 39-10 47.5 10 47.5 26.5 39 39 26 47.5 9.5z"/><glyph glyph-name="at" unicode="@" horiz-adv-x="1700" d="M849-212q-100 0-192 26t-172 72.5-145.5 112.5-112.5 146.5-72.5 172.5-25.5 192 25.5 192 72.5 172.5 112.5 146.5 145.5 112.5 172 72.5 192 26q99 0 191-26t172.5-73 146.5-113 113-146.5 73-172.5 26-191q0-198-103-296t-317-98q-33 0-69.5 2.5t-74.5 7.5q-8 30-12 52-2 8-2.5 16t-1.5 16q-1 7-1 20.5v31.5q0 35 .5 62.5t.5 45.5l-10 2q-15-53-37.5-98.5t-53-80-69.5-54-87-19.5q-46 0-80.5 18.5t-59 49.5-40 71-22.5 84q-5 29-7.5 58.5t-2.5 61.5q0 77 18 153.5t60 137.5 112 99 174 38q107 0 249-34l-11-269q-1-25-2-65t-2.5-83-2.5-84.5-1-69.5v-20l1-15v-10l1-10q20-3 37.5-3.5t35.5-.5q64 0 112 21t80 58.5 48 89.5 16 114q0 82-21.5 158t-60.5 142.5-94 121.5-121.5 94-142.5 60.5-158 21.5-158-21.5-142.5-60.5-121.5-94-94-121.5-60.5-142.5-21.5-158 21.5-158 60.5-142.5 94-121.5 121.5-94 142.5-60.5 158-21.5h28v-124h-28zm156 983q-25 4-50.5 7t-51.5 3q-79 0-129.5-29t-79-75-39.5-103-11-112q0-62 9-111 9-48 31-81t67-33q25 0 49 12t42 34q25 27 48 62.5t42.5 74 34.5 77 26 71.5z"/><glyph glyph-name="A" unicode="A" horiz-adv-x="1369" d="M1158 0l-189 489h-569l-189-489h-191l570 1438h189l570-1438h-191zm-699 643h451l-226 585z"/><glyph glyph-name="B" unicode="B" horiz-adv-x="1297" d="M631 1438q102 0 191.5-15.5t156.5-54.5 106-106 39-171q0-62-14-110t-39.5-85-62.5-63.5-82-44.5v-2q55-14 105.5-43t88.5-74 60.5-106.5 22.5-139.5q0-113-40-193t-110.5-131-166-75-206.5-24h-502v1438h453zm-3-591q72 0 129 12t96.5 40.5 61 76 21.5 117.5q0 60-25 99t-68 61-99 30.5-116 8.5h-262v-445h262zm52-701q70 0 131.5 18t106.5 53 71 87 26 120-26 119.5-71 86.5-106.5 53-131.5 18h-314v-555h314z"/><glyph glyph-name="C" unicode="C" horiz-adv-x="1239" d="M1157 41q-93-29-196.5-47t-227.5-18q-306 0-462 183t-156 539q0 378 156 570t462 192q116 0 208.5-20t178.5-52l-52-148q-41 15-81 27t-80.5 20-83.5 12-90 4q-111 0-191-39.5t-132-115-77-184-25-246.5q0-142 25-251t77-183.5 132-112.5 191-38q102 0 194 17t183 45z"/><glyph glyph-name="D" unicode="D" horiz-adv-x="1376" d="M182 0v1438h304q123 0 228.5-12.5t193.5-43.5 154.5-82.5 114.5-131.5q47-80 71-190t24-259-24-259-71-190q-48-80-114.5-131.5t-154.5-82.5-193.5-43.5-228.5-12.5h-304zm335 154q153 0 259.5 30.5t174.5 99.5q67 69 97.5 175.5t30.5 259.5-30.5 259.5-97.5 175.5q-68 69-174.5 99.5t-259.5 30.5h-147v-1130h147z"/><glyph glyph-name="E" unicode="E" horiz-adv-x="1131" d="M182 1438h798v-154h-610v-397h432v-154h-432v-579h633v-154h-821v1438z"/><glyph glyph-name="F" unicode="F" horiz-adv-x="1050" d="M182 1438h798v-154h-610v-397h432v-154h-432v-733h-188v1438z"/><glyph glyph-name="G" unicode="G" horiz-adv-x="1399" d="M1257 77q-119-49-246.5-75t-247.5-26q-156 0-276.5 44t-202.5 134-124.5 226.5-42.5 321.5q0 201 43.5 345t126.5 235.5 204.5 134.5 277.5 43q97 0 204-19.5t220-55.5l-53-150q-101 34-189.5 51t-178.5 17q-116 0-203-34t-144.5-105-86-181-28.5-262q0-150 26.5-261t81.5-183.5 140-108 201-35.5q82 0 165 17t152 40v398h-241v151h422v-662z"/><glyph glyph-name="H" unicode="H" horiz-adv-x="1512" d="M1142 1438h188v-1438h-188v713h-772v-713h-188v1438h188v-571h772v571z"/><glyph glyph-name="I" unicode="I" horiz-adv-x="596" d="M204 1438h188v-1438h-188v1438z"/><glyph glyph-name="J" unicode="J" horiz-adv-x="716" d="M357 1438h188v-1009q0-141-12-235t-45-166q-73-158-290-255l-74 108q100 84 131 119 25 28 42 57 60 101 60 293v1088z"/><glyph glyph-name="K" unicode="K" horiz-adv-x="1313" d="M1014 1460l127-102-552-654 600-704h-226l-591 694v-694h-188v1438h188v-740z"/><glyph glyph-name="L" unicode="L" horiz-adv-x="1042" d="M195 1438h188v-1284h589v-154h-777v1438z"/><glyph glyph-name="M" unicode="M" horiz-adv-x="1894" d="M1347 1437h279l173-1437h-183l-150 1210h-10l-397-1210h-224l-397 1210h-10l-150-1210h-183l173 1437h279l400-1245z"/><glyph glyph-name="N" unicode="N" horiz-adv-x="1529" d="M1351-10h-220l-765 1202v-1192h-188v1438h220l765-1202v1202h188v-1448z"/><glyph glyph-name="O" unicode="O" horiz-adv-x="1482" d="M1372 719q0-361-163-552t-468-191q-302 0-466.5 190.5t-164.5 552.5q0 361 165 551t466 190q305 0 468-191.5t163-549.5zm-193 0q0 278-109.5 431t-329.5 153q-221 0-329-154.5t-108-429.5q0-135 25.5-241.5t78-184 137-119 196.5-41.5q220 0 329.5 153.5t109.5 432.5z"/><glyph glyph-name="P" unicode="P" horiz-adv-x="1219" d="M635 1438q99 0 185-21.5t149.5-70 100-126.5 36.5-190q0-125-42-204t-113.5-125-166-63-199.5-17q-57 0-111.5 4t-102.5 9v-634h-186v1438h450zm-264-654q48-6 100.5-9.5t105.5-3.5q76 0 139.5 9.5t108.5 37.5 70 79 25 133q0 75-21 124.5t-58.5 79.5-90 42-115.5 12h-264v-504z"/><glyph glyph-name="Q" unicode="Q" horiz-adv-x="1502" d="M748 1460q153 0 270.5-48.5t197.5-143 121.5-232.5 41.5-317q0-290-104-469t-302-242l84.5-63 70-47.5 74-37 97.5-32.5q-12-42-27.5-80t-33.5-77q-38 10-71 22t-66 27.5-67.5 37.5-76.5 52.5l-93 71-116 94.5q-149 0-266.5 47.5t-198.5 141-123.5 232.5-42.5 322q0 182 42.5 320.5t123.5 232 198.5 141 266.5 47.5zm-1-157q-114 0-197-41.5t-136-118-78.5-184.5-25.5-240q0-133 25.5-241.5t78.5-185 136-118 197-41.5q112 0 195 40.5t137 116.5 80.5 184.5 26.5 244.5q0 135-26.5 243.5t-80.5 184-137 116-195 40.5z"/><glyph glyph-name="R" unicode="R" horiz-adv-x="1275" d="M635 1438q95 0 179.5-22t149.5-70q66-49 103.5-124t37.5-177-37.5-177-103.5-124q-51-38-113.5-59t-133.5-29l-1-2q29-19 64-53.5t73-81.5l78-101.5 81-114.5 208-303h-220l-226 350q-61 96-105.5 155t-84.5 93q-39 34-80 46t-95 12h-38v-656h-186v1438h450zm0-636q63 0 115 14t89.5 43.5 58.5 75.5 21 110-21 110-58.5 75.5-89.5 43.5-115 14h-264v-486h264z"/><glyph glyph-name="S" unicode="S" horiz-adv-x="1196" d="M175 209q41-16 86.5-30t93-24 95.5-16 94-6q79 0 143 18t110 52.5 71 85 25 115.5-23.5 106.5-68 69.5-109.5 47.5-148 40.5q-92 24-169.5 53.5t-134 76.5-88.5 116.5-32 173.5q0 85 34 154t96 117.5 149 74.5 192 26q51 0 104-6.5t105-17.5 102-27 94-35l-60-148-73.5 28-79.5 25-89.5 17.5-102.5 6.5-105-12-88.5-37.5-61.5-66.5-23-99q0-65 23.5-106.5t68-69.5 109.5-47.5 148-40.5q92-24 169.5-53.5t134-76.5 88.5-117 32-173q0-109-40.5-189.5t-113-133.5-172-79-216.5-26q-221 0-429 85z"/><glyph glyph-name="T" unicode="T" horiz-adv-x="1237" d="M80 1438h1077v-154h-442v-1284h-188v1284h-447v154z"/><glyph glyph-name="U" unicode="U" horiz-adv-x="1486" d="M1128 1438h188v-831q0-314-141-472.5t-433-158.5q-572 0-572 631v831h188v-832q0-110 19-193.5t62-148 119-98 184-33.5q88 0 155.5 22.5t110.5 62.5 70.5 100.5 38.5 130 11 157.5v832z"/><glyph glyph-name="V" unicode="V" horiz-adv-x="1468" d="M1158 1438h197l-537-1440h-167l-538 1440h197l425-1209z"/><glyph glyph-name="W" unicode="W" horiz-adv-x="1850" d="M1777 1437l-173-1437h-279l-400 1245-400-1245h-279l-173 1437h183l150-1210h10l397 1210h224l397-1210h10l150 1210h183z"/><glyph glyph-name="X" unicode="X" horiz-adv-x="1415" d="M118 1358l146 105 435-608 387 583h219l-495-726 456-627-151-108-415 584-373-561h-217l479 704z"/><glyph glyph-name="Y" unicode="Y" horiz-adv-x="1357" d="M1078 1438h214l-520-790v-648h-187v648l-520 790h214l399-636z"/><glyph glyph-name="Z" unicode="Z" horiz-adv-x="1234" d="M171 1438h910v-134l-701-1150h707v-154h-940v132l703 1152h-679v154z"/><glyph glyph-name="bracketleft" unicode="[" horiz-adv-x="711" d="M200 1570h331v-132h-168v-1438h168v-132h-331v1702z"/><glyph glyph-name="backslash" unicode="\" horiz-adv-x="1139" d="M845 0l-710 1438h159l710-1438h-159z"/><glyph glyph-name="bracketright" unicode="]" horiz-adv-x="711" d="M180 1570h331v-1702h-331v132h168v1438h-168v132z"/><glyph glyph-name="asciicircum" unicode="^" horiz-adv-x="772" d="M335 1114h107l311-687h-117l-247 557-247-557h-116z"/><glyph glyph-name="underscore" unicode="_" horiz-adv-x="1083" d="M160 145h764v-145h-764v145z"/><glyph glyph-name="grave" unicode="`" horiz-adv-x="575" d="M447 1181h-122q-115 202-143 269-19 54-18 102.5t36.5 81.5 97.5 33q56 0 121-47l-51-177z"/><glyph glyph-name="a" unicode="a" horiz-adv-x="1041" d="M229 856l-44 140q168 67 352 67 161 0 246-54 97-62 97-211v-409q0-82 2-168 1-51 10-106 8-52 21-99l-164-36q-23 67-29 150l-20 2q-124-156-316-156-140 0-225 77.5t-85 218.5q0 105 46.5 172t131.5 113q134 73 375 73 32 0 86-2v152q0 72-44 104t-138 32q-137 0-302-60zm484-564v210q-27 2-79 2-88 0-162-15-110-22-170.5-69.5t-60.5-136.5q0-160 174-160 90 0 168 48 64 40 130 121z"/><glyph glyph-name="b" unicode="b" horiz-adv-x="1105" d="M176 1440h172v-599l21-2q47 104 111 158 74 66 179 66 183 0 280-154 87-143 87-369 0-275-131-424-125-140-370-140-134 0-349 32v1432zm162-826v-472q92-19 187-19 162 0 243 95 84 98 84 291 0 175-38 270-50 125-170 125-105 0-185-88-56-60-121-202z"/><glyph glyph-name="c" unicode="c" horiz-adv-x="973" d="M895 37q-78-27-166.5-44t-167.5-17q-120 0-208 35t-145.5 102-85.5 164.5-28 222.5q0 136 34.5 241t100 176.5 160 108.5 214.5 37q61 0 124-12.5t128-31.5l-43-140q-52 17-96.5 27t-93.5 10q-170 0-262-98.5t-92-297.5q0-93 13.5-166.5t48-125 94-78.5 151.5-27q60 0 129.5 15.5t147.5 38.5z"/><glyph glyph-name="d" unicode="d" horiz-adv-x="1123" d="M776 1440h172v-1047q0-176 5-231 5-68 23-146l-166-37q-17 56-25 113-10 70-11 108h-15q-52-108-115-159-76-65-188-65-98 0-169 42.5t-110.5 118.5-58 167-18.5 201q0 124 25.5 223t78.5 175.5 142 118 209 41.5q94 0 221-25v402zm0-1019v465q-113 30-208 30-81 0-139.5-29.5t-91.5-83-48-119.5-15-148q0-56 2.5-98.5t9-92 20.5-84.5 35-65 54.5-45.5 77.5-15.5q106 0 184 85 56 62 119 201z"/><glyph glyph-name="e" unicode="e" horiz-adv-x="1102" d="M946 58q-111-44-208.5-63t-174.5-19q-118 0-206 37.5t-146.5 105.5-88 162.5-29.5 208.5q0 70 10 140t32 133.5 57.5 118.5 86.5 95 119 63 155 23q223 0 336-139.5t113-399.5v-55h-732q0-84 18-148.5t55.5-109 95-67.5 136.5-23q44 0 87.5 6.5t84.5 17 78.5 23.5l70.5 25zm-117 549q-8 162-77.5 236.5t-198.5 74.5-196.5-74.5-81.5-236.5h554z"/><glyph glyph-name="f" unicode="f" horiz-adv-x="916" d="M277 1040v113q0 74 14 128t49 100 102.5 69.5 166.5 23.5q129 0 307-43l-31-141q-168 35-256 35-43 0-72.5-4.5t-49.5-18-31-28.5-16.5-45-7-57-1.5-75v-57h334v-145h-334v-750h334v-145h-682v145h174v750h-174v145h174z"/><glyph glyph-name="g" unicode="g" horiz-adv-x="1118" d="M762 1040q43 0 75.5 1t62.5 4.5 60.5 10.5 71.5 20l25.5-72 25.5-70q-32-12-59-19t-53.5-11.5-53-6-56.5-2.5q28-45 43-101t15-122q0-96-29-167.5t-83-121.5-129.5-75.5-169.5-25.5q-48 0-91 5.5t-82 19.5q-9-24-15.5-49t-6-47.5 8.5-41 28-29.5q10-6 21-9.5t26.5-6 37.5-4 53-1.5q30-1 70.5-1h94.5q156 0 236-65.5t80-203.5q0-56-18-99.5t-49.5-75.5-74.5-53.5-93-35-104.5-19-109.5-5.5-110.5 6-108.5 15-99.5 20.5-82.5 22.5q14 34 31.5 68t37.5 64q63-18 150-35t193-17q48 0 94.5 6t84 22.5 60.5 44 23 71.5q0 46-16.5 71t-44.5 37-66 14-80 2h-131q-59 0-111 9t-91 30.5-61.5 56.5-22.5 86q0 49 18 101.5t47 106.5q-66 48-101.5 127t-35.5 182q0 94 29.5 166.5t83.5 123.5 129 76 169 25q88 0 162-23h92zm-254-115q-63 0-108-19t-73.5-52.5-42-80-13.5-101.5q0-56 13.5-102t42.5-79.5 73.5-52 107.5-18.5 108 18.5 73.5 52 42 80 13.5 101.5-13.5 101.5-42 80-73.5 52.5-108 19z"/><glyph glyph-name="h" unicode="h" horiz-adv-x="1159" d="M175 1440h172v-627q67 114 152 178 97 72 193 72 144 0 224-72 69-62 95-187 20-95 20-256v-548h-172v596q0 61-3 100.5t-14.5 83-33 68-60 40.5-93.5 16q-95 0-183-90-56-57-125-174v-640h-172v1440z"/><glyph glyph-name="i" unicode="i" horiz-adv-x="543" d="M269 1443q46 0 80-32 33-35 33-82 0-48-33-81-34-34-80-34-48 0-82 34-34 32-34 81 0 48 34 82 34 32 82 32zm-88-403h172v-1040h-172v1040z"/><glyph glyph-name="j" unicode="j" horiz-adv-x="660" d="M370 1443q46 0 80-32 33-35 33-82 0-48-33-81-34-34-80-34-48 0-82 34-34 32-34 81 0 48 34 82 34 32 82 32zm-87-403h172v-896q0-183-37-278-35-91-147-215l-57-63-115 95q82 99 109 145 1 2 23 43 52 108 52 260v909z"/><glyph glyph-name="k" unicode="k" horiz-adv-x="1038" d="M169 1440h172v-866l468 489 113-110-405-417 511-536h-214l-473 500v-500h-172v1440z"/><glyph glyph-name="l" unicode="l" horiz-adv-x="475" d="M312 404q0-82 2-137.5t5-97.5 9.5-76 16.5-75q-42-11-84-20.5t-84-16.5q-20 65-28.5 119t-8.5 106v1232h172v-1034z"/><glyph glyph-name="m" unicode="m" horiz-adv-x="1741" d="M168 0v643q0 154-7 232-4 61-26 149l164 37q19-60 27-116 4-21 10-109h21q51 102 128 160 83 67 189 67 60 0 116-21.5t94-60.5q57-56 81-166h12q60 116 141 178 87 70 195 70 131 0 201-73 61-61 86-186 18-91 18-254v-550h-172v598q0 79-9 130-14 79-50 123-45 53-126 53-92 0-170-88-47-53-112-164 2-17 2-50v-602h-172v598q0 127-25 195-42 111-159 111-90 0-171-90-47-52-114-173v-641h-172z"/><glyph glyph-name="n" unicode="n" horiz-adv-x="1147" d="M135 1022l166 37q19-60 27-116 4-27 10-107h21q55 101 136 161 89 66 188 66 149 0 227-72 67-61 93-187 17-86 17-256v-548h-172v596q0 149-29 213-43 95-173 95-92 0-180-88-59-59-126-173v-643h-172v640q0 135-7 233-4 61-26 149z"/><glyph glyph-name="o" unicode="o" horiz-adv-x="1113" d="M555 1063q49 0 102-7.5t104-28.5q51-22 96.5-59.5t80.5-97.5q35-61 55-146.5t20-203.5-20-203.5-55-145.5q-35-61-80.5-99t-96.5-59q-51-22-104-29.5t-102-7.5q-48 0-100.5 7.5t-103.5 29.5q-51 21-96 59t-80 99q-35 60-55 145.5t-20 203.5 20 203.5 55 146.5q35 60 80 97.5t96 59.5q51 21 103 28.5t101 7.5zm0-141q-57 0-107.5-18t-88.5-63q-39-46-62-123t-23-198q0-120 23-197.5t62-122.5q38-46 88.5-63.5t107.5-17.5q58 0 109.5 17.5t90.5 63.5q39 45 61.5 122.5t22.5 197.5q0 121-22.5 198t-61.5 123q-39 45-90.5 63t-109.5 18z"/><glyph glyph-name="p" unicode="p" horiz-adv-x="1114" d="M338-400h-172v1048q0 174-5 229-5 68-23 146l166 37q17-56 25-113 10-70 11-108h15q52 108 115 159 76 65 188 65 98 0 169-42.5t110.5-118.5 58-167 18.5-201q0-124-25.5-223t-78.5-175.5-142-118-209-41.5q-94 0-221 25v-401zm0 1018v-465q113-30 208-30 81 0 139.5 29.5t91.5 83 48 119.5 15 148q0 56-2.5 98.5t-9 92-20.5 84.5-35 65-54.5 45.5-77.5 15.5q-106 0-184-85-56-62-119-201z"/><glyph glyph-name="q" unicode="q" horiz-adv-x="1125" d="M950-400h-172v598l-21 2q-47-104-111-158-74-66-179-66-183 0-280 154-87 142-87 369 0 275 131 424 125 140 370 140 134 0 349-32v-1431zm-162 825v472q-92 19-187 19-162 0-243-95-84-98-84-291 0-175 38-270 50-125 170-125 105 0 185 88 56 60 121 202z"/><glyph glyph-name="r" unicode="r" horiz-adv-x="833" d="M355 799q31 62 66.5 112t78.5 85q39 34 86 50.5t107 16.5q20 0 46.5-2t50.5-7q-4-50-9.5-94t-14.5-89q-50 9-91.5 13t-78.5-2q-44-8-76.5-29.5t-60-57-53.5-85l-57-113.5v-597h-172v641q0 63-1.5 111t-6 91.5-13.5 86-24 94.5q42 11 82.5 20t82.5 17q14-40 22.5-71t13.5-60.5 7.5-60l5.5-70.5h9z"/><glyph glyph-name="s" unicode="s" horiz-adv-x="955" d="M477 1063q82 0 164.5-17t153.5-47q-14-32-29-63t-33-61q-25 10-55.5 20t-64 17-69 11.5-69.5 4.5q-37 0-71.5-7.5t-61-24.5-42.5-44.5-16-68.5q0-42 18-70.5t49-47.5 72.5-32 88.5-24q73-18 136-40.5t109-58.5 72-89 26-131q0-82-32.5-141t-88-97.5-129.5-57-158-18.5q-44 0-90.5 5.5t-92 16-89.5 25.5-83 33q14 32 29.5 62.5t32.5 60.5q33-14 70-26.5t76-21.5 77-14.5 73-5.5q44 0 85.5 10t74 31.5 52 55.5 19.5 82q0 45-18.5 74t-49.5 48.5-72.5 32-87.5 23.5q-70 17-132.5 39t-109 57.5-74 88-27.5 130.5q0 73 30 126t80.5 87 117 50.5 139.5 16.5z"/><glyph glyph-name="t" unicode="t" horiz-adv-x="861" d="M260 1278h172v-238h350v-145h-350v-597q0-60 3.5-91.5t17.5-49.5q26-36 105-36 44 0 85 9 42 9 77 20 28-61 51-134-118-40-238-40-87 0-139.5 19.5t-82.5 63.5q-31 46-41 110t-10 177v549h-150v145h150v238z"/><glyph glyph-name="u" unicode="u" horiz-adv-x="1158" d="M1028 18l-166-37q-19 60-27 116-4 26-10 106h-21q-55-101-136-161-89-66-188-66-149 0-227 72-67 61-93 187-17 86-17 256v549h172v-597q0-149 29-213 43-95 173-95 92 0 180 88 59 59 126 173v644h172v-642q0-133 7-231 4-61 26-149z"/><glyph glyph-name="v" unicode="v" horiz-adv-x="1022" d="M972 1040l-346-1040h-230l-346 1040h186l275-908 275 908h186z"/><glyph glyph-name="w" unicode="w" horiz-adv-x="1491" d="M1112 0h-229l-125 483-201-483h-226l-266 1041h172l219-916 242 600-81 316h172l225-916q108 250 151 376 52 153 52 263 0 96-47 259 91 23 165 37 42-103 53-222 3-30 3-61 0-164-92-382-25-58-56.5-124.5l-74-154z"/><glyph glyph-name="x" unicode="x" horiz-adv-x="1128" d="M102 964l127 99 328-417 280 394h198l-377-523 349-442-126-99-318 404-271-379h-199l368 507z"/><glyph glyph-name="y" unicode="y" horiz-adv-x="1186" d="M1010 1040v-1063q0-99-32.5-171t-90-119-136.5-69.5-172-22.5q-84 0-169 14.5t-162 40.5q13 35 27 68l28 66q24-8 57.5-17t71-16.5 77-12 76.5-4.5q58 0 105 15.5t80 46.5 50.5 76.5 17.5 104.5v226h-19q-26-47-60-88.5t-75-72.5-88.5-48.5-100.5-17.5q-73 0-127 16.5t-92.5 49-63 81-37.5 112.5q-11 57-14 122t-3 134v549h172v-597q0-65 6-121.5t26.5-98 60.5-65 109-23.5q51 0 96 24.5t83 62.5 69.5 84 57.5 90v644h172z"/><glyph glyph-name="z" unicode="z" horiz-adv-x="991" d="M400 895q-41 0-75 1t-65.5 4.5-64 11.5-70.5 22l25.5 70 25.5 72q40-13 71-20t61-10.5 62-4.5 76-1h420v-120l-522-775h531v-145h-746v121l521 774h-250z"/><glyph glyph-name="braceleft" unicode="{" horiz-adv-x="711" d="M215 920v386q0 118 71 182 82 76 263 76v-123q-117 0-155-44-32-37-32-132v-345q0-68-26-123-19-38-50-75 32-38 50-74 26-55 26-122v-359q0-98 32-132 39-44 155-44v-123q-181 0-263 76-71 64-71 182v400q0 64-49 138-23 34-48 58 51 49 82 121 15 36 15 77z"/><glyph glyph-name="bar" unicode="|" horiz-adv-x="615" d="M230 1571h155v-1702h-155v1702z"/><glyph glyph-name="braceright" unicode="}" horiz-adv-x="711" d="M178 1441v123q180 0 264-76 70-65 70-182v-386q0-68 48-140 23-35 49-58-52-49-82-120-15-36-15-76v-400q0-117-70-182-84-76-264-76v123q117 0 156 44 31 33 31 132v359q0 68 27 122 17 36 49 74-31 37-49 75-27 54-27 123v345q0 96-31 132-38 44-156 44z"/><glyph glyph-name="asciitilde" unicode="~" horiz-adv-x="1145" d="M176 456l-44 92q136 105 240 105 60 0 138.5-28.5t147.5-56.5 106-28q98 0 205 89l44-91q-136-105-240-105-60 0-137 28t-146 56-109 28q-100 0-205-89z"/><glyph glyph-name="uni00A0" horiz-adv-x="600"/><glyph glyph-name="exclamdown" unicode="¡" horiz-adv-x="595" d="M272 1063q24 0 46.5-9.5t39.5-26 27-39 10-47.5-10-47.5-26.5-39-39-26-47.5-9.5-47.5 9.5-39 26-26 39-9.5 47.5q0 24 9.5 46t26 39 39 27 47.5 10zm173-1383q-35-54-74-75.5t-81-21.5q-34 0-58 11.5t-39 31-22 46.5-7 59l41 890 119 34 40-808z"/><glyph glyph-name="cent" unicode="¢" horiz-adv-x="973" d="M852 177l43-140q-176-61-334-61-48 0-90 6l-47-202h-115l53 228q-92 36-153 107-115 134-115 385 0 280 150 430 134 133 359 133h7l54 232h115l-57-244q60-11 133-32l-43-140q-71 24-123 32l-184-783q37-5 70-5 98 0 277 54zm-453-14l176 751q-129-14-208-96-99-102-99-298 0-198 59-288 27-42 72-69z"/><glyph glyph-name="sterling" unicode="£" horiz-adv-x="1144" d="M294 895v169q0 206 68 295 77 101 269 101 129 0 307-43l-31-139q-152 33-243 33-130 0-165-53-17-25-21.5-62.5t-4.5-107.5v-193h343v-154h-343v-587h551v-154h-730v741h-174v154h174z"/><glyph glyph-name="yen" unicode="¥" horiz-adv-x="1299" d="M1234 1438l-423-675h183v-146h-255v-178h255v-146h-255v-293h-179v293h-255v146h255v178h-255v146h183l-423 675h204l380-636 381 636h204z"/><glyph glyph-name="brokenbar" unicode="¦" horiz-adv-x="600" d="M230 1571h155v-670h-155v670zm0-1032h155v-670h-155v670z"/><glyph glyph-name="section" unicode="§" horiz-adv-x="963" d="M803 1376l-62-124q-127 53-258 53-89 0-144.5-34.5t-55.5-110.5q0-33 13.5-59t33-42.5 54-31 63-23 73.5-18.5q65-15 112-30.5t93-41 74.5-58 46-80.5 17.5-109q0-150-111-232 111-77 111-230 0-105-56.5-177.5t-146-104.5-205.5-32q-185 0-355 80l62 123q156-68 296-68 104 0 172 44t68 135q0 35-13.5 62.5t-33.5 45-53.5 31.5-63.5 22-73 17q-76 15-133.5 37.5t-107 58.5-76 91-26.5 128q0 149 128 224-128 83-128 238 0 138 105 209t262 71q168 0 318-64zm-520-678q0-33 13.5-59t33-42.5 54-31 63-23 73.5-18.5q40-9 63-16 115 43 115 159 0 34-12.5 61t-32 44.5-51.5 31.5-61 22-70 17q-188-6-188-145z"/><glyph glyph-name="dieresis" unicode="¨" horiz-adv-x="986" d="M273 1418q24 0 46-9.5t38-25.5 25.5-38 9.5-46q0-26-9.5-48t-25.5-38-38-25.5-46-9.5q-26 0-48 9.5t-39 25.5q-36 33-36 86 0 24 9.5 46t26.5 38 39 25.5 48 9.5zm442 0q25 0 47-9.5t39-25.5 26-38 9-46q0-53-35-86-17-16-39-25.5t-47-9.5q-24 0-45.5 9.5t-38.5 25.5-27 38-10 48q0 24 10 46t27 38 38.5 25.5 45.5 9.5z"/><glyph glyph-name="copyright" unicode="©" horiz-adv-x="1649" d="M824 1229q98 0 189.5-26t171.5-72.5 145.5-112.5 112.5-145.5 73-171 26-189.5-26-189.5-73-171-112.5-145-145.5-112.5-171.5-72.5-189.5-25.5-189.5 25.5-171 72-145.5 111.5-112.5 144.5-72.5 171.5-26 191q0 98 26 189.5t72.5 171 112.5 145.5 145.5 112.5 171 72.5 189.5 26zm0-116q-126 0-236-47t-191-128.5-128-191-47-234.5q0-82 21.5-159t60-144 93.5-122.5 121.5-95.5 144-62 161.5-22 161.5 22 144.5 62 121.5 95.5 93.5 122.5 60.5 144 21.5 159q0 124-47 233t-128.5 191-191.5 129.5-236 47.5zm188-337q-38 15-76.5 25t-81.5 10q-66 0-114.5-24.5t-78.5-64.5-43.5-94.5-13.5-114.5q0-68 10-123t36-96q33-48 86.5-66.5t113.5-18.5q47 0 94.5 9t89.5 23l32-96q-47-14-105.5-25t-121.5-11q-88 0-157.5 21.5t-120.5 78.5q-44 49-66.5 120.5t-22.5 164.5q0 110 28 188t76 129q49 52 116.5 76t149.5 24q56 0 107-10t106-31z"/><glyph glyph-name="guillemotleft" unicode="«" horiz-adv-x="1360" d="M170 518l443 441 100-99-340-342 341-344-101-99zm476 0l443 441 100-99-340-342 341-344-101-99z"/><glyph glyph-name="logicalnot" unicode="¬" horiz-adv-x="1281" d="M185 612h911v-458h-147v311h-764v147z"/><glyph glyph-name="uni00AD" unicode="­" horiz-adv-x="1164" d="M204 632h756v-148h-756v148z"/><glyph glyph-name="registered" unicode="®" horiz-adv-x="1649" d="M824 1229q98 0 189.5-26t171.5-72.5 145.5-112.5 112.5-145.5 73-171 26-189.5-26-189.5-73-171-112.5-145-145.5-112.5-171.5-72.5-189.5-25.5-189.5 25.5-171 72-145.5 111.5-112.5 144.5-72.5 171.5-26 191q0 98 26 189.5t72.5 171 112.5 145.5 145.5 112.5 171 72.5 189.5 26zm0-116q-126 0-236-47t-191-128.5-128-191-47-234.5q0-82 21.5-159t60-144 93.5-122.5 121.5-95.5 144-62 161.5-22 161.5 22 144.5 62 121.5 95.5 93.5 122.5 60.5 144 21.5 159q0 124-47 233t-128.5 191-191.5 129.5-236 47.5zm75-804q-34 49-57 79t-44 47q-22 17-42 23t-47 6h-11v-339h-127v770h272q56 0 105-12.5t85-38 56.5-66 20.5-95.5q0-48-17-86t-46-65-68-43.5-83-20.5q18-11 34.5-26t37.5-39l43-55 45-60 119-163h-149zm-76 248q34 0 63 6t50 20 33 37.5 12 58.5q0 36-12 59.5t-33 37.5-50 20-63 6h-125v-245h125z"/><glyph glyph-name="macron" unicode="¯" horiz-adv-x="623" d="M55 1709h513v-121h-513v121z"/><glyph glyph-name="degree" unicode="°" horiz-adv-x="771" d="M385 1504q60 0 112.5-22t91-60.5 60.5-91 22-112.5-22-112-60.5-90.5-91-60.5-112.5-22-112 22-90.5 60.5-60.5 90.5-22 112 22 112.5 60.5 91 90.5 60.5 112 22zm0-140q-31 0-57.5-11t-46-30.5-31-46.5-11.5-58 11.5-57.5 31-46 46-31 57.5-11.5 58 11.5 46.5 31 30.5 46 11 57.5-11 58-30.5 46.5-46.5 30.5-58 11z"/><glyph glyph-name="plusminus" unicode="±" horiz-adv-x="1134" d="M979 745v-137h-346v-345h-137v345h-345v137h346v346h137v-346h345zm-828-745v137h828v-137h-828z"/><glyph glyph-name="acute" unicode="´" horiz-adv-x="575" d="M229 1443l-51 177q65 47 121 47 62 0 97.5-33t36.5-81.5-18-102.5q-28-67-143-269h-122z"/><glyph glyph-name="paragraph" unicode="¶" horiz-adv-x="600"/><glyph glyph-name="periodcentered" unicode="·" horiz-adv-x="584" d="M292 706q27 0 49.5-9.5t38.5-26 25-39 9-47.5-9.5-47.5-26-39-39-26-47.5-9.5-47.5 9.5-39 26-26 39-9.5 47.5q0 27 10 49t26.5 38.5 39 25.5 46.5 9z"/><glyph glyph-name="cedilla" unicode="¸" horiz-adv-x="756" d="M362 0h121l-89-112q77-24 110.5-59t33.5-91q0-83-58-124t-155-41q-76 0-176 31l50 92q70-43 132-43 40 0 61 22t21 53q0 34-36 59t-114 50z"/><glyph glyph-name="guillemotright" unicode="»" horiz-adv-x="1360" d="M171 860l100 99 443-441-443-443-101 99 341 344zm476 0l100 99 443-441-443-443-101 99 341 344z"/><glyph glyph-name="questiondown" unicode="¿" horiz-adv-x="1012" d="M636 1063q24 0 46.5-9.5t39.5-26 27-39 10-47.5-10-47.5-26.5-39-39-26-47.5-9.5-47.5 9.5-39 26-26 39-9.5 47.5q0 24 9.5 46t26 39 39 27 47.5 10zm128-766q-116-51-201-85t-141.5-69.5-84-82.5-27.5-124q0-60 17.5-98.5t48.5-60 73-30 92-8.5q41 0 82.5 7t81 18 77.5 26 71 31q10-41 17.5-80.5t11.5-80.5q-92-38-177.5-57.5t-170.5-19.5q-74 0-146.5 15t-129.5 54.5-92.5 108-35.5 175.5q0 93 29.5 158t85 114 136.5 89.5 184 84.5v239l139 40z"/><glyph glyph-name="Agrave" unicode="À" horiz-adv-x="1369" d="M737 1571h-122q-115 202-143 269-19 54-18 102.5t36.5 81.5 97.5 33q56 0 121-47l-51-177zm421-1571l-189 489h-569l-189-489h-191l570 1438h189l570-1438h-191zm-699 643h451l-226 585z"/><glyph glyph-name="Aacute" unicode="Á" horiz-adv-x="1369" d="M709 1833l-51 177q65 47 121 47 62 0 97.5-33t36.5-81.5-18-102.5q-28-67-143-269h-122zm449-1833l-189 489h-569l-189-489h-191l570 1438h189l570-1438h-191zm-699 643h451l-226 585z"/><glyph glyph-name="Acircumflex" unicode="Â" horiz-adv-x="1369" d="M367 1648l317 254 313-254-71-87-242 141-246-141zm791-1648l-189 489h-569l-189-489h-191l570 1438h189l570-1438h-191zm-699 643h451l-226 585z"/><glyph glyph-name="Atilde" unicode="Ã" horiz-adv-x="1369" d="M898 1778h100q-15-95-58-146-53-61-141-61-40 0-130 34t-128 34q-31 0-53-25t-22-51h-103q12 80 58 137 53 68 129 68 48 0 134-35t124-35q68 0 90 80zm260-1778l-189 489h-569l-189-489h-191l570 1438h189l570-1438h-191zm-699 643h451l-226 585z"/><glyph glyph-name="Adieresis" unicode="Ä" horiz-adv-x="1369" d="M464 1798q24 0 46-9.5t38-25.5 25.5-38 9.5-46q0-26-9.5-48t-25.5-38-38-25.5-46-9.5q-26 0-48 9.5t-39 25.5q-36 33-36 86 0 24 9.5 46t26.5 38 39 25.5 48 9.5zm442 0q25 0 47-9.5t39-25.5 26-38 9-46q0-53-35-86-17-16-39-25.5t-47-9.5q-24 0-45.5 9.5t-38.5 25.5-27 38-10 48q0 24 10 46t27 38 38.5 25.5 45.5 9.5zm63-1309h-569l-189-489h-191l570 1438h189l570-1438h-191zm-59 154l-226 585-225-585h451z"/><glyph glyph-name="Aring" unicode="Å" horiz-adv-x="1369" d="M685 1922q37 0 69.5-13.5t56.5-37.5 37.5-56.5 13.5-69.5-13.5-69.5-37.5-56.5-56.5-37.5-69.5-13.5-69.5 13.5-56.5 37.5-37.5 56.5-13.5 69.5 13.5 69.5 37.5 56.5 56.5 37.5 69.5 13.5zm0-94q-35 0-59-24t-24-59 24-59 59-24 59 24 24 59-24 59-59 24zm284-1339h-569l-189-489h-191l570 1438h189l570-1438h-191zm-59 154l-226 585-225-585h451z"/><glyph glyph-name="AE" unicode="Æ" horiz-adv-x="1862" d="M1102 154h632v-154h-820v489h-415l-270-489h-229l834 1438h878v-154h-610v-397h431v-154h-431v-579zm-518 489h330v597z"/><glyph glyph-name="Ccedilla" unicode="Ç" horiz-adv-x="1239" d="M721-112q78-24 111-59t33-91q0-43-16-74t-44.5-51.5-67.5-30-85-9.5q-42 0-86 8.5t-90 22.5l50 92q40-20 71.5-31.5t60.5-11.5q42 0 62 23t20 52q0 36-37.5 60.5t-112.5 48.5l85 141q-279 17-419.5 198.5t-140.5 521.5q0 378 156 570t462 192q116 0 208.5-20t178.5-52l-52-148q-41 15-81 27t-80.5 20-83.5 12-90 4q-111 0-191-39.5t-132-115-77-184-25-246.5q0-142 25-251t77-183.5 132-112.5 191-38q102 0 194 17t183 45l47-154q-81-26-171-42.5t-194-21.5z"/><glyph glyph-name="Egrave" unicode="È" horiz-adv-x="1131" d="M667 1571h-122q-115 202-143 269-19 54-18 102.5t36.5 81.5 97.5 33q56 0 121-47l-51-177zm-485-133h798v-154h-610v-397h432v-154h-432v-579h633v-154h-821v1438z"/><glyph glyph-name="Eacute" unicode="É" horiz-adv-x="1131" d="M598 1833l-51 177q65 47 121 47 62 0 97.5-33t36.5-81.5-18-102.5q-28-67-143-269h-122zm-416-395h798v-154h-610v-397h432v-154h-432v-579h633v-154h-821v1438z"/><glyph glyph-name="Ecircumflex" unicode="Ê" horiz-adv-x="1131" d="M274 1648l317 254 313-254-71-87-242 141-246-141zm-92-210h798v-154h-610v-397h432v-154h-432v-579h633v-154h-821v1438z"/><glyph glyph-name="Edieresis" unicode="Ë" horiz-adv-x="1131" d="M361 1798q24 0 46-9.5t38-25.5 25.5-38 9.5-46q0-26-9.5-48t-25.5-38-38-25.5-46-9.5q-26 0-48 9.5t-39 25.5q-36 33-36 86 0 24 9.5 46t26.5 38 39 25.5 48 9.5zm442 0q25 0 47-9.5t39-25.5 26-38 9-46q0-53-35-86-17-16-39-25.5t-47-9.5q-24 0-45.5 9.5t-38.5 25.5-27 38-10 48q0 24 10 46t27 38 38.5 25.5 45.5 9.5zm177-360v-154h-610v-397h432v-154h-432v-579h633v-154h-821v1438h798z"/><glyph glyph-name="Igrave" unicode="Ì" horiz-adv-x="596" d="M367 1571h-122q-115 202-143 269-19 54-18 102.5t36.5 81.5 97.5 33q56 0 121-47l-51-177zm-162-133h188v-1438h-188v1438z"/><glyph glyph-name="Iacute" unicode="Í" horiz-adv-x="596" d="M340 1833l-51 177q65 47 121 47 62 0 97.5-33t36.5-81.5-18-102.5q-28-67-143-269h-122zm-136-395h188v-1438h-188v1438z"/><glyph glyph-name="Icircumflex" unicode="Î" horiz-adv-x="596" d="M-16 1648l317 254 313-254-71-87-242 141-246-141zm220-210h188v-1438h-188v1438z"/><glyph glyph-name="Idieresis" unicode="Ï" horiz-adv-x="596" d="M76 1798q24 0 46-9.5t38-25.5 25.5-38 9.5-46q0-26-9.5-48t-25.5-38-38-25.5-46-9.5q-26 0-48 9.5t-39 25.5q-36 33-36 86 0 24 9.5 46t26.5 38 39 25.5 48 9.5zm442 0q25 0 47-9.5t39-25.5 26-38 9-46q0-53-35-86-17-16-39-25.5t-47-9.5q-24 0-45.5 9.5t-38.5 25.5-27 38-10 48q0 24 10 46t27 38 38.5 25.5 45.5 9.5zm-126-360v-1438h-188v1438h188z"/><glyph glyph-name="Eth" unicode="Ð" horiz-adv-x="1376" d="M486 1438q123 0 228.5-12.5t193.5-43.5 154.5-82.5 114.5-131.5q47-80 71-190t24-259-24-259-71-190q-48-80-114.5-131.5t-154.5-82.5-193.5-43.5-228.5-12.5h-304v650h-284v148h284v640h304zm31-1284q153 0 259.5 30.5t174.5 99.5q67 69 97.5 175.5t30.5 259.5-30.5 259.5-97.5 175.5q-68 69-174.5 99.5t-259.5 30.5h-147v-486h284v-148h-284v-496h147z"/><glyph glyph-name="Ntilde" unicode="Ñ" horiz-adv-x="1529" d="M1019 1778h100q-15-95-58-146-53-61-141-61-40 0-130 34t-128 34q-31 0-53-25t-22-51h-103q12 80 58 137 53 68 129 68 48 0 134-35t124-35q68 0 90 80zm332-1788h-220l-765 1202v-1192h-188v1438h220l765-1202v1202h188v-1448z"/><glyph glyph-name="Ograve" unicode="Ò" horiz-adv-x="1482" d="M827 1571h-122q-115 202-143 269-19 54-18 102.5t36.5 81.5 97.5 33q56 0 121-47l-51-177zm545-852q0-361-163-552t-468-191q-302 0-466.5 190.5t-164.5 552.5q0 361 165 551t466 190q305 0 468-191.5t163-549.5zm-193 0q0 278-109.5 431t-329.5 153q-221 0-329-154.5t-108-429.5q0-135 25.5-241.5t78-184 137-119 196.5-41.5q220 0 329.5 153.5t109.5 432.5z"/><glyph glyph-name="Oacute" unicode="Ó" horiz-adv-x="1482" d="M757 1833l-51 177q65 47 121 47 62 0 97.5-33t36.5-81.5-18-102.5q-28-67-143-269h-122zm615-1114q0-361-163-552t-468-191q-302 0-466.5 190.5t-164.5 552.5q0 361 165 551t466 190q305 0 468-191.5t163-549.5zm-193 0q0 278-109.5 431t-329.5 153q-221 0-329-154.5t-108-429.5q0-135 25.5-241.5t78-184 137-119 196.5-41.5q220 0 329.5 153.5t109.5 432.5z"/><glyph glyph-name="Ocircumflex" unicode="Ô" horiz-adv-x="1482" d="M430 1648l317 254 313-254-71-87-242 141-246-141zm942-929q0-361-163-552t-468-191q-302 0-466.5 190.5t-164.5 552.5q0 361 165 551t466 190q305 0 468-191.5t163-549.5zm-193 0q0 278-109.5 431t-329.5 153q-221 0-329-154.5t-108-429.5q0-135 25.5-241.5t78-184 137-119 196.5-41.5q220 0 329.5 153.5t109.5 432.5z"/><glyph glyph-name="Otilde" unicode="Õ" horiz-adv-x="1482" d="M943 1778h100q-15-95-58-146-53-61-141-61-40 0-130 34t-128 34q-31 0-53-25t-22-51h-103q12 80 58 137 53 68 129 68 48 0 134-35t124-35q68 0 90 80zm429-1059q0-361-163-552t-468-191q-302 0-466.5 190.5t-164.5 552.5q0 361 165 551t466 190q305 0 468-191.5t163-549.5zm-193 0q0 278-109.5 431t-329.5 153q-221 0-329-154.5t-108-429.5q0-135 25.5-241.5t78-184 137-119 196.5-41.5q220 0 329.5 153.5t109.5 432.5z"/><glyph glyph-name="Odieresis" unicode="Ö" horiz-adv-x="1482" d="M520 1798q24 0 46-9.5t38-25.5 25.5-38 9.5-46q0-26-9.5-48t-25.5-38-38-25.5-46-9.5q-26 0-48 9.5t-39 25.5q-36 33-36 86 0 24 9.5 46t26.5 38 39 25.5 48 9.5zm442 0q25 0 47-9.5t39-25.5 26-38 9-46q0-53-35-86-17-16-39-25.5t-47-9.5q-24 0-45.5 9.5t-38.5 25.5-27 38-10 48q0 24 10 46t27 38 38.5 25.5 45.5 9.5zm410-1079q0-181-41.5-320t-122-233-198-142-269.5-48q-149 0-266.5 47.5t-198.5 141-123.5 232.5-42.5 322q0 182 42.5 320.5t123.5 232 198.5 141 266.5 47.5q153 0 270.5-48.5t197.5-143 121.5-232.5 41.5-317zm-193 0q0 135-26.5 243.5t-80.5 184-137 116-195 40.5q-114 0-197-41.5t-136-118-78.5-184.5-25.5-240q0-133 25.5-241.5t78.5-185 136-118 197-41.5q112 0 195 40.5t137 116.5 80.5 184.5 26.5 244.5z"/><glyph glyph-name="multiply" unicode="×" horiz-adv-x="983" d="M833 289l-97-97-245 245-244-244-96 97 244 244-245 244 97 97 245-245 245 245 96-97-244-244z"/><glyph glyph-name="Oslash" unicode="Ø" horiz-adv-x="1482" d="M1192 1438l-51-103q231-187 231-616 0-361-163-552t-468-191q-139 0-250 41l-9-17h-159l41 84q-254 183-254 635 0 361 165 551t466 190q156 0 277-52l15 30h159zm-747-1191l499 1011q-88 45-204 45-221 0-329-154.5t-108-429.5q0-324 142-472zm612 918l-493-1000q76-32 176-32 220 0 329.5 153.5t109.5 432.5q0 298-122 446z"/><glyph glyph-name="Ugrave" unicode="Ù" horiz-adv-x="1486" d="M807 1571h-122q-115 202-143 269-19 54-18 102.5t36.5 81.5 97.5 33q56 0 121-47l-51-177zm321-133h188v-831q0-314-141-472.5t-433-158.5q-572 0-572 631v831h188v-832q0-110 19-193.5t62-148 119-98 184-33.5q88 0 155.5 22.5t110.5 62.5 70.5 100.5 38.5 130 11 157.5v832z"/><glyph glyph-name="Uacute" unicode="Ú" horiz-adv-x="1486" d="M743 1833l-51 177q65 47 121 47 62 0 97.5-33t36.5-81.5-18-102.5q-28-67-143-269h-122zm385-395h188v-831q0-314-141-472.5t-433-158.5q-572 0-572 631v831h188v-832q0-110 19-193.5t62-148 119-98 184-33.5q88 0 155.5 22.5t110.5 62.5 70.5 100.5 38.5 130 11 157.5v832z"/><glyph glyph-name="Ucircumflex" unicode="Û" horiz-adv-x="1486" d="M426 1648l317 254 313-254-71-87-242 141-246-141zm702-210h188v-831q0-314-141-472.5t-433-158.5q-572 0-572 631v831h188v-832q0-110 19-193.5t62-148 119-98 184-33.5q88 0 155.5 22.5t110.5 62.5 70.5 100.5 38.5 130 11 157.5v832z"/><glyph glyph-name="Udieresis" unicode="Ü" horiz-adv-x="1486" d="M522 1798q24 0 46-9.5t38-25.5 25.5-38 9.5-46q0-26-9.5-48t-25.5-38-38-25.5-46-9.5q-26 0-48 9.5t-39 25.5q-36 33-36 86 0 24 9.5 46t26.5 38 39 25.5 48 9.5zm442 0q25 0 47-9.5t39-25.5 26-38 9-46q0-53-35-86-17-16-39-25.5t-47-9.5q-24 0-45.5 9.5t-38.5 25.5-27 38-10 48q0 24 10 46t27 38 38.5 25.5 45.5 9.5zm352-360v-831q0-311-139.5-471t-434.5-160q-148 0-255.5 41t-178 121-104.5 197.5-34 271.5v831h188v-832q0-106 18.5-193t63-149.5 118.5-96.5 184-34q113 0 187.5 34.5t118.5 97 62 149.5 18 192v832h188z"/><glyph glyph-name="Yacute" unicode="Ý" horiz-adv-x="1357" d="M688 1833l-51 177q65 47 121 47 62 0 97.5-33t36.5-81.5-18-102.5q-28-67-143-269h-122zm390-395h214l-520-790v-648h-187v648l-520 790h214l399-636z"/><glyph glyph-name="Thorn" unicode="Þ" horiz-adv-x="1246" d="M375 1191h290q221 0 344-112.5t123-321.5q0-216-149-327.5t-408-111.5q-92 0-202 16v-334h-188v1438h190v-247zm-2-154v-549q110-18 195-18 81 0 147 15.5t118.5 48 81.5 89 29 132.5q0 143-78 212.5t-223 69.5h-270z"/><glyph glyph-name="germandbls" unicode="ß" horiz-adv-x="1240" d="M186 0v1104q0 173 134 266 120 86 293 86 175 0 290-82 65-47 97.5-119.5t32.5-154.5q0-95-39.5-171t-120.5-148q110-39 173.5-129t63.5-216q0-226-135-343.5t-369-117.5q-62 0-127 12l49 152q42-9 81-9 151 0 238 79t87 213q0 65-22 114.5t-52.5 77.5-80 48-88 27.5-92.5 14.5l33 136 95-12q64 50 99.5 119t35.5 142q0 93-59 149-69 67-190 67-112 0-183-52.5t-71-151.5v-1101h-173z"/><glyph glyph-name="agrave" unicode="à" horiz-adv-x="1041" d="M613 1211h-122q-115 202-143 269-19 54-18 102.5t36.5 81.5 97.5 33q56 0 121-47l-51-177zm-384-355l-44 140q168 67 352 67 161 0 246-54 97-62 97-211v-409q0-82 2-168 1-51 10-106 8-52 21-99l-164-36q-23 67-29 150l-20 2q-124-156-316-156-140 0-225 77.5t-85 218.5q0 105 46.5 172t131.5 113q134 73 375 73 32 0 86-2v152q0 72-44 104t-138 32q-137 0-302-60zm484-564v210q-27 2-79 2-88 0-162-15-110-22-170.5-69.5t-60.5-136.5q0-160 174-160 90 0 168 48 64 40 130 121z"/><glyph glyph-name="aacute" unicode="á" horiz-adv-x="1041" d="M550 1473l-51 177q65 47 121 47 62 0 97.5-33t36.5-81.5-18-102.5q-28-67-143-269h-122zm-321-617l-44 140q168 67 352 67 161 0 246-54 97-62 97-211v-409q0-82 2-168 1-51 10-106 8-52 21-99l-164-36q-23 67-29 150l-20 2q-124-156-316-156-140 0-225 77.5t-85 218.5q0 105 46.5 172t131.5 113q134 73 375 73 32 0 86-2v152q0 72-44 104t-138 32q-137 0-302-60zm484-564v210q-27 2-79 2-88 0-162-15-110-22-170.5-69.5t-60.5-136.5q0-160 174-160 90 0 168 48 64 40 130 121z"/><glyph glyph-name="acircumflex" unicode="â" horiz-adv-x="1041" d="M204 1278l317 254 313-254-71-87-242 141-246-141zm25-422l-44 140q168 67 352 67 161 0 246-54 97-62 97-211v-409q0-82 2-168 1-51 10-106 8-52 21-99l-164-36q-23 67-29 150l-20 2q-124-156-316-156-140 0-225 77.5t-85 218.5q0 105 46.5 172t131.5 113q134 73 375 73 32 0 86-2v152q0 72-44 104t-138 32q-137 0-302-60zm484-564v210q-27 2-79 2-88 0-162-15-110-22-170.5-69.5t-60.5-136.5q0-160 174-160 90 0 168 48 64 40 130 121z"/><glyph glyph-name="atilde" unicode="ã" horiz-adv-x="1041" d="M706 1408h100q-15-95-58-146-53-61-141-61-40 0-130 34t-128 34q-31 0-53-25t-22-51h-103q12 80 58 137 53 68 129 68 48 0 134-35t124-35q68 0 90 80zm-477-552l-44 140q168 67 352 67 161 0 246-54 97-62 97-211v-409q0-82 2-168 1-51 10-106 8-52 21-99l-164-36q-23 67-29 150l-20 2q-124-156-316-156-140 0-225 77.5t-85 218.5q0 105 46.5 172t131.5 113q134 73 375 73 32 0 86-2v152q0 72-44 104t-138 32q-137 0-302-60zm484-564v210q-27 2-79 2-88 0-162-15-110-22-170.5-69.5t-60.5-136.5q0-160 174-160 90 0 168 48 64 40 130 121z"/><glyph glyph-name="adieresis" unicode="ä" horiz-adv-x="1041" d="M283 1428q24 0 46-9.5t38-25.5 25.5-38 9.5-46q0-26-9.5-48t-25.5-38-38-25.5-46-9.5q-26 0-48 9.5t-39 25.5q-36 33-36 86 0 24 9.5 46t26.5 38 39 25.5 48 9.5zm442 0q25 0 47-9.5t39-25.5 26-38 9-46q0-53-35-86-17-16-39-25.5t-47-9.5q-24 0-45.5 9.5t-38.5 25.5-27 38-10 48q0 24 10 46t27 38 38.5 25.5 45.5 9.5zm-540-432q81 32 170 49.5t182 17.5q75 0 136.5-12t109.5-42 72.5-81.5 24.5-129.5v-409q0-54 .5-95t1.5-73q1-33 3.5-58t6.5-48q4-24 8.5-46.5t12.5-52.5l-164-36q-12 35-19 72t-10 78l-20 2q-35-44-73.5-73.5t-79-48-82-26.5-81.5-8q-68 0-125 19t-98 56.5-64 93-23 127.5q0 56 13 99.5t37 78 56.5 60.5 71.5 47q78 42 175 57.5t200 15.5q20 0 43-.5t43-1.5v152q0 72-44 104t-138 32q-85 0-160.5-18t-141.5-42zm528-494q-20 2-39.5 2h-39.5q-33 0-75-3t-87-12q-50-10-92.5-25.5t-73-40-48-58.5-17.5-82q0-86 47-123t127-37q48 0 89.5 12.5t78.5 35.5q36 23 68 53.5t62 67.5v210z"/><glyph glyph-name="aring" unicode="å" horiz-adv-x="1041" d="M514 1552q37 0 69.5-13.5t56.5-37.5 37.5-56.5 13.5-69.5-13.5-69.5-37.5-56.5-56.5-37.5-69.5-13.5-69.5 13.5-56.5 37.5-37.5 56.5-13.5 69.5 13.5 69.5 37.5 56.5 56.5 37.5 69.5 13.5zm0-94q-35 0-59-24t-24-59 24-59 59-24 59 24 24 59-24 59-59 24zm-329-462q81 32 170 49.5t182 17.5q75 0 136.5-12t109.5-42 72.5-81.5 24.5-129.5v-409q0-54 .5-95t1.5-73q1-33 3.5-58t6.5-48q4-24 8.5-46.5t12.5-52.5l-164-36q-12 35-19 72t-10 78l-20 2q-35-44-73.5-73.5t-79-48-82-26.5-81.5-8q-68 0-125 19t-98 56.5-64 93-23 127.5q0 56 13 99.5t37 78 56.5 60.5 71.5 47q78 42 175 57.5t200 15.5q20 0 43-.5t43-1.5v152q0 72-44 104t-138 32q-85 0-160.5-18t-141.5-42zm528-494q-20 2-39.5 2h-39.5q-33 0-75-3t-87-12q-50-10-92.5-25.5t-73-40-48-58.5-17.5-82q0-86 47-123t127-37q48 0 89.5 12.5t78.5 35.5q36 23 68 53.5t62 67.5v210z"/><glyph glyph-name="ae" unicode="æ" horiz-adv-x="1705" d="M1612 524v-55h-736q5-348 309-348 81 0 209 34 48 13 112 38l50-135q-168-67-310-78-33-4-73-4-230 0-353 143-22 26-43 60-53-68-106-111.5t-106-62-91-24-90-5.5q-140 0-225 77.5t-85 218.5q0 105 46.5 172t131.5 113q134 73 375 73l86-1v151q0 72-44 104t-138 32q-137 0-302-60l-44 140q168 67 352 67 131 0 196-29t107-111q53 67 128.5 103.5t194.5 36.5q199 0 313-114 136-138 136-425zm-727 83h554q-8 159-77 235t-199 76q-129 0-196.5-75t-81.5-236zm-302-436q76 48 143 133-23 86-23 186v13q-23 1-69 1-88 0-162-15-110-22-170.5-69.5t-60.5-136.5q0-160 174-160 90 0 168 48z"/><glyph glyph-name="ccedilla" unicode="ç" horiz-adv-x="973" d="M535-112q78-24 111-59t33-91q0-43-16-74t-44.5-51.5-67.5-30-85-9.5q-42 0-86 8.5t-90 22.5l50 92q40-20 71.5-31.5t60.5-11.5q42 0 62 23t20 52q0 36-37.5 60.5t-112.5 48.5l86 142q-102 10-176.5 49.5t-123 105.5-72.5 158-24 208q0 136 34.5 241t100 176.5 160 108.5 214.5 37q61 0 124-12.5t128-31.5l-43-140q-52 17-96.5 27t-93.5 10q-170 0-262-98.5t-92-297.5q0-93 13.5-166.5t48-125 94-78.5 151.5-27q60 0 129.5 15.5t147.5 38.5l43-140q-67-23-142-39t-147-21z"/><glyph glyph-name="egrave" unicode="è" horiz-adv-x="1102" d="M494 1181l-35.5 62-40.5 73.5-38.5 72.5-28.5 61q-16 39-18 78t11.5 69.5 43.5 50 79 19.5q28 0 55.5-10t65.5-37l-51-177 79-262h-122zm452-1123q-111-44-208.5-63t-174.5-19q-118 0-206 37.5t-146.5 105.5-88 162.5-29.5 208.5q0 70 10 140t32 133.5 57.5 118.5 86.5 95 119 63 155 23q223 0 336-139.5t113-399.5v-55h-732q0-84 18-148.5t55.5-109 95-67.5 136.5-23q44 0 87.5 6.5t84.5 17 78.5 23.5l70.5 25zm-117 549q-8 162-77.5 236.5t-198.5 74.5-196.5-74.5-81.5-236.5h554z"/><glyph glyph-name="eacute" unicode="é" horiz-adv-x="1102" d="M519 1620q38 27 65.5 37t55.5 10q49 0 79-19.5t43.5-50 11.5-69.5-18-78q-11-26-29-61l-38-72.5-40.5-73.5-35.5-62h-122l79 262zm427-1562q-111-44-208.5-63t-174.5-19q-118 0-206 37.5t-146.5 105.5-88 162.5-29.5 208.5q0 70 10 140t32 133.5 57.5 118.5 86.5 95 119 63 155 23q223 0 336-139.5t113-399.5v-55h-732q0-84 18-148.5t55.5-109 95-67.5 136.5-23q44 0 87.5 6.5t84.5 17 78.5 23.5l70.5 25zm-117 549q-8 162-77.5 236.5t-198.5 74.5-196.5-74.5-81.5-236.5h554z"/><glyph glyph-name="ecircumflex" unicode="ê" horiz-adv-x="1102" d="M554 1522l313-254-71-87-242 141-246-141-71 87zm392-1464q-111-44-208.5-63t-174.5-19q-118 0-206 37.5t-146.5 105.5-88 162.5-29.5 208.5q0 70 10 140t32 133.5 57.5 118.5 86.5 95 119 63 155 23q223 0 336-139.5t113-399.5v-55h-732q0-84 18-148.5t55.5-109 95-67.5 136.5-23q44 0 87.5 6.5t84.5 17 78.5 23.5l70.5 25zm-117 549q-8 162-77.5 236.5t-198.5 74.5-196.5-74.5-81.5-236.5h554z"/><glyph glyph-name="edieresis" unicode="ë" horiz-adv-x="1102" d="M334 1418q24 0 45.5-9.5t38-26 26-38 9.5-45.5q0-26-9.5-48t-25.5-38-37.5-25.5-46.5-9.5q-26 0-48 9.5t-39 25.5-26.5 38-9.5 48q0 25 9.5 46.5t26.5 37.5 39 25.5 48 9.5zm442 0q25 0 47-9.5t38.5-25.5 26-37.5 9.5-46.5q0-27-10-49.5t-26.5-38-38.5-24.5-46-9-46 9.5-38.5 26-26.5 38.5-10 47 10.5 46.5 27.5 37.5 38.5 25.5 44.5 9.5zm170-1360q-111-44-208.5-63t-174.5-19q-118 0-206 37.5t-146.5 105.5-88 162.5-29.5 208.5q0 70 10 140t32 133.5 57.5 118.5 86.5 95 119 63 155 23q223 0 336-139.5t113-399.5v-55h-732q0-84 18-148.5t55.5-109 95-67.5 136.5-23q44 0 87.5 6.5t84.5 17 78.5 23.5l70.5 25zm-117 549q-8 162-77.5 236.5t-198.5 74.5-196.5-74.5-81.5-236.5h554z"/><glyph glyph-name="igrave" unicode="ì" horiz-adv-x="534" d="M325 1211h-122q-115 202-143 269-19 54-18 102.5t36.5 81.5 97.5 33q56 0 121-47l-51-177zm-143-171h172v-1040h-172v1040z"/><glyph glyph-name="iacute" unicode="í" horiz-adv-x="600" d="M299 1473l-51 177q65 47 121 47 62 0 97.5-33t36.5-81.5-18-102.5q-28-67-143-269h-122zm-118-433h172v-1040h-172v1040z"/><glyph glyph-name="icircumflex" unicode="î" horiz-adv-x="600" d="M-16 1278l317 254 313-254-71-87-242 141-246-141zm228-238h172v-1040h-172v1040z"/><glyph glyph-name="idieresis" unicode="ï" horiz-adv-x="534" d="M47 1428q24 0 46-9.5t38-25.5 25.5-38 9.5-46q0-26-9.5-48t-25.5-38-38-25.5-46-9.5q-26 0-48 9.5t-39 25.5q-36 33-36 86 0 24 9.5 46t26.5 38 39 25.5 48 9.5zm442 0q25 0 47-9.5t39-25.5 26-38 9-46q0-53-35-86-17-16-39-25.5t-47-9.5q-24 0-45.5 9.5t-38.5 25.5-27 38-10 48q0 24 10 46t27 38 38.5 25.5 45.5 9.5zm-136-388v-1040h-172v1040h172z"/><glyph glyph-name="eth" unicode="ð" horiz-adv-x="1130" d="M769 1405l-61-50q161-104 246-314 78-193 86-477 4-134-23-241t-84-185-150.5-120-218.5-42q-119 0-212.5 42t-149 113.5-84 159.5-28.5 187q0 226 113 353 108 119 302 119 162 0 314-103-51 293-244 400l-291-237v151l164 134q-105 24-237 17v148q219 14 382-47l176 143v-151zm-205-1272q64 0 114.5 20t83.5 55 54.5 85 30.5 106.5 9 122.5q0 83-14 144-66 55-148.5 91t-150.5 36q-123 0-194-71-75-78-75-249 0-157 74.5-248.5t215.5-91.5z"/><glyph glyph-name="ntilde" unicode="ñ" horiz-adv-x="1147" d="M810 1408h100q-15-95-58-146-53-61-141-61-40 0-130 34t-128 34q-31 0-53-25t-22-51h-103q12 80 58 137 53 68 129 68 48 0 134-35t124-35q68 0 90 80zm-675-386l166 37q19-60 27-116 4-27 10-107h21q55 101 136 161 89 66 188 66 149 0 227-72 67-61 93-187 17-86 17-256v-548h-172v596q0 149-29 213-43 95-173 95-92 0-180-88-59-59-126-173v-643h-172v640q0 135-7 233-4 61-26 149z"/><glyph glyph-name="ograve" unicode="ò" horiz-adv-x="1113" d="M496 1211l-35.5 62-40.5 73.5-38.5 72.5-28.5 61q-16 39-18 78t11.5 69.5 43.5 50 79 19.5q28 0 55.5-10t65.5-37l-51-177 79-262h-122zm59-148q49 0 102-7.5t104-28.5q51-22 96.5-59.5t80.5-97.5q35-61 55-146.5t20-203.5-20-203.5-55-145.5q-35-61-80.5-99t-96.5-59q-51-22-104-29.5t-102-7.5q-48 0-100.5 7.5t-103.5 29.5q-51 21-96 59t-80 99q-35 60-55 145.5t-20 203.5 20 203.5 55 146.5q35 60 80 97.5t96 59.5q51 21 103 28.5t101 7.5zm0-141q-57 0-107.5-18t-88.5-63q-39-46-62-123t-23-198q0-120 23-197.5t62-122.5q38-46 88.5-63.5t107.5-17.5q58 0 109.5 17.5t90.5 63.5q39 45 61.5 122.5t22.5 197.5q0 121-22.5 198t-61.5 123q-39 45-90.5 63t-109.5 18z"/><glyph glyph-name="oacute" unicode="ó" horiz-adv-x="1113" d="M517 1650q38 27 65.5 37t55.5 10q49 0 79-19.5t43.5-50 11.5-69.5-18-78q-11-26-29-61l-38-72.5-40.5-73.5-35.5-62h-122l79 262zm38-587q49 0 102-7.5t104-28.5q51-22 96.5-59.5t80.5-97.5q35-61 55-146.5t20-203.5-20-203.5-55-145.5q-35-61-80.5-99t-96.5-59q-51-22-104-29.5t-102-7.5q-48 0-100.5 7.5t-103.5 29.5q-51 21-96 59t-80 99q-35 60-55 145.5t-20 203.5 20 203.5 55 146.5q35 60 80 97.5t96 59.5q51 21 103 28.5t101 7.5zm0-141q-57 0-107.5-18t-88.5-63q-39-46-62-123t-23-198q0-120 23-197.5t62-122.5q38-46 88.5-63.5t107.5-17.5q58 0 109.5 17.5t90.5 63.5q39 45 61.5 122.5t22.5 197.5q0 121-22.5 198t-61.5 123q-39 45-90.5 63t-109.5 18z"/><glyph glyph-name="ocircumflex" unicode="ô" horiz-adv-x="1113" d="M561 1532l313-254-71-87-242 141-246-141-71 87zm-6-469q49 0 102-7.5t104-28.5q51-22 96.5-59.5t80.5-97.5q35-61 55-146.5t20-203.5-20-203.5-55-145.5q-35-61-80.5-99t-96.5-59q-51-22-104-29.5t-102-7.5q-48 0-100.5 7.5t-103.5 29.5q-51 21-96 59t-80 99q-35 60-55 145.5t-20 203.5 20 203.5 55 146.5q35 60 80 97.5t96 59.5q51 21 103 28.5t101 7.5zm0-141q-57 0-107.5-18t-88.5-63q-39-46-62-123t-23-198q0-120 23-197.5t62-122.5q38-46 88.5-63.5t107.5-17.5q58 0 109.5 17.5t90.5 63.5q39 45 61.5 122.5t22.5 197.5q0 121-22.5 198t-61.5 123q-39 45-90.5 63t-109.5 18z"/><glyph glyph-name="otilde" unicode="õ" horiz-adv-x="1113" d="M874 1408q-7-42-21-80t-37-66q-24-28-58.5-44.5t-82.5-16.5q-29 0-62.5 10.5t-67.5 23.5-67 23.5-61 10.5q-15 0-29-7t-24-18-16-24.5-6-26.5h-103q5 34 19.5 70.5t38.5 66.5q23 30 55 49t74 19q37 0 69.5-11t64.5-24 62-24 62-11q38 0 59 22.5t31 57.5h100zm-319-345q49 0 102-7.5t104-28.5q51-22 96.5-59.5t80.5-97.5q35-61 55-146.5t20-203.5-20-203.5-55-145.5q-35-61-80.5-99t-96.5-59q-51-22-104-29.5t-102-7.5q-48 0-100.5 7.5t-103.5 29.5q-51 21-96 59t-80 99q-35 60-55 145.5t-20 203.5 20 203.5 55 146.5q35 60 80 97.5t96 59.5q51 21 103 28.5t101 7.5zm0-141q-57 0-107.5-18t-88.5-63q-39-46-62-123t-23-198q0-120 23-197.5t62-122.5q38-46 88.5-63.5t107.5-17.5q58 0 109.5 17.5t90.5 63.5q39 45 61.5 122.5t22.5 197.5q0 121-22.5 198t-61.5 123q-39 45-90.5 63t-109.5 18z"/><glyph glyph-name="odieresis" unicode="ö" horiz-adv-x="1113" d="M341 1428q24 0 46-9.5t38-25.5 25.5-38 9.5-46q0-26-9.5-48t-25.5-38-38-25.5-46-9.5q-26 0-48 9.5t-39 25.5q-36 33-36 86 0 24 9.5 46t26.5 38 39 25.5 48 9.5zm442 0q25 0 47-9.5t39-25.5 26-38 9-46q0-53-35-86-17-16-39-25.5t-47-9.5q-24 0-45.5 9.5t-38.5 25.5-27 38-10 48q0 24 10 46t27 38 38.5 25.5 45.5 9.5zm-228-365q49 0 102-7.5t104-28.5q51-22 96.5-59.5t80.5-97.5q35-61 55-146.5t20-203.5-20-203.5-55-145.5q-35-61-80.5-99t-96.5-59q-51-22-104-29.5t-102-7.5q-48 0-100.5 7.5t-103.5 29.5q-51 21-96 59t-80 99q-35 60-55 145.5t-20 203.5 20 203.5 55 146.5q35 60 80 97.5t96 59.5q51 21 103 28.5t101 7.5zm0-141q-57 0-107.5-18t-88.5-63q-39-46-62-123t-23-198q0-120 23-197.5t62-122.5q38-46 88.5-63.5t107.5-17.5q58 0 109.5 17.5t90.5 63.5q39 45 61.5 122.5t22.5 197.5q0 121-22.5 198t-61.5 123q-39 45-90.5 63t-109.5 18z"/><glyph glyph-name="divide" unicode="÷" horiz-adv-x="1130" d="M565 769q-22 0-41 8.5t-33.5 23-23 34-8.5 41.5 8.5 41 23 33.5 33.5 23 41 8.5 41.5-8.5 34-23 23-33.5 8.5-41-8.5-41.5-23-34-34-23-41.5-8.5zm-414-298v137h828v-137h-828zm414-161q22 0 41.5-8.5t34-23 23-34 8.5-41.5-8.5-41-23-33.5-34-23-41.5-8.5-41 8.5-33.5 23-23 33.5-8.5 41 8.5 41.5 23 34 33.5 23 41 8.5z"/><glyph glyph-name="oslash" unicode="ø" horiz-adv-x="1113" d="M856 968q48-39 82-98 35-61 55-146.5t20-203.5-20-203.5-55-145.5q-35-61-80.5-99t-96.5-59q-51-22-104-29.5t-102-7.5q-42 0-86.5 5.5t-89.5 20.5l-99-201h-159l134 271q-23 20-43 44t-37 55q-35 60-55 145.5t-20 203.5 20 203.5 55 146.5q35 60 80 97.5t96 59.5q51 21 103 28.5t101 7.5q42 0 87-5.5t90-19.5l99 201h159zm-191-64q-26 10-53.5 14t-56.5 4q-57 0-107.5-18t-88.5-63q-39-46-62-123t-23-198q0-100 16-170t45-116zm-219-767q26-10 53-14t56-4q58 0 109.5 17.5t90.5 63.5q39 45 61.5 122.5t22.5 197.5q0 102-16 172t-45 117z"/><glyph glyph-name="ugrave" unicode="ù" horiz-adv-x="1158" d="M631 1211h-122q-115 202-143 269-19 54-18 102.5t36.5 81.5 97.5 33q56 0 121-47l-51-177zm397-1193l-166-37q-19 60-27 116-4 26-10 106h-21q-55-101-136-161-89-66-188-66-149 0-227 72-67 61-93 187-17 86-17 256v549h172v-597q0-149 29-213 43-95 173-95 92 0 180 88 59 59 126 173v644h172v-642q0-133 7-231 4-61 26-149z"/><glyph glyph-name="uacute" unicode="ú" horiz-adv-x="1158" d="M572 1473l-51 177q65 47 121 47 62 0 97.5-33t36.5-81.5-18-102.5q-28-67-143-269h-122zm456-1455l-166-37q-19 60-27 116-4 26-10 106h-21q-55-101-136-161-89-66-188-66-149 0-227 72-67 61-93 187-17 86-17 256v549h172v-597q0-149 29-213 43-95 173-95 92 0 180 88 59 59 126 173v644h172v-642q0-133 7-231 4-61 26-149z"/><glyph glyph-name="ucircumflex" unicode="û" horiz-adv-x="1158" d="M254 1278l317 254 313-254-71-87-242 141-246-141zm774-1260l-166-37q-19 60-27 116-4 26-10 106h-21q-55-101-136-161-89-66-188-66-149 0-227 72-67 61-93 187-17 86-17 256v549h172v-597q0-149 29-213 43-95 173-95 92 0 180 88 59 59 126 173v644h172v-642q0-133 7-231 4-61 26-149z"/><glyph glyph-name="udieresis" unicode="ü" horiz-adv-x="1158" d="M345 1428q24 0 46-9.5t38-25.5 25.5-38 9.5-46q0-26-9.5-48t-25.5-38-38-25.5-46-9.5q-26 0-48 9.5t-39 25.5q-36 33-36 86 0 24 9.5 46t26.5 38 39 25.5 48 9.5zm442 0q25 0 47-9.5t39-25.5 26-38 9-46q0-53-35-86-17-16-39-25.5t-47-9.5q-24 0-45.5 9.5t-38.5 25.5-27 38-10 48q0 24 10 46t27 38 38.5 25.5 45.5 9.5zm75-1447q-10 31-16.5 60.5t-10.5 55.5-6 51.5-4 54.5h-21q-26-48-60-89t-76-72-89-48.5-99-17.5q-78 0-133.5 18.5t-93.5 53.5-59.5 82.5-33.5 104.5q-11 57-14 122t-3 134v549h172v-597q0-60 4.5-115t24.5-98 60.5-69 112.5-26q52 0 97 25t83 63q39 39 70 85t56 88v644h172v-642q0-81 2-135t5-96 9.5-75.5 16.5-73.5z"/><glyph glyph-name="yacute" unicode="ý" horiz-adv-x="1186" d="M558 1620q38 27 65.5 37t55.5 10q49 0 79-19.5t43.5-50 11.5-69.5-18-78q-11-26-29-61l-38-72.5-40.5-73.5-35.5-62h-122l79 262zm452-580v-1063q0-99-32.5-171t-90-119-136.5-69.5-172-22.5q-84 0-169 14.5t-162 40.5q13 35 27 68l28 66q24-8 57.5-17t71-16.5 77-12 76.5-4.5q58 0 105 15.5t80 46.5 50.5 76.5 17.5 104.5v226h-19q-26-47-60-88.5t-75-72.5-88.5-48.5-100.5-17.5q-73 0-127 16.5t-92.5 49-63 81-37.5 112.5q-11 57-14 122t-3 134v549h172v-597q0-65 6-121.5t26.5-98 60.5-65 109-23.5q51 0 96 24.5t83 62.5 69.5 84 57.5 90v644h172z"/><glyph glyph-name="thorn" unicode="þ" horiz-adv-x="1074" d="M313 838h15q52 108 115 160 77 64 188 64 78 0 139-28.5t100.5-77 65.5-117.5 37-144 11-162q0-98-15.5-181t-50-153.5-86.5-119.5-128.5-76.5-171.5-27.5q-94 0-221 25v-401h-171v1841h170v-605zm-2-221v-466q113-30 208-30 81 0 139.5 29.5t91.5 83 48 119.5 15 149q0 56-2.5 98.5t-9 92-20.5 84.5-35 65-54.5 45.5-77.5 15.5q-106 0-184-85-56-62-119-201z"/><glyph glyph-name="ydieresis" unicode="ÿ" horiz-adv-x="1186" d="M373 1418q24 0 45.5-9.5t38-26 26-38 9.5-45.5q0-26-9.5-48t-25.5-38-37.5-25.5-46.5-9.5q-26 0-48 9.5t-39 25.5-26.5 38-9.5 48q0 25 9.5 46.5t26.5 37.5 39 25.5 48 9.5zm442 0q25 0 47-9.5t38.5-25.5 26-37.5 9.5-46.5q0-27-10-49.5t-26.5-38-38.5-24.5-46-9-46 9.5-38.5 26-26.5 38.5-10 47 10.5 46.5 27.5 37.5 38.5 25.5 44.5 9.5zm195-378v-1063q0-99-32.5-171t-90-119-136.5-69.5-172-22.5q-84 0-169 14.5t-162 40.5q13 35 27 68l28 66q24-8 57.5-17t71-16.5 77-12 76.5-4.5q58 0 105 15.5t80 46.5 50.5 76.5 17.5 104.5v226h-19q-26-47-60-88.5t-75-72.5-88.5-48.5-100.5-17.5q-73 0-127 16.5t-92.5 49-63 81-37.5 112.5q-11 57-14 122t-3 134v549h172v-597q0-65 6-121.5t26.5-98 60.5-65 109-23.5q51 0 96 24.5t83 62.5 69.5 84 57.5 90v644h172z"/><glyph glyph-name="Amacron" unicode="Ā" horiz-adv-x="1369" d="M427 1719h513v-121h-513v121zm731-1719l-189 489h-569l-189-489h-191l570 1438h189l570-1438h-191zm-699 643h451l-226 585z"/><glyph glyph-name="amacron" unicode="ā" horiz-adv-x="1041" d="M267 1359h513v-121h-513v121zm-38-503l-44 140q168 67 352 67 161 0 246-54 97-62 97-211v-409q0-82 2-168 1-51 10-106 8-52 21-99l-164-36q-23 67-29 150l-20 2q-124-156-316-156-140 0-225 77.5t-85 218.5q0 105 46.5 172t131.5 113q134 73 375 73 32 0 86-2v152q0 72-44 104t-138 32q-137 0-302-60zm484-564v210q-27 2-79 2-88 0-162-15-110-22-170.5-69.5t-60.5-136.5q0-160 174-160 90 0 168 48 64 40 130 121z"/><glyph glyph-name="Abreve" unicode="Ă" horiz-adv-x="1369" d="M893 1887h76q-16-82-33.5-123t-52.5-82q-38-45-90-69.5t-107-24.5q-109 0-182.5 76t-104.5 223h76q31-81 82.5-117t130.5-36q75 0 124.5 36t80.5 117zm265-1887l-189 489h-569l-189-489h-191l570 1438h189l570-1438h-191zm-699 643h451l-226 585z"/><glyph glyph-name="abreve" unicode="ă" horiz-adv-x="1041" d="M711 1517h76q-16-82-33.5-123t-52.5-82q-38-45-90-69.5t-107-24.5q-109 0-182.5 76t-104.5 223h76q31-81 82.5-117t130.5-36q75 0 124.5 36t80.5 117zm-482-661l-44 140q168 67 352 67 161 0 246-54 97-62 97-211v-409q0-82 2-168 1-51 10-106 8-52 21-99l-164-36q-23 67-29 150l-20 2q-124-156-316-156-140 0-225 77.5t-85 218.5q0 105 46.5 172t131.5 113q134 73 375 73 32 0 86-2v152q0 72-44 104t-138 32q-137 0-302-60zm484-564v210q-27 2-79 2-88 0-162-15-110-22-170.5-69.5t-60.5-136.5q0-160 174-160 90 0 168 48 64 40 130 121z"/><glyph glyph-name="Aogonek" unicode="Ą" horiz-adv-x="1369" d="M1349 0h-84q-58-70-83-113.5t-25-90.5q0-92 71-92 37 0 102 25l-5-90q-71-47-149-47-65 0-106 44.5t-41 121.5q0 36 7.5 65.5t29 62 37.5 52 55 62.5l-189 489h-569l-189-489h-191l570 1438h189zm-890 643h451l-226 585z"/><glyph glyph-name="aogonek" unicode="ą" horiz-adv-x="1041" d="M913 16l-68-15q-59-71-84-114t-25-91q0-92 71-92 37 0 102 25l-5-90q-71-47-149-47-65 0-106 44.5t-41 121.5q0 30 7.5 57.5t15 45.5 30 48 34.5 43.5l46 52.5q-17 59-21 125l-20 2q-124-156-316-156-140 0-225 77.5t-85 218.5q0 105 46.5 172t131.5 113q134 73 375 73 32 0 86-2v152q0 72-44 104t-138 32q-137 0-302-60l-44 140q168 67 352 67 161 0 246-54 97-62 97-211v-409q0-82 2-168 1-51 10-106 8-52 21-99zm-200 276v210q-27 2-79 2-88 0-162-15-110-22-170.5-69.5t-60.5-136.5q0-160 174-160 90 0 168 48 64 40 130 121z"/><glyph glyph-name="Cacute" unicode="Ć" horiz-adv-x="1239" d="M695 2017q38 27 65.5 37t55.5 10q49 0 79-19.5t43.5-50 11.5-69.5-18-78q-11-26-29-61l-38-72.5-40.5-73.5-35.5-62h-122l79 262zm462-1976q-93-29-196.5-47t-227.5-18q-306 0-462 183t-156 539q0 378 156 570t462 192q116 0 208.5-20t178.5-52l-52-148q-41 15-81 27t-80.5 20-83.5 12-90 4q-111 0-191-39.5t-132-115-77-184-25-246.5q0-142 25-251t77-183.5 132-112.5 191-38q102 0 194 17t183 45z"/><glyph glyph-name="cacute" unicode="ć" horiz-adv-x="973" d="M482 1620q38 27 65.5 37t55.5 10q49 0 79-19.5t43.5-50 11.5-69.5-18-78q-11-26-29-61l-38-72.5-40.5-73.5-35.5-62h-122l79 262zm413-1583q-78-27-166.5-44t-167.5-17q-120 0-208 35t-145.5 102-85.5 164.5-28 222.5q0 136 34.5 241t100 176.5 160 108.5 214.5 37q61 0 124-12.5t128-31.5l-43-140q-52 17-96.5 27t-93.5 10q-170 0-262-98.5t-92-297.5q0-93 13.5-166.5t48-125 94-78.5 151.5-27q60 0 129.5 15.5t147.5 38.5z"/><glyph glyph-name="Cdotaccent" unicode="Ċ" horiz-adv-x="1239" d="M730 1815q25 0 47-9.5t38.5-25.5 26-37.5 9.5-46.5q0-27-10-49.5t-26.5-38-38.5-24.5-46-9-46 9.5-38.5 26-26.5 38.5-10 47 10.5 46.5 27.5 37.5 38.5 25.5 44.5 9.5zm427-1774q-93-29-196.5-47t-227.5-18q-306 0-462 183t-156 539q0 378 156 570t462 192q116 0 208.5-20t178.5-52l-52-148q-41 15-81 27t-80.5 20-83.5 12-90 4q-111 0-191-39.5t-132-115-77-184-25-246.5q0-142 25-251t77-183.5 132-112.5 191-38q102 0 194 17t183 45z"/><glyph glyph-name="cdotaccent" unicode="ċ" horiz-adv-x="973" d="M517 1418q25 0 47-9.5t38.5-25.5 26-37.5 9.5-46.5q0-27-10-49.5t-26.5-38-38.5-24.5-46-9-46 9.5-38.5 26-26.5 38.5-10 47 10.5 46.5 27.5 37.5 38.5 25.5 44.5 9.5zm378-1381q-78-27-166.5-44t-167.5-17q-120 0-208 35t-145.5 102-85.5 164.5-28 222.5q0 136 34.5 241t100 176.5 160 108.5 214.5 37q61 0 124-12.5t128-31.5l-43-140q-52 17-96.5 27t-93.5 10q-170 0-262-98.5t-92-297.5q0-93 13.5-166.5t48-125 94-78.5 151.5-27q60 0 129.5 15.5t147.5 38.5z"/><glyph glyph-name="Ccaron" unicode="Č" horiz-adv-x="1239" d="M972 1919l71-87-313-254-317 254 71 87 246-141zm185-1878q-93-29-196.5-47t-227.5-18q-306 0-462 183t-156 539q0 378 156 570t462 192q116 0 208.5-20t178.5-52l-52-148q-41 15-81 27t-80.5 20-83.5 12-90 4q-111 0-191-39.5t-132-115-77-184-25-246.5q0-142 25-251t77-183.5 132-112.5 191-38q102 0 194 17t183 45z"/><glyph glyph-name="ccaron" unicode="č" horiz-adv-x="973" d="M759 1522l71-87-313-254-317 254 71 87 246-141zm136-1485q-78-27-166.5-44t-167.5-17q-120 0-208 35t-145.5 102-85.5 164.5-28 222.5q0 136 34.5 241t100 176.5 160 108.5 214.5 37q61 0 124-12.5t128-31.5l-43-140q-52 17-96.5 27t-93.5 10q-170 0-262-98.5t-92-297.5q0-93 13.5-166.5t48-125 94-78.5 151.5-27q60 0 129.5 15.5t147.5 38.5z"/><glyph glyph-name="Dcaron" unicode="Ď" horiz-adv-x="1376" d="M848 1902l71-87-313-254-317 254 71 87 246-141zm-666-1902v1438h304q123 0 228.5-12.5t193.5-43.5 154.5-82.5 114.5-131.5q47-80 71-190t24-259-24-259-71-190q-48-80-114.5-131.5t-154.5-82.5-193.5-43.5-228.5-12.5h-304zm335 154q153 0 259.5 30.5t174.5 99.5q67 69 97.5 175.5t30.5 259.5-30.5 259.5-97.5 175.5q-68 69-174.5 99.5t-259.5 30.5h-147v-1130h147z"/><glyph glyph-name="dcaron" unicode="ď" horiz-adv-x="1123" d="M1194 1223l-51 177q65 47 121 47 62 0 97.5-33t36.5-81.5-18-102.5q-28-67-143-269h-122zm-418 217h172v-1047q0-176 5-231 5-68 23-146l-166-37q-17 56-25 113-10 70-11 108h-15q-52-108-115-159-76-65-188-65-98 0-169 42.5t-110.5 118.5-58 167-18.5 201q0 124 25.5 223t78.5 175.5 142 118 209 41.5q94 0 221-25v402zm0-1019v465q-113 30-208 30-81 0-139.5-29.5t-91.5-83-48-119.5-15-148q0-56 2.5-98.5t9-92 20.5-84.5 35-65 54.5-45.5 77.5-15.5q106 0 184 85 56 62 119 201z"/><glyph glyph-name="Dcroat" unicode="Đ" horiz-adv-x="1376" d="M808 1719v-121h-513v121h513zm-626-1719v1438h304q123 0 228.5-12.5t193.5-43.5 154.5-82.5 114.5-131.5q47-80 71-190t24-259-24-259-71-190q-48-80-114.5-131.5t-154.5-82.5-193.5-43.5-228.5-12.5h-304zm335 154q153 0 259.5 30.5t174.5 99.5q67 69 97.5 175.5t30.5 259.5-30.5 259.5-97.5 175.5q-68 69-174.5 99.5t-259.5 30.5h-147v-1130h147z"/><glyph glyph-name="dcroat" unicode="đ" horiz-adv-x="1123" d="M1109 1173h-161v-780q0-176 5-231 5-68 23-146l-166-37q-17 56-25 113-10 70-11 108h-15q-52-108-115-159-76-65-188-65-98 0-169 42.5t-110.5 118.5-58 167-18.5 201q0 124 25.5 223t78.5 175.5 142 118 209 41.5q94 0 221-25v135h-180v121h180v146h172v-146h161v-121zm-333-752v465q-113 30-208 30-81 0-139.5-29.5t-91.5-83-48-119.5-15-148q0-56 2.5-98.5t9-92 20.5-84.5 35-65 54.5-45.5 77.5-15.5q106 0 184 85 56 62 119 201z"/><glyph glyph-name="Emacron" unicode="Ē" horiz-adv-x="1131" d="M325 1719h513v-121h-513v121zm-143-281h798v-154h-610v-397h432v-154h-432v-579h633v-154h-821v1438z"/><glyph glyph-name="emacron" unicode="ē" horiz-adv-x="1102" d="M811 1363v-121h-513v121h513zm135-1305q-111-44-208.5-63t-174.5-19q-118 0-206 37.5t-146.5 105.5-88 162.5-29.5 208.5q0 70 10 140t32 133.5 57.5 118.5 86.5 95 119 63 155 23q223 0 336-139.5t113-399.5v-55h-732q0-84 18-148.5t55.5-109 95-67.5 136.5-23q44 0 87.5 6.5t84.5 17 78.5 23.5l70.5 25zm-117 549q-8 162-77.5 236.5t-198.5 74.5-196.5-74.5-81.5-236.5h554z"/><glyph glyph-name="Edotaccent" unicode="Ė" horiz-adv-x="1131" d="M594 1798q49 0 86-35 35-33 35-84 0-53-35-86-37-35-86-35-47 0-84 35t-37 86q0 49 37 84t84 35zm-412-360h798v-154h-610v-397h432v-154h-432v-579h633v-154h-821v1438z"/><glyph glyph-name="edotaccent" unicode="ė" horiz-adv-x="1102" d="M554 1418q25 0 47-9.5t38.5-25.5 26-37.5 9.5-46.5q0-27-10-49.5t-26.5-38-38.5-24.5-46-9-46 9.5-38.5 26-26.5 38.5-10 47 10.5 46.5 27.5 37.5 38.5 25.5 44.5 9.5zm392-1360q-111-44-208.5-63t-174.5-19q-118 0-206 37.5t-146.5 105.5-88 162.5-29.5 208.5q0 70 10 140t32 133.5 57.5 118.5 86.5 95 119 63 155 23q223 0 336-139.5t113-399.5v-55h-732q0-84 18-148.5t55.5-109 95-67.5 136.5-23q44 0 87.5 6.5t84.5 17 78.5 23.5l70.5 25zm-117 549q-8 162-77.5 236.5t-198.5 74.5-196.5-74.5-81.5-236.5h554z"/><glyph glyph-name="Eogonek" unicode="Ę" horiz-adv-x="1131" d="M1003 0h-164q-58-70-83-113.5t-25-90.5q0-92 71-92 37 0 102 25l-5-90q-71-47-149-47-65 0-106 44.5t-41 121.5q0 36 7.5 65.5t29 62 37.5 52 55 62.5h-550v1438h798v-154h-610v-397h432v-154h-432v-579h633v-154z"/><glyph glyph-name="eogonek" unicode="ę" horiz-adv-x="1102" d="M1002 469h-732q0-84 18-148.5t55.5-109 95-67.5 136.5-23q44 0 87.5 6.5t84.5 17 78.5 23.5l70.5 25 50-135q-48-19-94-33t-89-24q-26-31-46-57.5t-34-50.5-21.5-47.5-7.5-49.5q0-51 19-71.5t52-20.5q21 0 47 7t55 18l-5-90q-33-22-67-34.5t-82-12.5q-64 0-105.5 43.5t-41.5 122.5q0 34 8 62.5t22 54 34.5 51 46.5 54.5q-20-2-38.5-3t-35.5-1q-118 0-206 37.5t-146.5 105.5-88 162.5-29.5 208.5q0 70 10 140t32 133.5 57.5 118.5 86.5 95 119 63 155 23q223 0 336-139.5t113-399.5v-55zm-173 138q-8 162-77.5 236.5t-198.5 74.5-196.5-74.5-81.5-236.5h554z"/><glyph glyph-name="Ecaron" unicode="Ě" horiz-adv-x="1131" d="M586 1761l242 141 71-87-313-254-317 254 71 87zm-404-323h798v-154h-610v-397h432v-154h-432v-579h633v-154h-821v1438z"/><glyph glyph-name="ecaron" unicode="ě" horiz-adv-x="1102" d="M796 1522l71-87-313-254-317 254 71 87 246-141zm150-1464q-111-44-208.5-63t-174.5-19q-118 0-206 37.5t-146.5 105.5-88 162.5-29.5 208.5q0 70 10 140t32 133.5 57.5 118.5 86.5 95 119 63 155 23q223 0 336-139.5t113-399.5v-55h-732q0-84 18-148.5t55.5-109 95-67.5 136.5-23q44 0 87.5 6.5t84.5 17 78.5 23.5l70.5 25zm-117 549q-8 162-77.5 236.5t-198.5 74.5-196.5-74.5-81.5-236.5h554z"/><glyph glyph-name="Gbreve" unicode="Ğ" horiz-adv-x="1399" d="M1052 1904q-7-66-29-121t-58-94.5-85-61.5-109-22q-61 0-110 22.5t-84.5 62.5-57.5 94.5-29 119.5h76q32-83 81.5-118t123.5-35 123.5 35 81.5 118h76zm205-1827q-119-49-246.5-75t-247.5-26q-156 0-276.5 44t-202.5 134-124.5 226.5-42.5 321.5q0 201 43.5 345t126.5 235.5 204.5 134.5 277.5 43q97 0 204-19.5t220-55.5l-53-150q-101 34-189.5 51t-178.5 17q-116 0-203-34t-144.5-105-86-181-28.5-262q0-150 26.5-261t81.5-183.5 140-108 201-35.5q82 0 165 17t152 40v398h-241v151h422v-662z"/><glyph glyph-name="gbreve" unicode="ğ" horiz-adv-x="1118" d="M786 1507q-7-66-29-121t-58-94.5-85-61.5-109-22q-61 0-110 22.5t-84.5 62.5-57.5 94.5-29 119.5h76q32-83 81.5-118t123.5-35 123.5 35 81.5 118h76zm-24-467q43 0 75.5 1t62.5 4.5 60.5 10.5 71.5 20l25.5-72 25.5-70q-32-12-59-19t-53.5-11.5-53-6-56.5-2.5q28-45 43-101t15-122q0-96-29-167.5t-83-121.5-129.5-75.5-169.5-25.5q-48 0-91 5.5t-82 19.5q-9-24-15.5-49t-6-47.5 8.5-41 28-29.5q10-6 21-9.5t26.5-6 37.5-4 53-1.5q30-1 70.5-1h94.5q156 0 236-65.5t80-203.5q0-56-18-99.5t-49.5-75.5-74.5-53.5-93-35-104.5-19-109.5-5.5-110.5 6-108.5 15-99.5 20.5-82.5 22.5q14 34 31.5 68t37.5 64q63-18 150-35t193-17q48 0 94.5 6t84 22.5 60.5 44 23 71.5q0 46-16.5 71t-44.5 37-66 14-80 2h-131q-59 0-111 9t-91 30.5-61.5 56.5-22.5 86q0 49 18 101.5t47 106.5q-66 48-101.5 127t-35.5 182q0 94 29.5 166.5t83.5 123.5 129 76 169 25q88 0 162-23h92zm-254-115q-63 0-108-19t-73.5-52.5-42-80-13.5-101.5q0-56 13.5-102t42.5-79.5 73.5-52 107.5-18.5 108 18.5 73.5 52 42 80 13.5 101.5-13.5 101.5-42 80-73.5 52.5-108 19z"/><glyph glyph-name="Gdotaccent" unicode="Ġ" horiz-adv-x="1399" d="M771 1815q25 0 47-9.5t38.5-25.5 26-37.5 9.5-46.5q0-27-10-49.5t-26.5-38-38.5-24.5-46-9-46 9.5-38.5 26-26.5 38.5-10 47 10.5 46.5 27.5 37.5 38.5 25.5 44.5 9.5zm486-1738q-119-49-246.5-75t-247.5-26q-156 0-276.5 44t-202.5 134-124.5 226.5-42.5 321.5q0 201 43.5 345t126.5 235.5 204.5 134.5 277.5 43q97 0 204-19.5t220-55.5l-53-150q-101 34-189.5 51t-178.5 17q-116 0-203-34t-144.5-105-86-181-28.5-262q0-150 26.5-261t81.5-183.5 140-108 201-35.5q82 0 165 17t152 40v398h-241v151h422v-662z"/><glyph glyph-name="gdotaccent" unicode="ġ" horiz-adv-x="1118" d="M505 1418q25 0 47-9.5t38.5-25.5 26-37.5 9.5-46.5q0-27-10-49.5t-26.5-38-38.5-24.5-46-9-46 9.5-38.5 26-26.5 38.5-10 47 10.5 46.5 27.5 37.5 38.5 25.5 44.5 9.5zm257-378q43 0 75.5 1t62.5 4.5 60.5 10.5 71.5 20l25.5-72 25.5-70q-32-12-59-19t-53.5-11.5-53-6-56.5-2.5q28-45 43-101t15-122q0-96-29-167.5t-83-121.5-129.5-75.5-169.5-25.5q-48 0-91 5.5t-82 19.5q-9-24-15.5-49t-6-47.5 8.5-41 28-29.5q10-6 21-9.5t26.5-6 37.5-4 53-1.5q30-1 70.5-1h94.5q156 0 236-65.5t80-203.5q0-56-18-99.5t-49.5-75.5-74.5-53.5-93-35-104.5-19-109.5-5.5-110.5 6-108.5 15-99.5 20.5-82.5 22.5q14 34 31.5 68t37.5 64q63-18 150-35t193-17q48 0 94.5 6t84 22.5 60.5 44 23 71.5q0 46-16.5 71t-44.5 37-66 14-80 2h-131q-59 0-111 9t-91 30.5-61.5 56.5-22.5 86q0 49 18 101.5t47 106.5q-66 48-101.5 127t-35.5 182q0 94 29.5 166.5t83.5 123.5 129 76 169 25q88 0 162-23h92zm-254-115q-63 0-108-19t-73.5-52.5-42-80-13.5-101.5q0-56 13.5-102t42.5-79.5 73.5-52 107.5-18.5 108 18.5 73.5 52 42 80 13.5 101.5-13.5 101.5-42 80-73.5 52.5-108 19z"/><glyph glyph-name="Gcommaaccent" unicode="Ģ" horiz-adv-x="1399" d="M1257 77q-119-49-246.5-75t-247.5-26q-156 0-276.5 44t-202.5 134-124.5 226.5-42.5 321.5q0 201 43.5 345t126.5 235.5 204.5 134.5 277.5 43q97 0 204-19.5t220-55.5l-53-150q-101 34-189.5 51t-178.5 17q-116 0-203-34t-144.5-105-86-181-28.5-262q0-150 26.5-261t81.5-183.5 140-108 201-35.5q82 0 165 17t152 40v398h-241v151h422v-662zm-616-251q38 27 65.5 37t55.5 10q49 0 79-19.5t43.5-50 11.5-69.5-18-78q-11-26-29-61l-38-72.5-40.5-73.5-35.5-62h-122l79 262z"/><glyph glyph-name="gcommaaccent" unicode="ģ" horiz-adv-x="1097" d="M679 1697l-79-262 51-177q-38-27-65.5-37t-55.5-10q-49 0-79 19.5t-43.5 50-11.5 69.5 18 78q10 25 28.5 60.5l38.5 73 40.5 73.5 35.5 62h122zm83-657q43 0 75.5 1t62.5 4.5 60.5 10.5 71.5 20l25.5-72 25.5-70q-32-12-59-19t-53.5-11.5-53-6-56.5-2.5q28-45 43-101t15-122q0-96-29-167.5t-83-121.5-129.5-75.5-169.5-25.5q-48 0-91 5.5t-82 19.5q-9-24-15.5-49t-6-47.5 8.5-41 28-29.5q10-6 21-9.5t26.5-6 37.5-4 53-1.5q30-1 70.5-1h94.5q156 0 236-65.5t80-203.5q0-56-18-99.5t-49.5-75.5-74.5-53.5-93-35-104.5-19-109.5-5.5-110.5 6-108.5 15-99.5 20.5-82.5 22.5q14 34 31.5 68t37.5 64q63-18 150-35t193-17q48 0 94.5 6t84 22.5 60.5 44 23 71.5q0 46-16.5 71t-44.5 37-66 14-80 2h-131q-59 0-111 9t-91 30.5-61.5 56.5-22.5 86q0 49 18 101.5t47 106.5q-66 48-101.5 127t-35.5 182q0 94 29.5 166.5t83.5 123.5 129 76 169 25q88 0 162-23h92zm-254-115q-63 0-108-19t-73.5-52.5-42-80-13.5-101.5q0-56 13.5-102t42.5-79.5 73.5-52 107.5-18.5 108 18.5 73.5 52 42 80 13.5 101.5-13.5 101.5-42 80-73.5 52.5-108 19z"/><glyph glyph-name="Hbar" unicode="Ħ" horiz-adv-x="1718" d="M1254 1438h188v-240h176v-121h-176v-1077h-188v711h-773v-711h-188v1077h-193v121h193v240h188v-240h773v240zm0-571v210h-773v-210h773z"/><glyph glyph-name="hbar" unicode="ħ" horiz-adv-x="1159" d="M347 1098v-283q67 114 152 178 97 72 193 72 144 0 224-72 69-62 95-187 20-95 20-256v-550h-180v596q0 149-29 213-43 95-171 95-91 0-179-90-56-57-125-174v-640h-171v1098h-175v120h175v222h171v-222h181v-120h-181z"/><glyph glyph-name="Imacron" unicode="Ī" horiz-adv-x="596" d="M40 1719h513v-121h-513v121zm164-281h188v-1438h-188v1438z"/><glyph glyph-name="imacron" unicode="ī" horiz-adv-x="534" d="M10 1332h513v-121h-513v121zm171-292h172v-1040h-172v1040z"/><glyph glyph-name="Iogonek" unicode="Į" horiz-adv-x="596" d="M392 0h-79q-58-70-83-113.5t-25-90.5q0-92 71-92 37 0 102 25l-5-90q-71-47-149-47-65 0-106 44.5t-41 121.5q0 36 7.5 65.5t29 62 37.5 52 55 62.5h-2v1438h188v-1438z"/><glyph glyph-name="iogonek" unicode="į" horiz-adv-x="534" d="M183 1223q-37 35-37 86 0 49 37 84t84 35q49 0 86-35 35-33 35-84 0-53-35-86-37-35-86-35-47 0-84 35zm170-1223h-59q-58-70-83-113.5t-25-90.5q0-92 71-92 37 0 102 25l-5-90q-71-47-149-47-65 0-106 44.5t-41 121.5q0 36 7.5 65.5t29 62 37.5 52 55 62.5h-6v1040h172v-1040z"/><glyph glyph-name="Idotaccent" unicode="İ" horiz-adv-x="596" d="M297 1808q49 0 86-35 35-33 35-84 0-53-35-86-37-35-86-35-47 0-84 35t-37 86q0 49 37 84t84 35zm-93-370h188v-1438h-188v1438z"/><glyph glyph-name="dotlessi" unicode="ı" horiz-adv-x="534" d="M181 1040h172v-1040h-172v1040z"/><glyph glyph-name="IJ" unicode="Ĳ" horiz-adv-x="1133" d="M180 1438h188v-1438h-188v1438zm773-1084q0-117-13-199t-42.5-146-78-117.5-118.5-113.5l-60.5 53-62.5 60q54 54 89.5 94.5t57 86.5 31 106 9.5 152v1108h188v-1084z"/><glyph glyph-name="ij" unicode="ĳ" horiz-adv-x="993" d="M246 1443q24 0 44.5-9t35.5-24 24-36 9-45q0-23-9-44t-24.5-37-36-25-43.5-9q-24 0-45 9t-37 24.5-25 36.5-9 45 9 45 25 36 37 24 45 9zm504 0q24 0 44.5-9t35.5-24 24-36 9-45q0-23-9-44t-24.5-37-36-25-43.5-9q-24 0-45 9t-37 24.5-25 36.5-9 45 9 45 25 36 37 24 45 9zm-592-403h172v-1040h-172v1040zm677-925q0-109-11.5-185t-39-134.5-72-108-108.5-104.5l-57 48.5-58 54.5q49 51 82.5 89t53.5 80.5 29 98 9 139.5v947h172v-925z"/><glyph glyph-name="Kcommaaccent" unicode="Ķ" horiz-adv-x="1313" d="M1014 1460l127-102-552-654 600-704h-226l-591 694v-694h-188v1438h188v-740zm-471-1634q38 27 65.5 37t55.5 10q49 0 79-19.5t43.5-50 11.5-69.5-18-78q-11-26-29-61l-38-72.5-40.5-73.5-35.5-62h-122l79 262z"/><glyph glyph-name="kcommaaccent" unicode="ķ" horiz-adv-x="1038" d="M169 1440h172v-866l468 489 113-110-405-417 511-536h-214l-473 500v-500h-172v1440zm311-1800l-51 177q65 47 121 47 62 0 97.5-33t36.5-81.5-18-102.5q-28-67-143-269h-122z"/><glyph glyph-name="Lacute" unicode="Ĺ" horiz-adv-x="1042" d="M332 1833l-51 177q65 47 121 47 62 0 97.5-33t36.5-81.5-18-102.5q-28-67-143-269h-122zm-137-395h188v-1284h589v-154h-777v1438z"/><glyph glyph-name="lacute" unicode="ĺ" horiz-adv-x="475" d="M224 2020q38 27 65.5 37t55.5 10q49 0 79-19.5t43.5-50 11.5-69.5-18-78q-11-26-29-61l-38-72.5-40.5-73.5-35.5-62h-122l79 262zm88-1616q0-82 2-137.5t5-97.5 9.5-76 16.5-75q-42-11-84-20.5t-84-16.5q-20 65-28.5 119t-8.5 106v1232h172v-1034z"/><glyph glyph-name="Lcommaaccent" unicode="Ļ" horiz-adv-x="1042" d="M195 1438h188v-1284h589v-154h-777v1438zm304-1798l-51 177q65 47 121 47 62 0 97.5-33t36.5-81.5-18-102.5q-28-67-143-269h-122z"/><glyph glyph-name="lcommaaccent" unicode="ļ" horiz-adv-x="475" d="M312 404q0-82 2-137.5t5-97.5 9.5-76 16.5-75q-42-11-84-20.5t-84-16.5q-20 65-28.5 119t-8.5 106v1232h172v-1034zm-184-578q38 27 65.5 37t55.5 10q49 0 79-19.5t43.5-50 11.5-69.5-18-78q-11-26-29-61l-38-72.5-40.5-73.5-35.5-62h-122l79 262z"/><glyph glyph-name="Lcaron" unicode="Ľ" horiz-adv-x="1042" d="M805 1236l-51 177q65 47 121 47 62 0 97.5-33t36.5-81.5-18-102.5q-28-67-143-269h-122zm-610 202h188v-1284h589v-154h-777v1438z"/><glyph glyph-name="lcaron" unicode="ľ" horiz-adv-x="475" d="M499 1561q42 30 72.5 41t61.5 11q55 0 88.5-21t48-54.5 11.5-76.5-21-87q-12-28-31.5-67t-42-80l-45-80.5-38.5-68.5h-134l87 289zm-187-1157q0-82 2-137.5t5-97.5 9.5-76 16.5-75q-42-11-84-20.5t-84-16.5q-20 65-28.5 119t-8.5 106v1232h172v-1034z"/><glyph glyph-name="Ldot" unicode="Ŀ" horiz-adv-x="1032" d="M927 0h-777v1438h188v-1284h589v-154zm-242 923q25 0 47-9.5t38.5-25.5 26-37.5 9.5-46.5q0-27-10-49.5t-26.5-38-38.5-24.5-46-9-46 9.5-38.5 26-26.5 38.5-10 47 10.5 46.5 27.5 37.5 38.5 25.5 44.5 9.5z"/><glyph glyph-name="ldot" unicode="ŀ" horiz-adv-x="692" d="M312 404q0-82 2-137.5t5-97.5 9.5-76 16.5-75q-42-11-84-20.5t-84-16.5q-20 65-28.5 119t-8.5 106v1232h172v-1034zm239 466q25 0 47-9.5t38.5-25.5 26-37.5 9.5-46.5q0-27-10-49.5t-26.5-38-38.5-24.5-46-9-46 9.5-38.5 26-26.5 38.5-10 47 10.5 46.5 27.5 37.5 38.5 25.5 44.5 9.5z"/><glyph glyph-name="Lslash" unicode="Ł" horiz-adv-x="1076" d="M394 156h589v-156h-777v639l-206-111v151l206 111v648h188v-548l344 184v-151l-344-184v-583z"/><glyph glyph-name="lslash" unicode="ł" horiz-adv-x="455" d="M478 972v-151l-176-99v-318q0-82 2-137.5t5-97.5 9.5-76 16.5-75q-42-11-84-20.5t-84-16.5q-20 65-28.5 119t-8.5 106v419l-176-99v151l176 99v662h172v-565z"/><glyph glyph-name="Nacute" unicode="Ń" horiz-adv-x="1529" d="M792 1833l-51 177q65 47 121 47 62 0 97.5-33t36.5-81.5-18-102.5q-28-67-143-269h-122zm559-1843h-220l-765 1202v-1192h-188v1438h220l765-1202v1202h188v-1448z"/><glyph glyph-name="nacute" unicode="ń" horiz-adv-x="1147" d="M601 1473l-51 177q65 47 121 47 62 0 97.5-33t36.5-81.5-18-102.5q-28-67-143-269h-122zm-466-451l166 37q19-60 27-116 4-27 10-107h21q55 101 136 161 89 66 188 66 149 0 227-72 67-61 93-187 17-86 17-256v-548h-172v596q0 149-29 213-43 95-173 95-92 0-180-88-59-59-126-173v-643h-172v640q0 135-7 233-4 61-26 149z"/><glyph glyph-name="Ncommaaccent" unicode="Ņ" horiz-adv-x="1529" d="M1351-10h-220l-765 1202v-1192h-188v1438h220l765-1202v1202h188v-1448zm-683-350l-51 177q65 47 121 47 62 0 97.5-33t36.5-81.5-18-102.5q-28-67-143-269h-122z"/><glyph glyph-name="ncommaaccent" unicode="ņ" horiz-adv-x="1147" d="M135 1022l166 37q19-60 27-116 4-27 10-107h21q55 101 136 161 89 66 188 66 149 0 227-72 67-61 93-187 17-86 17-256v-548h-172v596q0 149-29 213-43 95-173 95-92 0-180-88-59-59-126-173v-643h-172v640q0 135-7 233-4 61-26 149zm372-1382l-51 177q65 47 121 47 62 0 97.5-33t36.5-81.5-18-102.5q-28-67-143-269h-122z"/><glyph glyph-name="Ncaron" unicode="Ň" horiz-adv-x="1529" d="M768 1761l242 141 71-87-313-254-317 254 71 87zm583-1771h-220l-765 1202v-1192h-188v1438h220l765-1202v1202h188v-1448z"/><glyph glyph-name="ncaron" unicode="ň" horiz-adv-x="1147" d="M567 1391l242 141 71-87-313-254-317 254 71 87zm-432-369l166 37q19-60 27-116 4-27 10-107h21q55 101 136 161 89 66 188 66 149 0 227-72 67-61 93-187 17-86 17-256v-548h-172v596q0 149-29 213-43 95-173 95-92 0-180-88-59-59-126-173v-643h-172v640q0 135-7 233-4 61-26 149z"/><glyph glyph-name="Eng" unicode="Ŋ" horiz-adv-x="1521" d="M1164 1438h187v-1449q0-143-54-261-73-158-285-255l-84 108q4 4 29.5 25.5l31 26 25 22 27 25.5 21 23 22.5 27.5 17 26.5q51 85 59 234l-793 1204v-1195h-187v1438h219l765-1155v1155z"/><glyph glyph-name="eng" unicode="ŋ" horiz-adv-x="1190" d="M338 836h21q55 101 136 161 89 66 188 66 149 0 227-72 67-61 93-187 17-86 17-256v-404q0-183-37-278-35-91-147-215l-57-63-115 95q82 99 109 145 1 2 23 43 52 108 52 260v465q0 149-29 213-43 95-173 95-92 0-180-88-59-59-126-173v-643h-172v640q0 135-7 233-4 61-26 149l166 37q19-60 27-116 4-27 10-107z"/><glyph glyph-name="Omacron" unicode="Ō" horiz-adv-x="1482" d="M484 1719h513v-121h-513v121zm888-1000q0-361-163-552t-468-191q-302 0-466.5 190.5t-164.5 552.5q0 361 165 551t466 190q305 0 468-191.5t163-549.5zm-193 0q0 278-109.5 431t-329.5 153q-221 0-329-154.5t-108-429.5q0-135 25.5-241.5t78-184 137-119 196.5-41.5q220 0 329.5 153.5t109.5 432.5z"/><glyph glyph-name="omacron" unicode="ō" horiz-adv-x="1113" d="M812 1332v-121h-513v121h513zm-257-269q49 0 102-7.5t104-28.5q51-22 96.5-59.5t80.5-97.5q35-61 55-146.5t20-203.5-20-203.5-55-145.5q-35-61-80.5-99t-96.5-59q-51-22-104-29.5t-102-7.5q-48 0-100.5 7.5t-103.5 29.5q-51 21-96 59t-80 99q-35 60-55 145.5t-20 203.5 20 203.5 55 146.5q35 60 80 97.5t96 59.5q51 21 103 28.5t101 7.5zm0-141q-57 0-107.5-18t-88.5-63q-39-46-62-123t-23-198q0-120 23-197.5t62-122.5q38-46 88.5-63.5t107.5-17.5q58 0 109.5 17.5t90.5 63.5q39 45 61.5 122.5t22.5 197.5q0 121-22.5 198t-61.5 123q-39 45-90.5 63t-109.5 18z"/><glyph glyph-name="Ohungarumlaut" unicode="Ő" horiz-adv-x="1482" d="M574 1833l-51 177q65 47 121 47 62 0 97.5-33t36.5-81.5-18-102.5q-28-67-143-269h-122zm364 0l-51 177q65 47 121 47 62 0 97.5-33t36.5-81.5-18-102.5q-28-67-143-269h-122zm434-1114q0-361-163-552t-468-191q-302 0-466.5 190.5t-164.5 552.5q0 361 165 551t466 190q305 0 468-191.5t163-549.5zm-193 0q0 278-109.5 431t-329.5 153q-221 0-329-154.5t-108-429.5q0-135 25.5-241.5t78-184 137-119 196.5-41.5q220 0 329.5 153.5t109.5 432.5z"/><glyph glyph-name="ohungarumlaut" unicode="ő" horiz-adv-x="1113" d="M329 1650q38 27 65.5 37t55.5 10q49 0 79-19.5t43.5-50 11.5-69.5-18-78q-11-26-29-61l-38-72.5-40.5-73.5-35.5-62h-122l79 262zm364 0q38 27 65.5 37t55.5 10q49 0 79-19.5t43.5-50 11.5-69.5-18-78q-11-26-29-61l-38-72.5-40.5-73.5-35.5-62h-122l79 262zm-138-587q49 0 102-7.5t104-28.5q51-22 96.5-59.5t80.5-97.5q35-61 55-146.5t20-203.5-20-203.5-55-145.5q-35-61-80.5-99t-96.5-59q-51-22-104-29.5t-102-7.5q-48 0-100.5 7.5t-103.5 29.5q-51 21-96 59t-80 99q-35 60-55 145.5t-20 203.5 20 203.5 55 146.5q35 60 80 97.5t96 59.5q51 21 103 28.5t101 7.5zm0-141q-57 0-107.5-18t-88.5-63q-39-46-62-123t-23-198q0-120 23-197.5t62-122.5q38-46 88.5-63.5t107.5-17.5q58 0 109.5 17.5t90.5 63.5q39 45 61.5 122.5t22.5 197.5q0 121-22.5 198t-61.5 123q-39 45-90.5 63t-109.5 18z"/><glyph glyph-name="OE" unicode="Œ" horiz-adv-x="1982" d="M1034 1385v53h798v-154h-610v-397h432v-156h-432v-577h632v-154h-820v53q-114-76-283-76-157 0-282 56-158 71-244 221-105 182-105 470 0 286 105 465 88 150 244 219 125 53 282 53 169 0 283-76zm0-1150v970q-109 99-283 99-195 0-307-124-132-147-132-456 0-313 132-463 113-128 307-128 175 0 283 102z"/><glyph glyph-name="oe" unicode="œ" horiz-adv-x="1849" d="M1748 469h-736q2-167 76.5-257.5t232.5-90.5q53 0 101 9t108 25q27 8 55 17.5t57 20.5l50-135q-81-32-161.5-52.5t-148.5-25.5q-19-2-37-3t-36-1q-120 0-207 37t-146 106q-8 8-14.5 17l-13.5 19q-34-54-77-88t-90-54q-51-22-104-29.5t-102-7.5q-48 0-100.5 7.5t-103.5 29.5q-51 21-96 59t-80 99q-35 60-55 145.5t-20 203.5 20 203.5 55 146.5q35 60 80 97.5t96 59.5q51 21 103 28.5t101 7.5 102-7.5 104-28.5q49-21 94-57.5t79-93.5q39 60 91 101 51 40 118.5 63t155.5 23 169-25.5 144-88.5q62-63 99-166.5t37-258.5v-55zm-993-269q39 45 61.5 122.5t22.5 197.5q0 121-22.5 198t-61.5 123q-39 45-90.5 63t-109.5 18q-57 0-107.5-18t-88.5-63q-39-46-62-123t-23-198q0-120 23-197.5t62-122.5q38-46 88.5-63.5t107.5-17.5q58 0 109.5 17.5t90.5 63.5zm820 407q-8 162-77.5 236.5t-198.5 74.5-196.5-74.5-81.5-236.5h554z"/><glyph glyph-name="Racute" unicode="Ŕ" horiz-adv-x="1275" d="M524 2010q38 27 65.5 37t55.5 10q49 0 79-19.5t43.5-50 11.5-69.5-18-78q-11-26-29-61l-38-72.5-40.5-73.5-35.5-62h-122l79 262zm111-572q95 0 179.5-22t149.5-70q66-49 103.5-124t37.5-177-37.5-177-103.5-124q-51-38-113.5-59t-133.5-29l-1-2q29-19 64-53.5t73-81.5l78-101.5 81-114.5 208-303h-220l-226 350q-61 96-105.5 155t-84.5 93q-39 34-80 46t-95 12h-38v-656h-186v1438h450zm0-636q63 0 115 14t89.5 43.5 58.5 75.5 21 110-21 110-58.5 75.5-89.5 43.5-115 14h-264v-486h264z"/><glyph glyph-name="racute" unicode="ŕ" horiz-adv-x="833" d="M382 1620q38 27 65.5 37t55.5 10q49 0 79-19.5t43.5-50 11.5-69.5-18-78q-11-26-29-61l-38-72.5-40.5-73.5-35.5-62h-122l79 262zm-27-821q31 62 66.5 112t78.5 85q39 34 86 50.5t107 16.5q20 0 46.5-2t50.5-7q-4-50-9.5-94t-14.5-89q-50 9-91.5 13t-78.5-2q-44-8-76.5-29.5t-60-57-53.5-85l-57-113.5v-597h-172v641q0 63-1.5 111t-6 91.5-13.5 86-24 94.5q42 11 82.5 20t82.5 17q14-40 22.5-71t13.5-60.5 7.5-60l5.5-70.5h9z"/><glyph glyph-name="Rcommaaccent" unicode="Ŗ" horiz-adv-x="1275" d="M635 1438q95 0 179.5-22t149.5-70q66-49 103.5-124t37.5-177-37.5-177-103.5-124q-51-38-113.5-59t-133.5-29l-1-2q29-19 64-53.5t73-81.5l78-101.5 81-114.5 208-303h-220l-226 350q-61 96-105.5 155t-84.5 93q-39 34-80 46t-95 12h-38v-656h-186v1438h450zm0-636q63 0 115 14t89.5 43.5 58.5 75.5 21 110-21 110-58.5 75.5-89.5 43.5-115 14h-264v-486h264zm-110-985q38 27 65.5 37t55.5 10q49 0 79-19.5t43.5-50 11.5-69.5-18-78q-11-26-29-61l-38-72.5-40.5-73.5-35.5-62h-122l79 262z"/><glyph glyph-name="rcommaaccent" unicode="ŗ" horiz-adv-x="833" d="M355 799q31 62 66.5 112t78.5 85q39 34 86 50.5t107 16.5q20 0 46.5-2t50.5-7q-4-50-9.5-94t-14.5-89q-50 9-91.5 13t-78.5-2q-44-8-76.5-29.5t-60-57-53.5-85l-57-113.5v-597h-172v641q0 63-1.5 111t-6 91.5-13.5 86-24 94.5q42 11 82.5 20t82.5 17q14-40 22.5-71t13.5-60.5 7.5-60l5.5-70.5h9zm-202-973q38 27 65.5 37t55.5 10q49 0 79-19.5t43.5-50 11.5-69.5-18-78q-11-26-29-61l-38-72.5-40.5-73.5-35.5-62h-122l79 262z"/><glyph glyph-name="Rcaron" unicode="Ř" horiz-adv-x="1275" d="M810 1902l71-87-313-254-317 254 71 87 246-141zm-175-464q95 0 179.5-22t149.5-70q66-49 103.5-124t37.5-177-37.5-177-103.5-124q-51-38-113.5-59t-133.5-29l-1-2q29-19 64-53.5t73-81.5l78-101.5 81-114.5 208-303h-220l-226 350q-61 96-105.5 155t-84.5 93q-39 34-80 46t-95 12h-38v-656h-186v1438h450zm0-636q63 0 115 14t89.5 43.5 58.5 75.5 21 110-21 110-58.5 75.5-89.5 43.5-115 14h-264v-486h264z"/><glyph glyph-name="rcaron" unicode="ř" horiz-adv-x="833" d="M659 1522l71-87-313-254-317 254 71 87 246-141zm-304-723q31 62 66.5 112t78.5 85q39 34 86 50.5t107 16.5q20 0 46.5-2t50.5-7q-4-50-9.5-94t-14.5-89q-50 9-91.5 13t-78.5-2q-44-8-76.5-29.5t-60-57-53.5-85l-57-113.5v-597h-172v641q0 63-1.5 111t-6 91.5-13.5 86-24 94.5q42 11 82.5 20t82.5 17q14-40 22.5-71t13.5-60.5 7.5-60l5.5-70.5h9z"/><glyph glyph-name="Sacute" unicode="Ś" horiz-adv-x="1196" d="M555 2017q38 27 65.5 37t55.5 10q49 0 79-19.5t43.5-50 11.5-69.5-18-78q-11-26-29-61l-38-72.5-40.5-73.5-35.5-62h-122l79 262zm-380-1808q41-16 86.5-30t93-24 95.5-16 94-6q79 0 143 18t110 52.5 71 85 25 115.5-23.5 106.5-68 69.5-109.5 47.5-148 40.5q-92 24-169.5 53.5t-134 76.5-88.5 116.5-32 173.5q0 85 34 154t96 117.5 149 74.5 192 26q51 0 104-6.5t105-17.5 102-27 94-35l-60-148-73.5 28-79.5 25-89.5 17.5-102.5 6.5-105-12-88.5-37.5-61.5-66.5-23-99q0-65 23.5-106.5t68-69.5 109.5-47.5 148-40.5q92-24 169.5-53.5t134-76.5 88.5-117 32-173q0-109-40.5-189.5t-113-133.5-172-79-216.5-26q-221 0-429 85z"/><glyph glyph-name="sacute" unicode="ś" horiz-adv-x="955" d="M443 1620q38 27 65.5 37t55.5 10q49 0 79-19.5t43.5-50 11.5-69.5-18-78q-11-26-29-61l-38-72.5-40.5-73.5-35.5-62h-122l79 262zm34-557q82 0 164.5-17t153.5-47q-14-32-29-63t-33-61q-25 10-55.5 20t-64 17-69 11.5-69.5 4.5q-37 0-71.5-7.5t-61-24.5-42.5-44.5-16-68.5q0-42 18-70.5t49-47.5 72.5-32 88.5-24q73-18 136-40.5t109-58.5 72-89 26-131q0-82-32.5-141t-88-97.5-129.5-57-158-18.5q-44 0-90.5 5.5t-92 16-89.5 25.5-83 33q14 32 29.5 62.5t32.5 60.5q33-14 70-26.5t76-21.5 77-14.5 73-5.5q44 0 85.5 10t74 31.5 52 55.5 19.5 82q0 45-18.5 74t-49.5 48.5-72.5 32-87.5 23.5q-70 17-132.5 39t-109 57.5-74 88-27.5 130.5q0 73 30 126t80.5 87 117 50.5 139.5 16.5z"/><glyph glyph-name="Scedilla" unicode="Ş" horiz-adv-x="1196" d="M936 1226l-73.5 28-79.5 25-89.5 17.5-102.5 6.5-105-12-88.5-37.5-61.5-66.5-23-99q0-65 23.5-106.5t68-69.5 109.5-47.5 148-40.5q92-24 169.5-53.5t134-76.5 88.5-117 32-173q0-95-31-168t-87-125.5-134-84-172-43.5l-76-95q78-24 111-59t33-91q0-43-16-74t-44.5-51.5-67.5-30-85-9.5q-42 0-86 8.5t-90 22.5l50 92q40-20 71.5-31.5t60.5-11.5q42 0 62 23t20 52q0 36-37.5 60.5t-112.5 48.5l84 139q-218 2-424 85l60 148q41-16 86.5-30t93-24 95.5-16 94-6q79 0 143 18t110 52.5 71 85 25 115.5-23.5 106.5-68 69.5-109.5 47.5-148 40.5q-92 24-169.5 53.5t-134 76.5-88.5 116.5-32 173.5q0 85 34 154t96 117.5 149 74.5 192 26q51 0 104-6.5t105-17.5 102-27 94-35z"/><glyph glyph-name="scedilla" unicode="ş" horiz-adv-x="955" d="M420-23q-83 3-169.5 24t-158.5 55q14 32 29.5 62.5t32.5 60.5q33-14 70-26.5t76-21.5 77-14.5 73-5.5q44 0 85.5 10t74 31.5 52 55.5 19.5 82q0 45-18.5 74t-49.5 48.5-72.5 32-87.5 23.5q-70 17-132.5 39t-109 57.5-74 88-27.5 130.5q0 73 30 126t80.5 87 117 50.5 139.5 16.5q82 0 164.5-17t153.5-47q-14-32-29-63t-33-61q-25 10-55.5 20t-64 17-69 11.5-69.5 4.5q-37 0-71.5-7.5t-61-24.5-42.5-44.5-16-68.5q0-42 18-70.5t49-47.5 72.5-32 88.5-24q73-18 136-40.5t109-58.5 72-89 26-131q0-70-24-123.5t-66-91.5-99.5-61-124.5-32l-75-94q78-24 111-59t33-91q0-43-16-74t-44.5-51.5-67.5-30-85-9.5q-42 0-86 8.5t-90 22.5l50 92q40-20 71.5-31.5t60.5-11.5q42 0 62 23t20 52q0 36-37.5 60.5t-112.5 48.5z"/><glyph glyph-name="Scaron" unicode="Š" horiz-adv-x="1196" d="M832 1919l71-87-313-254-317 254 71 87 246-141zm-657-1710q41-16 86.5-30t93-24 95.5-16 94-6q79 0 143 18t110 52.5 71 85 25 115.5-23.5 106.5-68 69.5-109.5 47.5-148 40.5q-92 24-169.5 53.5t-134 76.5-88.5 116.5-32 173.5q0 85 34 154t96 117.5 149 74.5 192 26q51 0 104-6.5t105-17.5 102-27 94-35l-60-148-73.5 28-79.5 25-89.5 17.5-102.5 6.5-105-12-88.5-37.5-61.5-66.5-23-99q0-65 23.5-106.5t68-69.5 109.5-47.5 148-40.5q92-24 169.5-53.5t134-76.5 88.5-117 32-173q0-109-40.5-189.5t-113-133.5-172-79-216.5-26q-221 0-429 85z"/><glyph glyph-name="scaron" unicode="š" horiz-adv-x="955" d="M720 1522l71-87-313-254-317 254 71 87 246-141zm-243-459q82 0 164.5-17t153.5-47q-14-32-29-63t-33-61q-25 10-55.5 20t-64 17-69 11.5-69.5 4.5q-37 0-71.5-7.5t-61-24.5-42.5-44.5-16-68.5q0-42 18-70.5t49-47.5 72.5-32 88.5-24q73-18 136-40.5t109-58.5 72-89 26-131q0-82-32.5-141t-88-97.5-129.5-57-158-18.5q-44 0-90.5 5.5t-92 16-89.5 25.5-83 33q14 32 29.5 62.5t32.5 60.5q33-14 70-26.5t76-21.5 77-14.5 73-5.5q44 0 85.5 10t74 31.5 52 55.5 19.5 82q0 45-18.5 74t-49.5 48.5-72.5 32-87.5 23.5q-70 17-132.5 39t-109 57.5-74 88-27.5 130.5q0 73 30 126t80.5 87 117 50.5 139.5 16.5z"/><glyph glyph-name="Tcommaaccent" unicode="Ţ" horiz-adv-x="1237" d="M1157 1284h-442v-1284h10l-89-112q77-24 110.5-59t33.5-91q0-83-58-124t-155-41q-76 0-176 31l50 92q70-43 132-43 40 0 61 22t21 53q0 34-36 59t-114 50l99 163h-77v1284h-447v154h1077v-154z"/><glyph glyph-name="tcommaaccent" unicode="ţ" horiz-adv-x="861" d="M782 895h-350v-597q0-60 3.5-91.5t17.5-49.5q26-36 105-36 44 0 85 9 42 9 77 20 28-61 51-134-82-28-177-37l-72-91q77-24 110.5-59t33.5-91q0-83-58-124t-155-41q-76 0-176 31l50 92q70-43 132-43 40 0 61 22t21 53q0 34-36 59t-114 50l86 141q-118 10-166 81-31 46-41 110t-10 177v549h-150v145h150v238h172v-238h350v-145z"/><glyph glyph-name="Tcaron" unicode="Ť" horiz-adv-x="1237" d="M622 1761l242 141 71-87-313-254-317 254 71 87zm-542-323h1077v-154h-442v-1284h-188v1284h-447v154z"/><glyph glyph-name="tcaron" unicode="ť" horiz-adv-x="861" d="M986 1057l-51 177q65 47 121 47 62 0 97.5-33t36.5-81.5-18-102.5q-28-67-143-269h-122zm-726 221h172v-238h350v-145h-350v-597q0-60 3.5-91.5t17.5-49.5q26-36 105-36 44 0 85 9 42 9 77 20 28-61 51-134-118-40-238-40-87 0-139.5 19.5t-82.5 63.5q-31 46-41 110t-10 177v549h-150v145h150v238z"/><glyph glyph-name="Tbar" unicode="Ŧ" horiz-adv-x="1237" d="M1157 1284h-442v-437h178v-121h-178v-726h-188v726h-147v121h147v437h-447v154h1077v-154z"/><glyph glyph-name="tbar" unicode="ŧ" horiz-adv-x="861" d="M782 895h-350v-294h188v-121h-188v-182q0-60 3.5-91.5t17.5-49.5q26-36 105-36 44 0 85 9 42 9 77 20 28-61 51-134-118-40-238-40-87 0-139.5 19.5t-82.5 63.5q-31 46-41 110t-10 177v134h-153v121h153v294h-150v145h150v238h172v-238h350v-145z"/><glyph glyph-name="Umacron" unicode="Ū" horiz-adv-x="1486" d="M485 1719h513v-121h-513v121zm643-281h188v-831q0-314-141-472.5t-433-158.5q-572 0-572 631v831h188v-832q0-110 19-193.5t62-148 119-98 184-33.5q88 0 155.5 22.5t110.5 62.5 70.5 100.5 38.5 130 11 157.5v832z"/><glyph glyph-name="umacron" unicode="ū" horiz-adv-x="1158" d="M313 1332h513v-121h-513v121zm715-1314l-166-37q-19 60-27 116-4 26-10 106h-21q-55-101-136-161-89-66-188-66-149 0-227 72-67 61-93 187-17 86-17 256v549h172v-597q0-149 29-213 43-95 173-95 92 0 180 88 59 59 126 173v644h172v-642q0-133 7-231 4-61 26-149z"/><glyph glyph-name="Uring" unicode="Ů" horiz-adv-x="1486" d="M737 1922q37 0 69.5-13.5t56.5-37.5 37.5-56.5 13.5-69.5-13.5-69.5-37.5-56.5-56.5-37.5-69.5-13.5-69.5 13.5-56.5 37.5-37.5 56.5-13.5 69.5 13.5 69.5 37.5 56.5 56.5 37.5 69.5 13.5zm0-94q-35 0-59-24t-24-59 24-59 59-24 59 24 24 59-24 59-59 24zm579-390v-831q0-311-139.5-471t-434.5-160q-148 0-255.5 41t-178 121-104.5 197.5-34 271.5v831h188v-832q0-106 18.5-193t63-149.5 118.5-96.5 184-34q113 0 187.5 34.5t118.5 97 62 149.5 18 192v832h188z"/><glyph glyph-name="uring" unicode="ů" horiz-adv-x="1158" d="M559 1552q37 0 69.5-13.5t56.5-37.5 37.5-56.5 13.5-69.5-13.5-69.5-37.5-56.5-56.5-37.5-69.5-13.5-69.5 13.5-56.5 37.5-37.5 56.5-13.5 69.5 13.5 69.5 37.5 56.5 56.5 37.5 69.5 13.5zm0-94q-35 0-59-24t-24-59 24-59 59-24 59 24 24 59-24 59-59 24zm303-1477q-10 31-16.5 60.5t-10.5 55.5-6 51.5-4 54.5h-21q-26-48-60-89t-76-72-89-48.5-99-17.5q-78 0-133.5 18.5t-93.5 53.5-59.5 82.5-33.5 104.5q-11 57-14 122t-3 134v549h172v-597q0-60 4.5-115t24.5-98 60.5-69 112.5-26q52 0 97 25t83 63q39 39 70 85t56 88v644h172v-642q0-81 2-135t5-96 9.5-75.5 16.5-73.5z"/><glyph glyph-name="Uhungarumlaut" unicode="Ű" horiz-adv-x="1486" d="M568 1833l-51 177q65 47 121 47 62 0 97.5-33t36.5-81.5-18-102.5q-28-67-143-269h-122zm364 0l-51 177q65 47 121 47 62 0 97.5-33t36.5-81.5-18-102.5q-28-67-143-269h-122zm196-395h188v-831q0-314-141-472.5t-433-158.5q-572 0-572 631v831h188v-832q0-110 19-193.5t62-148 119-98 184-33.5q88 0 155.5 22.5t110.5 62.5 70.5 100.5 38.5 130 11 157.5v832z"/><glyph glyph-name="uhungarumlaut" unicode="ű" horiz-adv-x="1158" d="M379 1473l-51 177q65 47 121 47 62 0 97.5-33t36.5-81.5-18-102.5q-28-67-143-269h-122zm364 0l-51 177q65 47 121 47 62 0 97.5-33t36.5-81.5-18-102.5q-28-67-143-269h-122zm285-1455l-166-37q-19 60-27 116-4 26-10 106h-21q-55-101-136-161-89-66-188-66-149 0-227 72-67 61-93 187-17 86-17 256v549h172v-597q0-149 29-213 43-95 173-95 92 0 180 88 59 59 126 173v644h172v-642q0-133 7-231 4-61 26-149z"/><glyph glyph-name="Uogonek" unicode="Ų" horiz-adv-x="1486" d="M1128 1438h188v-831q0-298-126.5-455.5t-388.5-173.5q-47-58-68.5-98.5t-21.5-83.5q0-92 71-92 37 0 102 25l-5-90q-71-47-149-47-65 0-106 44.5t-41 121.5q0 63 25 108t84 111q-522 28-522 630v831h188v-832q0-110 19-193.5t62-148 119-98 184-33.5q88 0 155.5 22.5t110.5 62.5 70.5 100.5 38.5 130 11 157.5v832z"/><glyph glyph-name="uogonek" unicode="ų" horiz-adv-x="1158" d="M1028 18l-76-17q-59-71-84-114t-25-91q0-92 71-92 37 0 102 25l-5-90q-71-47-149-47-65 0-106 44.5t-41 121.5q0 37 7.5 66.5t32.5 65.5 39 52.5l59 67.5q-12 46-18 87-4 26-10 106h-21q-55-101-136-161-89-66-188-66-149 0-227 72-67 61-93 187-17 86-17 256v549h172v-597q0-149 29-213 43-95 173-95 92 0 180 88 59 59 126 173v644h172v-642q0-133 7-231 4-61 26-149z"/><glyph glyph-name="Wcircumflex" unicode="Ŵ" horiz-adv-x="1850" d="M607 1648l317 254 313-254-71-87-242 141-246-141zm1170-211l-173-1437h-279l-400 1245-400-1245h-279l-173 1437h183l150-1210h10l397 1210h224l397-1210h10l150 1210h183z"/><glyph glyph-name="wcircumflex" unicode="ŵ" horiz-adv-x="1491" d="M412 1278l317 254 313-254-71-87-242 141-246-141zm700-1278h-229l-125 483-201-483h-226l-266 1041h172l219-916 242 600-81 316h172l225-916q108 250 151 376 52 153 52 263 0 96-47 259 91 23 165 37 42-103 53-222 3-30 3-61 0-164-92-382-25-58-56.5-124.5l-74-154z"/><glyph glyph-name="Ycircumflex" unicode="Ŷ" horiz-adv-x="1357" d="M365 1648l317 254 313-254-71-87-242 141-246-141zm713-210h214l-520-790v-648h-187v648l-520 790h214l399-636z"/><glyph glyph-name="ycircumflex" unicode="ŷ" horiz-adv-x="1186" d="M593 1522l313-254-71-87-242 141-246-141-71 87zm417-482v-1063q0-99-32.5-171t-90-119-136.5-69.5-172-22.5q-84 0-169 14.5t-162 40.5q13 35 27 68l28 66q24-8 57.5-17t71-16.5 77-12 76.5-4.5q58 0 105 15.5t80 46.5 50.5 76.5 17.5 104.5v226h-19q-26-47-60-88.5t-75-72.5-88.5-48.5-100.5-17.5q-73 0-127 16.5t-92.5 49-63 81-37.5 112.5q-11 57-14 122t-3 134v549h172v-597q0-65 6-121.5t26.5-98 60.5-65 109-23.5q51 0 96 24.5t83 62.5 69.5 84 57.5 90v644h172z"/><glyph glyph-name="Ydieresis" unicode="Ÿ" horiz-adv-x="1357" d="M457 1798q24 0 46-9.5t38-25.5 25.5-38 9.5-46q0-26-9.5-48t-25.5-38-38-25.5-46-9.5q-26 0-48 9.5t-39 25.5q-36 33-36 86 0 24 9.5 46t26.5 38 39 25.5 48 9.5zm442 0q25 0 47-9.5t39-25.5 26-38 9-46q0-53-35-86-17-16-39-25.5t-47-9.5q-24 0-45.5 9.5t-38.5 25.5-27 38-10 48q0 24 10 46t27 38 38.5 25.5 45.5 9.5zm393-360l-520-790v-648h-187v648l-520 790h214l399-636 400 636h214z"/><glyph glyph-name="Zacute" unicode="Ź" horiz-adv-x="1234" d="M618 1833l-51 177q65 47 121 47 62 0 97.5-33t36.5-81.5-18-102.5q-28-67-143-269h-122zm-447-395h910v-134l-701-1150h707v-154h-940v132l703 1152h-679v154z"/><glyph glyph-name="zacute" unicode="ź" horiz-adv-x="991" d="M491 1620q38 27 65.5 37t55.5 10q49 0 79-19.5t43.5-50 11.5-69.5-18-78q-11-26-29-61l-38-72.5-40.5-73.5-35.5-62h-122l79 262zm-91-725q-41 0-75 1t-65.5 4.5-64 11.5-70.5 22l25.5 70 25.5 72q40-13 71-20t61-10.5 62-4.5 76-1h420v-120l-522-775h531v-145h-746v121l521 774h-250z"/><glyph glyph-name="Zdotaccent" unicode="Ż" horiz-adv-x="1234" d="M617 1798q49 0 86-35 35-33 35-84 0-53-35-86-37-35-86-35-47 0-84 35t-37 86q0 49 37 84t84 35zm-446-360h910v-134l-701-1150h707v-154h-940v132l703 1152h-679v154z"/><glyph glyph-name="zdotaccent" unicode="ż" horiz-adv-x="991" d="M526 1418q25 0 47-9.5t38.5-25.5 26-37.5 9.5-46.5q0-27-10-49.5t-26.5-38-38.5-24.5-46-9-46 9.5-38.5 26-26.5 38.5-10 47 10.5 46.5 27.5 37.5 38.5 25.5 44.5 9.5zm-126-523q-41 0-75 1t-65.5 4.5-64 11.5-70.5 22l25.5 70 25.5 72q40-13 71-20t61-10.5 62-4.5 76-1h420v-120l-522-775h531v-145h-746v121l521 774h-250z"/><glyph glyph-name="Zcaron" unicode="Ž" horiz-adv-x="1234" d="M616 1761l242 141 71-87-313-254-317 254 71 87zm-445-323h910v-134l-701-1150h707v-154h-940v132l703 1152h-679v154z"/><glyph glyph-name="zcaron" unicode="ž" horiz-adv-x="991" d="M768 1522l71-87-313-254-317 254 71 87 246-141zm-368-627q-41 0-75 1t-65.5 4.5-64 11.5-70.5 22l25.5 70 25.5 72q40-13 71-20t61-10.5 62-4.5 76-1h420v-120l-522-775h531v-145h-746v121l521 774h-250z"/><glyph glyph-name="Scommaaccent" unicode="Ș" horiz-adv-x="1196" d="M175 209q41-16 86.5-30t93-24 95.5-16 94-6q79 0 143 18t110 52.5 71 85 25 115.5-23.5 106.5-68 69.5-109.5 47.5-148 40.5q-92 24-169.5 53.5t-134 76.5-88.5 116.5-32 173.5q0 85 34 154t96 117.5 149 74.5 192 26q51 0 104-6.5t105-17.5 102-27 94-35l-60-148-73.5 28-79.5 25-89.5 17.5-102.5 6.5-105-12-88.5-37.5-61.5-66.5-23-99q0-65 23.5-106.5t68-69.5 109.5-47.5 148-40.5q92-24 169.5-53.5t134-76.5 88.5-117 32-173q0-109-40.5-189.5t-113-133.5-172-79-216.5-26q-221 0-429 85zm309-383q38 27 65.5 37t55.5 10q49 0 79-19.5t43.5-50 11.5-69.5-18-78q-11-26-29-61l-38-72.5-40.5-73.5-35.5-62h-122l79 262z"/><glyph glyph-name="scommaaccent" unicode="ș" horiz-adv-x="955" d="M477 1063q82 0 164.5-17t153.5-47q-14-32-29-63t-33-61q-25 10-55.5 20t-64 17-69 11.5-69.5 4.5q-37 0-71.5-7.5t-61-24.5-42.5-44.5-16-68.5q0-42 18-70.5t49-47.5 72.5-32 88.5-24q73-18 136-40.5t109-58.5 72-89 26-131q0-82-32.5-141t-88-97.5-129.5-57-158-18.5q-44 0-90.5 5.5t-92 16-89.5 25.5-83 33q14 32 29.5 62.5t32.5 60.5q33-14 70-26.5t76-21.5 77-14.5 73-5.5q44 0 85.5 10t74 31.5 52 55.5 19.5 82q0 45-18.5 74t-49.5 48.5-72.5 32-87.5 23.5q-70 17-132.5 39t-109 57.5-74 88-27.5 130.5q0 73 30 126t80.5 87 117 50.5 139.5 16.5zm-113-1237q38 27 65.5 37t55.5 10q49 0 79-19.5t43.5-50 11.5-69.5-18-78q-11-26-29-61l-38-72.5-40.5-73.5-35.5-62h-122l79 262z"/><glyph glyph-name="uni021A" unicode="Ț" horiz-adv-x="1237" d="M80 1438h1077v-154h-442v-1284h-188v1284h-447v154zm468-1798l-51 177q65 47 121 47 62 0 97.5-33t36.5-81.5-18-102.5q-28-67-143-269h-122z"/><glyph glyph-name="uni021B" unicode="ț" horiz-adv-x="861" d="M260 1278h172v-238h350v-145h-350v-597q0-60 3.5-91.5t17.5-49.5q26-36 105-36 44 0 85 9 42 9 77 20 28-61 51-134-118-40-238-40-87 0-139.5 19.5t-82.5 63.5q-31 46-41 110t-10 177v549h-150v145h150v238zm187-1638l-51 177q65 47 121 47 62 0 97.5-33t36.5-81.5-18-102.5q-28-67-143-269h-122z"/><glyph glyph-name="circumflex" unicode="ˆ" horiz-adv-x="830" d="M100 1268l317 254 313-254-71-87-242 141-246-141z"/><glyph glyph-name="caron" unicode="ˇ" horiz-adv-x="830" d="M728 1435l-313-254-317 254 71 87 246-141 242 141z"/><glyph glyph-name="breve" unicode="˘" horiz-adv-x="724" d="M567 1507h76q-15-135-89-217t-192-82q-119 0-192.5 82.5t-88.5 216.5h76q31-81 80.5-117t124.5-36 124.5 36 80.5 117z"/><glyph glyph-name="dotaccent" unicode="˙" horiz-adv-x="600" d="M300 1418q50 0 85.5-35t35.5-84q0-53-35.5-87t-85.5-34q-48 0-84.5 36t-36.5 85q0 48 37.5 83.5t83.5 35.5z"/><glyph glyph-name="ring" unicode="˚" horiz-adv-x="710" d="M353 1542q37 0 69.5-13.5t56.5-37.5 37.5-56.5 13.5-69.5-13.5-69.5-37.5-56.5-56.5-37.5-69.5-13.5-69.5 13.5-56.5 37.5-37.5 56.5-13.5 69.5 13.5 69.5 37.5 56.5 56.5 37.5 69.5 13.5zm0-94q-35 0-59-24t-24-59 24-59 59-24 59 24 24 59-24 59-59 24z"/><glyph glyph-name="ogonek" unicode="˛" horiz-adv-x="600" d="M305 12l98-10q-60-72-85-115t-25-91q0-92 71-92 37 0 102 25l-5-90q-71-47-149-47-65 0-106 44.5t-41 121.5q0 47 18 89.5t38 68 70 80.5q5 5 8 8.5t6 7.5z"/><glyph glyph-name="tilde" unicode="˜" horiz-adv-x="991" d="M774 1398h100q-15-95-58-146-53-61-141-61-40 0-130 34t-128 34q-31 0-53-25t-22-51h-103q12 80 58 137 53 68 129 68 48 0 134-35t124-35q68 0 90 80z"/><glyph glyph-name="hungarumlaut" unicode="˝" horiz-adv-x="798" d="M244 1443l-51 177q65 47 121 47 62 0 97.5-33t36.5-81.5-18-102.5q-28-67-143-269h-122zm364 0l-51 177q65 47 121 47 62 0 97.5-33t36.5-81.5-18-102.5q-28-67-143-269h-122z"/><glyph glyph-name="afii57799" unicode="ְ" d="M440-127q35 0 59.5-24.5t24.5-59.5q0-19-7-34t-19-25.5-27-16.5-31-6q-34 0-58 23.5t-24 58.5q0 37 25 60.5t57 23.5zm0-291q35 0 59.5-24.5t24.5-59.5q0-19-7-34t-19-25.5-27-16.5-31-6q-34 0-58 23.5t-24 58.5q0 37 25 60.5t57 23.5z"/><glyph glyph-name="afii57801" unicode="ֱ" d="M149-127q37 0 60.5-25t23.5-57q0-34-24.5-59t-59.5-25-58.5 25-23.5 59 23.5 58 58.5 24zm291 0q37 0 60.5-25t23.5-57q0-34-24.5-59t-59.5-25-58.5 25-23.5 59 23.5 58 58.5 24zm287 0q37 0 60.5-25t23.5-57q0-34-24.5-59t-59.5-25-58.5 25-23.5 59 23.5 58 58.5 24zm-435-235q37 0 60.5-25t23.5-57q0-34-24.5-59t-59.5-25-58.5 25-23.5 59 23.5 58 58.5 24zm434-56q37 0 60.5-25t23.5-57q0-34-24.5-59t-59.5-25-58.5 25-23.5 59 23.5 58 58.5 24z"/><glyph glyph-name="afii57800" unicode="ֲ" d="M712-127q37 0 60.5-25t23.5-57q0-34-24.5-59t-59.5-25-58.5 25-23.5 59 23.5 58 58.5 24zm-166-25v-118h-469v118h469zm165-266q37 0 60.5-25t23.5-57q0-34-24.5-59t-59.5-25-58.5 25-23.5 59 23.5 58 58.5 24z"/><glyph glyph-name="afii57802" unicode="ֳ" d="M711-127q37 0 60.5-25t23.5-57q0-34-24.5-59t-59.5-25-58.5 25-23.5 59 23.5 58 58.5 24zm-166-25v-118h-178l20-250h-157l20 250h-174v118h469zm165-266q37 0 60.5-25t23.5-57q0-34-24.5-59t-59.5-25-58.5 25-23.5 59 23.5 58 58.5 24z"/><glyph glyph-name="afii57793" unicode="ִ" d="M440-127q37 0 60.5-25t23.5-57q0-34-24.5-59t-59.5-25-58.5 25-23.5 59 23.5 58 58.5 24z"/><glyph glyph-name="afii57794" unicode="ֵ" d="M292-127q37 0 60.5-25t23.5-57q0-34-24.5-59t-59.5-25-58.5 25-23.5 59 23.5 58 58.5 24zm291 0q37 0 60.5-25t23.5-57q0-34-24.5-59t-59.5-25-58.5 25-23.5 59 23.5 58 58.5 24z"/><glyph glyph-name="afii57795" unicode="ֶ" d="M293-127q37 0 60.5-25t23.5-57q0-34-24.5-59t-59.5-25-58.5 25-23.5 59 23.5 58 58.5 24zm291 0q37 0 60.5-25t23.5-57q0-34-24.5-59t-59.5-25-58.5 25-23.5 59 23.5 58 58.5 24zm-148-235q37 0 60.5-25t23.5-57q0-34-24.5-59t-59.5-25-58.5 25-23.5 59 23.5 58 58.5 24z"/><glyph glyph-name="afii57798" unicode="ַ" d="M671-152v-118h-469v118h469z"/><glyph glyph-name="afii57797" unicode="ָ" d="M671-152v-118h-178l20-250h-157l20 250h-174v118h469z"/><glyph glyph-name="afii57806" unicode="ֹ" d="M300 1365q39 0 65.5-26t26.5-64q0-39-26.5-66t-65.5-27q-38 0-64 27.5t-26 65.5q0 37 26 63.5t64 26.5z"/><glyph glyph-name="uni05BA" unicode="ֺ" d="M300 1365q39 0 65.5-26t26.5-64q0-39-26.5-66t-65.5-27q-38 0-64 27.5t-26 65.5q0 37 26 63.5t64 26.5z"/><glyph glyph-name="afii57796" unicode="ֻ" d="M440-127q37 0 60.5-25t23.5-57q0-34-24.5-59t-59.5-25-58.5 25-23.5 59 23.5 58 58.5 24zm164-194q37 0 60.5-25t23.5-57q0-34-24.5-59t-59.5-25-58.5 25-23.5 59 23.5 58 58.5 24zm164-195q37 0 60.5-25t23.5-57q0-34-24.5-59t-59.5-25-58.5 25-23.5 59 23.5 58 58.5 24z"/><glyph glyph-name="afii57807" unicode="ּ" d="M300 641q39 0 65.5-26t26.5-64q0-18-7.5-35t-20-29.5-29-20-35.5-7.5-35.5 7.5-28.5 20-19 29.5-7 35q0 37 26 63.5t64 26.5z"/><glyph glyph-name="afii57645" unicode="־" horiz-adv-x="768" d="M140 1039h488v-152h-488v152z"/><glyph glyph-name="afii57842" unicode="׀" horiz-adv-x="615" d="M230 1571h155v-1702h-155v1702z"/><glyph glyph-name="afii57804" unicode="ׁ" d="M300 1365q39 0 65.5-26t26.5-64q0-39-26.5-66t-65.5-27q-37 0-63.5 27.5t-26.5 65.5q0 37 26.5 63.5t63.5 26.5z"/><glyph glyph-name="afii57803" unicode="ׂ" d="M300 1365q39 0 65.5-26t26.5-64q0-39-26.5-66t-65.5-27q-37 0-63.5 27.5t-26.5 65.5q0 37 26.5 63.5t63.5 26.5z"/><glyph glyph-name="afii57658" unicode="׃" horiz-adv-x="670" d="M335 887q28 0 52.5-10.5t42.5-28.5 28.5-42.5 10.5-52.5q0-27-10.5-51.5t-28.5-42.5q-18-19-42.5-29.5t-52.5-10.5-52.5 10.5-42.5 29.5q-18 18-28.5 42.5t-10.5 51.5q0 28 10.5 52.5t28.5 42.5 42.5 28.5 52.5 10.5zm0-639q28 0 52.5-10.5t42.5-28.5 28.5-42.5 10.5-52.5q0-27-10.5-51.5t-28.5-42.5q-18-19-42.5-29.5t-52.5-10.5-52.5 10.5-42.5 29.5q-18 18-28.5 42.5t-10.5 51.5q0 28 10.5 52.5t28.5 42.5 42.5 28.5 52.5 10.5z"/><glyph glyph-name="uni05C7" unicode="ׇ" d="M671-152v-118h-178l20-250h-157l20 250h-174v118h469z"/><glyph glyph-name="afii57664" unicode="א" horiz-adv-x="1151" d="M117-9q0 28 .5 64t1 77.5 1.5 85.5l2 88q2 75 11 133.5t26 106.5 42.5 89 60.5 81q-35 50-59.5 91t-39.5 75q-16 35-27 71t-19 67q36 16 78 29.5t84 23.5l7.5-23.5 7.5-23.5q10-32 22.5-64t32.5-70 50.5-84 76.5-104q16-21 31.5-38.5l36.5-41.5 52-59.5 80-91.5 4-5q36 26 59 55t39.5 62.5 29 72l25.5 82.5 21.5 78.5 20.5 78.5-146 28 27 140 280-49 5-129q-10-48-26-105l-30-106q-18-63-35.5-109t-39.5-83-52.5-69-75.5-66l239-281-122-108-534 617q-31-38-45.5-88t-20.5-105.5-6-115-1-117.5q-1-32-1-69.5t-1-90.5h-173z"/><glyph glyph-name="afii57665" unicode="ב" horiz-adv-x="1121" d="M444 887q-44 0-79 1t-67.5 5-65.5 12.5-72 23.5l25.5 72 25.5 74q42-13 74-20t62.5-10.5 64-4.5 78.5-1h29q63 0 124-14t110-53q48-38 78-105t30-175v-540h184v-152h-947v152h590v515q0 62-9 104.5t-31.5 68-61.5 36.5-99 11h-43z"/><glyph glyph-name="afii57666" unicode="ג" horiz-adv-x="833" d="M614 1039v-537q0-48 14-91.5t31-88.5q29-78 54.5-157.5t45.5-164.5h-161q-13 52-30.5 109.5t-37.5 108.5l-25 64-53.5-62.5-38.5-44-31.5-34-31.5-32.5q-53-54-115-89t-143-47q-10 38-18.5 76.5t-15.5 76.5q34 9 62 18t53 22.5 47.5 32 46.5 45.5l180 197v446h-228v152h395z"/><glyph glyph-name="afii57667" unicode="ד" horiz-adv-x="1089" d="M381 887q-44 0-79 1t-67.5 5-65.5 12.5-72 23.5l25.5 72 25.5 74q42-13 74-20t62.5-10.5 64-4.5 78.5-1h572v-152h-202v-887h-173v887h-243z"/><glyph glyph-name="afii57668" unicode="ה" horiz-adv-x="1128" d="M425 887q-44 0-79 1t-67.5 5-65.5 12.5-72 23.5l25.5 72 25.5 74q42-13 74-20t62.5-10.5 64-4.5 78.5-1h195q63 0 124-14t110-54q48-38 78-107t30-178v-686h-173v667q0 63-8.5 105t-31 67.5-62 36.5-100.5 11h-208zm-268-573q0 45 .5 79t3.5 65 8 62.5 14 69.5l84.5-12.5 84.5-12.5-10.5-64.5-7-57-3.5-60-1-73.5v-310h-173v314z"/><glyph glyph-name="afii57669" unicode="ו" horiz-adv-x="655" d="M479 1039v-1039h-173v887h-175v152h348z"/><glyph glyph-name="afii57670" unicode="ז" horiz-adv-x="836" d="M317 887q-30 1-57 3t-53.5 6.5-54 12.5-59.5 20l25.5 72 25.5 74q42-13 74-20t62.5-10.5 64-4.5 78.5-1h328v-152h-260l141-887h-177z"/><glyph glyph-name="afii57671" unicode="ח" horiz-adv-x="1147" d="M181 557q0 49 1.5 90.5t7.5 80.5 17 79 30 86q-33 4-66.5 12.5t-73.5 23.5l25.5 72 25.5 74q42-13 74-20t62.5-10.5 64-4.5 78.5-1h247q63 0 124.5-14t110.5-53q49-38 79-105t30-175v-692h-173v667q0 64-9 106t-32 67.5-62 36-98 10.5h-239q-20-42-30.5-83.5t-15-81.5-5-78.5-.5-75.5v-568h-173v557z"/><glyph glyph-name="afii57672" unicode="ט" horiz-adv-x="1250" d="M184 545q-6 95-8.5 159.5t-7 113.5-14.5 89.5-29 86.5q36 20 74.5 36t76.5 30q19-36 31-69.5t19-72.5 11-89 8-119l31-564q14-1 28-1.5t28-.5q114 0 211 35t168.5 109 112 188 40.5 273q0 36-2.5 66.5t-7.5 52.5q-48 12-92.5 20t-96.5 13l-22.5-63.5-20-56.5-19-56.5-19.5-62.5-139 46q24 88 53.5 174.5l61.5 173.5q125-8 232.5-28.5t207.5-42.5q14-56 19.5-116t5.5-133q0-175-47.5-307.5t-132.5-225.5q-59-63-123.5-104t-134-65-143.5-33-150-9q-48 0-92.5 2.5t-84.5 7.5z"/><glyph glyph-name="afii57673" unicode="י" horiz-adv-x="660" d="M515 1039v-324q0-54-1-90t-4-66-8-58-13-62l-169 25 9 55 7 53 4.5 63 1.5 84v168h-229v152h402z"/><glyph glyph-name="afii57674" unicode="ך" horiz-adv-x="990" d="M375 887q-44 0-79 1t-67.5 5-65.5 12.5-72 23.5l25.5 72 25.5 74q42-13 74-20t62.5-10.5 64-4.5 78.5-1h380q9-30 14.5-52.5t8.5-39.5q3-18 4-33t1-31v-1198h-173v1202h-281z"/><glyph glyph-name="afii57675" unicode="כ" horiz-adv-x="1025" d="M432 887q-44 0-79 1t-67.5 5-65.5 12.5-72 23.5l25.5 72 25.5 74q42-13 74-20t62.5-10.5 64-4.5 78.5-1h60q61 0 120.5-15.5t107.5-55.5 79.5-108 36.5-174q3-56 4-111.5l2-114.5 1-124v-138q0-24-1-43.5t-4-41.5-8.5-48.5-14.5-64.5h-763v152h621q0 123-2 254.5t-7 260.5q-2 63-11.5 105t-31.5 67.5-60.5 36.5-99.5 11h-75z"/><glyph glyph-name="afii57676" unicode="ל" horiz-adv-x="1002" d="M293 1323v-284h577q9-33 14-55t8-39q2-18 2.5-33.5t.5-33.5v-216q0-118-47.5-223t-141.5-210l-245-269-122 109 229 256 61.5 74 49 75 32 83.5 11.5 98.5v231h-602v436h173z"/><glyph glyph-name="afii57677" unicode="ם" horiz-adv-x="1143" d="M163 557q0 49 1.5 90.5t7.5 80.5 17 79 30 86q-33 4-66.5 12.5t-73.5 23.5l25.5 72 25.5 74q42-13 74-20.5t62.5-11 64-4 78.5-.5h270q63 0 124.5-14t110.5-53q49-38 79-105t30-175v-692h-860v557zm687 110q0 64-9 106t-32 67.5-62 36-98 10.5h-262q-20-42-30.5-83.5t-15-81.5-5-78.5-.5-75.5v-416h514v515z"/><glyph glyph-name="afii57678" unicode="מ" horiz-adv-x="1194" d="M105-9l28.5 172.5 22.5 130.5 17.5 102.5 15 89 14.5 89.5 16 104q5 50 1.5 84.5t-17 67-37.5 69l-59 91.5 36 22 33 20 36.5 21.5 47.5 27.5 39.5-56 29.5-44.5 23-40.5 20-42q42 39 80.5 69.5t78.5 51 85 31.5 99 11q132 0 220-68.5t117-210.5q8-40 11.5-99.5t5-123 1-124-.5-103.5q-1-69-3-132t-5-105l-4-46-6-50h-493v152h335q1 17 2.5 37t2 53.5 1 87 .5 137.5q0 38-1 77.5t-3 76-5.5 68.5-8.5 55q-9 37-23 67.5t-36 51.5-52 32.5-71 11.5q-44 0-84.5-14t-77.5-37.5-71-54.5-65-64l-31.5-196-24.5-152.5-19.5-120-16.5-98.5-15-89-15-90h-174z"/><glyph glyph-name="afii57679" unicode="ן" horiz-adv-x="621" d="M487 1039v-1354h-173v1202h-205v152h378z"/><glyph glyph-name="afii57680" unicode="נ" horiz-adv-x="794" d="M583 1039l4-34q3-34 9.5-92.5l14.5-137 17.5-169.5 19.5-189.5 19-195.5q4-44 6-72t2-50.5-2-44.5-6-54h-596v152h433l-77 735h-244v152h400z"/><glyph glyph-name="afii57681" unicode="ס" horiz-adv-x="1149" d="M692 1039q91 0 156.5-22.5t108.5-70.5q29-33 47-79.5t28-98.5 13.5-106.5 3.5-105.5q0-78-9-160-12-100-46.5-178t-89.5-131.5-129.5-81.5-165.5-28q-117 0-199.5 38.5t-134.5 106-76 159-24 197.5q0 60 7 122.5t27 131.5q13 42 29.5 81.5t38.5 75.5q-45 3-86 11.5t-92 28.5l25.5 72 25.5 74q42-13 74-20t62.5-10.5 64-4.5 78.5-1h263zm-243-152q-45-67-68-144t-28-153q-2-30-3.5-60t-1.5-60q0-68 10.5-129t41.5-107q32-50 84-77.5t122-27.5q52 0 96 16.5t77.5 48.5 55.5 79 30 107q5 45 8 83.5t3 74.5q0 53-4.5 101t-12.5 99q-6 42-18 70.5t-34 46-57 25-87 7.5h-214z"/><glyph glyph-name="afii57682" unicode="ע" horiz-adv-x="1122" d="M704 917l20.5 74.5 21.5 74.5 295-78q3-35 5-70t2-70q-10-84-29.5-164.5t-50.5-156.5-75.5-146.5-104.5-133.5q-63-66-142-119.5t-173-98.5q-68-32-142.5-59t-159.5-50l-49 154q78 23 160.5 51t167.5 67l-106.5 279.5-106.5 279.5q-14 36-24.5 57.5t-27.5 38.5q-18 17-47 32t-80 39l37 72 39 72q55-22 94-40t67-40q28-20 47-47t36-69l20-52 22-58 27-73.5 35.5-98.5 47-132 62.5-175q66 49 113.5 111.5t81.5 137.5q33 75 54 160.5t32 184.5z"/><glyph glyph-name="afii57683" unicode="ף" horiz-adv-x="1086" d="M317 1085l169.5-33.5 166.5-35.5q51-11 100.5-31.5t89.5-55.5q40-37 65-93.5t25-141.5v-1010h-173v986q0 52-8 86.5t-27 57.5-50.5 36-79.5 23l-85.5 18.5-85.5 18.5-112-254 201-121-79-130-331 196z"/><glyph glyph-name="afii57684" unicode="פ" horiz-adv-x="1077" d="M330 1085l55-10.5 75.5-15 86-18 86.5-19.5 76.5-20 56.5-18q54-21 88.5-49.5t54.5-65 27.5-80.5 7.5-95v-497q0-23-1.5-44.5t-4.5-44.5q-4-23-9.5-49.5t-13.5-58.5h-825v151h683v520q0 51-6.5 84.5t-23.5 55-45.5 34.5-73.5 25q-43 11-92 22l-93 21-114-257 201-119-81-132-330 196z"/><glyph glyph-name="afii57685" unicode="ץ" horiz-adv-x="1095" d="M685 1076l291-82q6-68 0-136-31-79-64-150t-75-143q-31-53-60.5-91t-61.5-67.5-68.5-55l-79.5-53.5 91-216 34.5-80.5 26.5-56.5q12-25 23-43.5t24-35 28-32.5l35-36q-63-62-129-120l-30 32q-46 52-76 102.5t-55 107.5l-464 1085 160 66 267-628q31 20 58.5 41t52.5 47 48.5 59 46.5 76q24 45 50.5 101.5t45.5 113.5l-162 46z"/><glyph glyph-name="afii57686" unicode="צ" horiz-adv-x="1109" d="M332 577q-64 74-108.5 137.5t-71.5 119.5q-28 57-42.5 101t-25.5 85q37 15 78.5 28.5t83.5 24.5l7.5-23.5 7.5-23.5q10-32 22-64.5t32-70.5 50.5-84 77.5-103l28.5-35 31-36 42-47.5 61.5-69.5q31 19 53.5 41t41 48.5 33.5 59.5 31 74q15 40 26.5 77l22.5 75-142 43 39 137 273-77-7-128q-14-49-33-104.5t-37-100.5q-20-48-40-86t-44-68.5-53.5-56-66.5-47.5l226-265q-2-26-7-58.5t-17-79.5h-791v152h586z"/><glyph glyph-name="afii57687" unicode="ק" horiz-adv-x="1156" d="M439 887q-44 0-79 1t-67.5 5-65.5 12.5-72 23.5l25.5 72 25.5 74q42-13 74-20t62.5-10.5 64-4.5 78.5-1h530q8-28 12.5-49t7.5-38q5-32 7-65.5t2-69.5v-141q0-51-4-96t-15.5-87-32.5-82-56-81l-143.5-162.5-142.5-155.5-132 120 111 117 88.5 95.5 78.5 89.5q28 33 43 65.5t22 67 8.5 73.5 1.5 86q0 40-1 80t-3 81h-428zm-258-512q0 43 .5 78t3 67.5 7.5 64 13 66.5l85.5-12.5 85.5-12.5-10.5-64.5-7-57-3.5-60-1-73.5v-686h-173v690z"/><glyph glyph-name="afii57688" unicode="ר" horiz-adv-x="1007" d="M395 887q-44 0-79 1t-67.5 5-65.5 12.5-72 23.5l25.5 72 25.5 74q42-13 74-20t62.5-10.5 64-4.5 78.5-1h94q63 0 124.5-14t110.5-53q48-39 78.5-108t30.5-178v-686h-173v667q0 62-9 104.5t-32 68-62 36.5-99 11h-109z"/><glyph glyph-name="afii57689" unicode="ש" horiz-adv-x="1432" d="M200 548q-8 95-11.5 159.5t-9 113.5-16 89.5-30.5 86.5q35 20 73.5 36t76.5 30q19-36 31.5-69.5t20.5-72.5 13-89 10-119l42-559q36-3 69-3 170 0 297 52t211 146 125.5 223.5 41.5 284.5q0 43-3 85t-8 85q42 11 83 19.5t87 15.5q8-43 12-89t4-96q0-219-60-385t-173-277-275-167-365-56q-49 0-99.5 2.5t-103.5 9.5zm606 514q14-48 14-95 0-29-4.5-58.5t-12.5-59.5q-14-50-34-99.5t-43-100.5l-111-243-148 65 109 243q28 63 44.5 104t24.5 74q7 29 7 62 0 31-6 76z"/><glyph glyph-name="afii57690" unicode="ת" horiz-adv-x="1180" d="M284 149q-32 97-49 185t-17 173q0 99 25 192.5t81 188.5q-26 1-49.5 3.5t-47.5 7-49 12-54 18.5l25.5 72 25.5 74q42-13 74-20t62.5-10.5 64-4.5 78.5-1h260q63 0 124.5-14t111.5-54q49-38 79.5-107t30.5-178v-686h-173v667q0 62-8 104.5t-30 68-60 36.5-98 11h-196q-56-77-78.5-171t-22.5-194q0-81 12.5-159.5t32.5-149.5l33-107-4-51.5-7-54.5h-396v149h219z"/><glyph glyph-name="uni05F3" unicode="׳" horiz-adv-x="557" d="M207 1015l-51 177q65 47 121 47 62 0 97.5-33t36.5-81.5-18-102.5q-28-67-143-269h-122z"/><glyph glyph-name="uni05F4" unicode="״" horiz-adv-x="923" d="M207 1015l-51 177q65 47 121 47 62 0 97.5-33t36.5-81.5-18-102.5q-28-67-143-269h-122zm364 0l-51 177q65 47 121 47 62 0 97.5-33t36.5-81.5-18-102.5q-28-67-143-269h-122z"/><glyph glyph-name="Wgrave" unicode="Ẁ" horiz-adv-x="1850" d="M1002 1571h-122q-115 202-143 269-19 54-18 102.5t36.5 81.5 97.5 33q56 0 121-47l-51-177zm775-134l-173-1437h-279l-400 1245-400-1245h-279l-173 1437h183l150-1210h10l397 1210h224l397-1210h10l150 1210h183z"/><glyph glyph-name="wgrave" unicode="ẁ" horiz-adv-x="1491" d="M756 1211h-122q-115 202-143 269-19 54-18 102.5t36.5 81.5 97.5 33q56 0 121-47l-51-177zm356-1211h-229l-125 483-201-483h-226l-266 1041h172l219-916 242 600-81 316h172l225-916q108 250 151 376 52 153 52 263 0 96-47 259 91 23 165 37 42-103 53-222 3-30 3-61 0-164-92-382-25-58-56.5-124.5l-74-154z"/><glyph glyph-name="Wacute" unicode="Ẃ" horiz-adv-x="1850" d="M933 1833l-51 177q65 47 121 47 62 0 97.5-33t36.5-81.5-18-102.5q-28-67-143-269h-122zm844-396l-173-1437h-279l-400 1245-400-1245h-279l-173 1437h183l150-1210h10l397 1210h224l397-1210h10l150 1210h183z"/><glyph glyph-name="wacute" unicode="ẃ" horiz-adv-x="1491" d="M735 1473l-51 177q65 47 121 47 62 0 97.5-33t36.5-81.5-18-102.5q-28-67-143-269h-122zm377-1473h-229l-125 483-201-483h-226l-266 1041h172l219-916 242 600-81 316h172l225-916q108 250 151 376 52 153 52 263 0 96-47 259 91 23 165 37 42-103 53-222 3-30 3-61 0-164-92-382-25-58-56.5-124.5l-74-154z"/><glyph glyph-name="Wdieresis" unicode="Ẅ" horiz-adv-x="1850" d="M705 1798q24 0 46-9.5t38-25.5 25.5-38 9.5-46q0-26-9.5-48t-25.5-38-38-25.5-46-9.5q-26 0-48 9.5t-39 25.5q-36 33-36 86 0 24 9.5 46t26.5 38 39 25.5 48 9.5zm442 0q25 0 47-9.5t39-25.5 26-38 9-46q0-53-35-86-17-16-39-25.5t-47-9.5q-24 0-45.5 9.5t-38.5 25.5-27 38-10 48q0 24 10 46t27 38 38.5 25.5 45.5 9.5zm457-1798h-279l-400 1245-400-1245h-279l-173 1437h183l150-1210h10l397 1210h224l397-1210h10l150 1210h183z"/><glyph glyph-name="wdieresis" unicode="ẅ" horiz-adv-x="1491" d="M508 1428q24 0 46-9.5t38-25.5 25.5-38 9.5-46q0-26-9.5-48t-25.5-38-38-25.5-46-9.5q-26 0-48 9.5t-39 25.5q-36 33-36 86 0 24 9.5 46t26.5 38 39 25.5 48 9.5zm442 0q25 0 47-9.5t39-25.5 26-38 9-46q0-53-35-86-17-16-39-25.5t-47-9.5q-24 0-45.5 9.5t-38.5 25.5-27 38-10 48q0 24 10 46t27 38 38.5 25.5 45.5 9.5zm-67-1428l-125 483-201-483h-226l-266 1041h172l219-916 242 600-81 316h172l225-916 51.5 120.5 40.5 98.5 32.5 83.5 26.5 73.5q28 82 40 144t12 119q0 60-12 120.5t-35 138.5q38 10 79 19.5t86 17.5q27-66 37.5-119t15.5-103q3-30 3-61 0-97-25-189.5t-67-192.5q-21-49-45-100l-48.5-102-48.5-100-45-93h-229z"/><glyph glyph-name="Ygrave" unicode="Ỳ" horiz-adv-x="1357" d="M725 1571h-122q-115 202-143 269-19 54-18 102.5t36.5 81.5 97.5 33q56 0 121-47l-51-177zm353-133h214l-520-790v-648h-187v648l-520 790h214l399-636z"/><glyph glyph-name="ygrave" unicode="ỳ" horiz-adv-x="1186" d="M533 1181l-35.5 62-40.5 73.5-38.5 72.5-28.5 61q-16 39-18 78t11.5 69.5 43.5 50 79 19.5q28 0 55.5-10t65.5-37l-51-177 79-262h-122zm477-141v-1063q0-99-32.5-171t-90-119-136.5-69.5-172-22.5q-84 0-169 14.5t-162 40.5q13 35 27 68l28 66q24-8 57.5-17t71-16.5 77-12 76.5-4.5q58 0 105 15.5t80 46.5 50.5 76.5 17.5 104.5v226h-19q-26-47-60-88.5t-75-72.5-88.5-48.5-100.5-17.5q-73 0-127 16.5t-92.5 49-63 81-37.5 112.5q-11 57-14 122t-3 134v549h172v-597q0-65 6-121.5t26.5-98 60.5-65 109-23.5q51 0 96 24.5t83 62.5 69.5 84 57.5 90v644h172z"/><glyph glyph-name="uni2000" horiz-adv-x="1033"/><glyph glyph-name="uni2001" horiz-adv-x="2067"/><glyph glyph-name="uni2002" horiz-adv-x="1033"/><glyph glyph-name="uni2003" horiz-adv-x="2067"/><glyph glyph-name="uni2004" horiz-adv-x="689"/><glyph glyph-name="uni2005" horiz-adv-x="516"/><glyph glyph-name="uni2006" horiz-adv-x="344"/><glyph glyph-name="uni2007" horiz-adv-x="344"/><glyph glyph-name="uni2008" horiz-adv-x="258"/><glyph glyph-name="uni2009" horiz-adv-x="413"/><glyph glyph-name="uni200A" horiz-adv-x="114"/><glyph glyph-name="afii299" unicode="‎"/><glyph glyph-name="afii300" unicode="‏"/><glyph glyph-name="uni2010" unicode="‐" horiz-adv-x="1164" d="M204 632h756v-148h-756v148z"/><glyph glyph-name="uni2011" unicode="‑" horiz-adv-x="1164" d="M204 632h756v-148h-756v148z"/><glyph glyph-name="figuredash" unicode="‒" horiz-adv-x="1164" d="M204 632h756v-148h-756v148z"/><glyph glyph-name="endash" unicode="–" horiz-adv-x="1284" d="M164 632h956v-148h-956v148z"/><glyph glyph-name="emdash" unicode="—" horiz-adv-x="1345" d="M40 632h1265v-148h-1265v148z"/><glyph glyph-name="quoteleft" unicode="‘" horiz-adv-x="557" d="M426 1461l-87-289 56-194q-42-30-72-41t-61-11q-54 0-87 21t-48 55-12.5 77 20.5 86q11 28 31 67l42.5 80 44.5 80.5 39 68.5h134z"/><glyph glyph-name="quoteright" unicode="’" horiz-adv-x="557" d="M145 1409q42 30 72 41t61 11q54 0 87-21t48-55 12.5-77-20.5-86q-11-28-31-67l-42.5-80-45-80.5-38.5-68.5h-134l87 289z"/><glyph glyph-name="quotesinglbase" unicode="‚" horiz-adv-x="574" d="M161 434q42 30 72 41t61 11q54 0 87-21t48-55 12.5-77-20.5-86q-11-28-31-67l-42.5-80-45-80.5-38.5-68.5h-134l87 289z"/><glyph glyph-name="quotedblleft" unicode="“" horiz-adv-x="923" d="M408 1461l-87-289 56-194q-42-30-72-41t-61-11q-54 0-87 21t-48 55-13 77 20 86q12 28 32 67l42.5 80 44.5 80.5 39 68.5h134zm400 0l-87-289 57-194q-42-30-72.5-41t-61.5-11q-55 0-88.5 20.5t-48 54.5-11.5 77 21 87q12 28 31.5 67t42 80l44.5 80.5 39 68.5h134z"/><glyph glyph-name="quotedblright" unicode="”" horiz-adv-x="923" d="M126 1409q42 30 72.5 41t61.5 11q55 0 88.5-21t48-54.5 11.5-76.5-21-87q-12-28-31.5-67t-42-80l-45-80.5-38.5-68.5h-134l87 289zm401 0q42 30 72 41t61 11q54 0 87-21t48-55 13-77-20-86q-12-28-32-67l-42.5-80-45-80.5-38.5-68.5h-134l87 289z"/><glyph glyph-name="quotedblbase" unicode="„" horiz-adv-x="928" d="M135 434q42 30 72.5 41t61.5 11q55 0 88.5-21t48-54.5 11.5-76.5-21-87q-12-28-31.5-67t-42-80l-45-80.5-38.5-68.5h-134l87 289zm401 0q42 30 72 41t61 11q54 0 87-21t48-55 13-77-20-86q-12-28-32-67l-42.5-80-45-80.5-38.5-68.5h-134l87 289z"/><glyph glyph-name="dagger" unicode="†" horiz-adv-x="600"/><glyph glyph-name="daggerdbl" unicode="‡" horiz-adv-x="600"/><glyph glyph-name="bullet" unicode="•" horiz-adv-x="646" d="M323 771q40 0 73.5-14t56.5-38.5 36-57 13-69.5-14-69.5-38.5-57-57-38.5-69.5-14-69.5 14-57 38.5-38.5 57-14 69.5q0 39 14.5 72t39.5 57 57 37 68 13z"/><glyph glyph-name="ellipsis" unicode="…" horiz-adv-x="1850" d="M323 224q27 0 49.5-9.5t38.5-26 25-39 9-47.5-9.5-47.5-26-39-39-26-47.5-9.5-47.5 9.5-39 26-26 39-9.5 47.5q0 27 10 49t26.5 38.5 39 25.5 46.5 9zm602 0q24 0 46.5-9.5t39.5-26 27-39 10-47.5q0-24-10-46.5t-26.5-39-39-26.5-47.5-10q-24 0-46 9.5t-39 26-27 39-10 47.5 10 47.5 26.5 39 39 26 46.5 9.5zm602 0q27 0 49.5-9.5t38.5-26 25-39 9-47.5-9.5-47.5-26-39-39-26-47.5-9.5-47.5 9.5-39 26-26 39-9.5 47.5q0 27 10 49t26.5 38.5 39 25.5 46.5 9z"/><glyph glyph-name="uni202F" horiz-adv-x="411"/><glyph glyph-name="perthousand" unicode="‰" horiz-adv-x="1802" d="M354 1326q43 0 83.5-13t70.5-46q31-32 50.5-92t19.5-144q0-56-8.5-93t-23.5-69q-16-32-37-53.5t-46-34.5-52.5-18-56.5-5q-44 0-84 12.5t-72 44.5q-31 32-50.5 87.5t-19.5 138.5q0 84 19.5 139t50.5 87q32 33 72 46t84 13zm0-81q-32 0-56.5-11.5t-40.5-37.5-25-64-9-91q0-54 9-91.5t25-63.5q16-25 40.5-37t56.5-12q30 0 54.5 12t40.5 37q16 26 25 63.5t9 91.5q0 53-9 91t-25 64-40.5 37.5-54.5 11.5zm705-180v-125l-901-674v125zm-194-484q43 0 83.5-13t70.5-46q31-32 50.5-87t19.5-139q0-56-8.5-98t-23.5-74q-16-32-37-53.5t-46-34.5-52.5-18-56.5-5q-44 0-84 12.5t-72 44.5q-31 32-50.5 87.5t-19.5 138.5q0 84 19.5 139t50.5 87q32 33 72 46t84 13zm585 0q43 0 83.5-13t70.5-46q31-32 50.5-87t19.5-139q0-56-8.5-98t-23.5-74q-16-32-37-53.5t-46-34.5-52.5-18-56.5-5q-44 0-84 12.5t-72 44.5q-31 32-50.5 87.5t-19.5 138.5q0 84 19.5 139t50.5 87q32 33 72 46t84 13zm-585-81q-32 0-56.5-11.5t-40.5-37.5-25-64-9-91q0-54 9-91.5t25-63.5q16-25 40.5-37t56.5-12q30 0 54.5 12t40.5 37q16 26 25 63.5t9 91.5q0 53-9 91t-25 64-40.5 37.5-54.5 11.5zm585 0q-32 0-56.5-11.5t-40.5-37.5-25-64-9-91q0-54 9-91.5t25-63.5q16-25 40.5-37t56.5-12q30 0 54.5 12t40.5 37q16 26 25 63.5t9 91.5q0 53-9 91t-25 64-40.5 37.5-54.5 11.5z"/><glyph glyph-name="guilsinglleft" unicode="‹" horiz-adv-x="914" d="M170 518l443 441 100-99-340-342 341-344-101-99z"/><glyph glyph-name="guilsinglright" unicode="›" horiz-adv-x="914" d="M201 860l100 99 443-441-443-443-101 99 341 344z"/><glyph glyph-name="fraction" unicode="⁄" horiz-adv-x="1673" d="M1414 1438h159l-1314-1438h-159z"/><glyph glyph-name="uni205F" horiz-adv-x="514"/><glyph glyph-name="afii57636" unicode="₪" horiz-adv-x="1681" d="M164 559q0 49 1.5 90t7.5 79.5 16.5 78 28.5 84.5q-26 3-56.5 9.5t-76.5 18.5l18.5 73.5 23.5 74.5 74.5-14.5 53.5-8.5 46.5-4 52.5-1h403q63 0 124.5-14t110.5-53q49-38 79-105t30-175q0-44-2-78.5t-5.5-66-9.5-63-15-68.5q-43 2-84 8t-79 17l9 60 7 55 4.5 54 1.5 57q0 64-9 106t-32 67.5-62 36-98 10.5h-339q-20-42-30.5-83.5t-15-81.5-5-78.5-.5-75.5v-568h-173v559zm545-407q18-2 40-2.5t39-.5q145 0 258.5 46t192 132.5 120 211 41.5 282.5q0 47-3.5 96.5t-9.5 100.5q42 14 80.5 22.5t84.5 16.5q9-61 14-119t5-116q0-203-56.5-358t-161.5-260-254.5-158.5-335.5-53.5q-49 0-104.5 2.5t-108.5 9.5v625h159v-477z"/><glyph glyph-name="Euro" unicode="€" horiz-adv-x="1073" d="M922 158l31-139q-178-43-307-43-192 0-269 101-68 89-68 295v71h-189v146h188v238h-188v146h188v71q0 206 68 295 77 101 269 101 129 0 307-43l-31-139q-152 33-243 33-130 0-165-53-17-25-21.5-62.5t-4.5-107.5v-95h263v-146h-262v-238h262v-146h-262v-95q0-70 4.5-107.5t21.5-62.5q35-53 165-53 91 0 243 33z"/><glyph glyph-name="trademark" unicode="™" horiz-adv-x="1634" d="M100 1439h545v-89h-217v-603h-110v603h-218v89zm1366-1l88-691h-106l-71 522-182-531v-1h-134v3l-1-2-184 531-69-522h-107l87 691h131l209-601 208 601h131z"/><glyph glyph-name="uniE000" unicode="" horiz-adv-x="1065" d="M0 1065h1065v-1065h-1065v1065z"/><glyph glyph-name="uniFB2A" unicode="שׁ" horiz-adv-x="1432" d="M1208 1365q39 0 65.5-26t26.5-64q0-39-26.5-66t-65.5-27q-38 0-64 27.5t-26 65.5q0 37 26 63.5t64 26.5zm-1008-817q-8 95-11.5 159.5t-9 113.5-16 89.5-30.5 86.5q35 20 73.5 36t76.5 30q19-36 31.5-69.5t20.5-72.5 13-89 10-119l42-559q36-3 69-3 170 0 297 52t211 146 125.5 223.5 41.5 284.5q0 43-3 85t-8 85q42 11 83 19.5t87 15.5q8-43 12-89t4-96q0-219-60-385t-173-277-275-167-365-56q-49 0-99.5 2.5t-103.5 9.5zm606 514q14-48 14-95 0-29-4.5-58.5t-12.5-59.5q-14-50-34-99.5t-43-100.5l-111-243-148 65 109 243q28 63 44.5 104t24.5 74q7 29 7 62 0 31-6 76z"/><glyph glyph-name="uniFB2B" unicode="שׂ" horiz-adv-x="1432" d="M81 1365q39 0 65.5-26t26.5-64q0-39-26.5-66t-65.5-27q-38 0-64 27.5t-26 65.5q0 37 26 63.5t64 26.5zm119-817q-8 95-11.5 159.5t-9 113.5-16 89.5-30.5 86.5q35 20 73.5 36t76.5 30q19-36 31.5-69.5t20.5-72.5 13-89 10-119l42-559q36-3 69-3 170 0 297 52t211 146 125.5 223.5 41.5 284.5q0 43-3 85t-8 85q42 11 83 19.5t87 15.5q8-43 12-89t4-96q0-219-60-385t-173-277-275-167-365-56q-49 0-99.5 2.5t-103.5 9.5zm606 514q14-48 14-95 0-29-4.5-58.5t-12.5-59.5q-14-50-34-99.5t-43-100.5l-111-243-148 65 109 243q28 63 44.5 104t24.5 74q7 29 7 62 0 31-6 76z"/><glyph glyph-name="uniFB2C" unicode="שּׁ" horiz-adv-x="1432" d="M1208 1365q39 0 65.5-26t26.5-64q0-39-26.5-66t-65.5-27q-38 0-64 27.5t-26 65.5q0 37 26 63.5t64 26.5zm-1008-817q-8 95-11.5 159.5t-9 113.5-16 89.5-30.5 86.5q35 20 73.5 36t76.5 30q19-36 31.5-69.5t20.5-72.5 13-89 10-119l42-559q36-3 69-3 170 0 297 52t211 146 125.5 223.5 41.5 284.5q0 43-3 85t-8 85q42 11 83 19.5t87 15.5q8-43 12-89t4-96q0-219-60-385t-173-277-275-167-365-56q-49 0-99.5 2.5t-103.5 9.5zm606 514q14-48 14-95 0-29-4.5-58.5t-12.5-59.5q-14-50-34-99.5t-43-100.5l-111-243-148 65 109 243q28 63 44.5 104t24.5 74q7 29 7 62 0 31-6 76zm86-404q39 0 65.5-26t26.5-64q0-18-7.5-35t-20-29.5-29-20-35.5-7.5-35.5 7.5-28.5 20-19 29.5-7 35q0 37 26 63.5t64 26.5z"/><glyph glyph-name="uniFB2D" unicode="שּׂ" horiz-adv-x="1432" d="M81 1365q39 0 65.5-26t26.5-64q0-39-26.5-66t-65.5-27q-38 0-64 27.5t-26 65.5q0 37 26 63.5t64 26.5zm119-817q-8 95-11.5 159.5t-9 113.5-16 89.5-30.5 86.5q35 20 73.5 36t76.5 30q19-36 31.5-69.5t20.5-72.5 13-89 10-119l42-559q36-3 69-3 170 0 297 52t211 146 125.5 223.5 41.5 284.5q0 43-3 85t-8 85q42 11 83 19.5t87 15.5q8-43 12-89t4-96q0-219-60-385t-173-277-275-167-365-56q-49 0-99.5 2.5t-103.5 9.5zm606 514q14-48 14-95 0-29-4.5-58.5t-12.5-59.5q-14-50-34-99.5t-43-100.5l-111-243-148 65 109 243q28 63 44.5 104t24.5 74q7 29 7 62 0 31-6 76zm86-404q39 0 65.5-26t26.5-64q0-18-7.5-35t-20-29.5-29-20-35.5-7.5-35.5 7.5-28.5 20-19 29.5-7 35q0 37 26 63.5t64 26.5z"/><glyph glyph-name="uniFB2E" unicode="אַ" horiz-adv-x="1151" d="M117-9q0 28 .5 64t1 77.5 1.5 85.5l2 88q2 75 11 133.5t26 106.5 42.5 89 60.5 81q-35 50-59.5 91t-39.5 75q-16 35-27 71t-19 67q36 16 78 29.5t84 23.5l7.5-23.5 7.5-23.5q10-32 22.5-64t32.5-70 50.5-84 76.5-104q16-21 31.5-38.5l36.5-41.5 52-59.5 80-91.5 4-5q36 26 59 55t39.5 62.5 29 72l25.5 82.5 21.5 78.5 20.5 78.5-146 28 27 140 280-49 5-129q-10-48-26-105l-30-106q-18-63-35.5-109t-39.5-83-52.5-69-75.5-66l239-281-122-108-534 617q-31-38-45.5-88t-20.5-105.5-6-115-1-117.5q-1-32-1-69.5t-1-90.5h-173zm675-143v-118h-469v118h469z"/><glyph glyph-name="uniFB2F" unicode="אָ" horiz-adv-x="1151" d="M117-9q0 28 .5 64t1 77.5 1.5 85.5l2 88q2 75 11 133.5t26 106.5 42.5 89 60.5 81q-35 50-59.5 91t-39.5 75q-16 35-27 71t-19 67q36 16 78 29.5t84 23.5l7.5-23.5 7.5-23.5q10-32 22.5-64t32.5-70 50.5-84 76.5-104q16-21 31.5-38.5l36.5-41.5 52-59.5 80-91.5 4-5q36 26 59 55t39.5 62.5 29 72l25.5 82.5 21.5 78.5 20.5 78.5-146 28 27 140 280-49 5-129q-10-48-26-105l-30-106q-18-63-35.5-109t-39.5-83-52.5-69-75.5-66l239-281-122-108-534 617q-31-38-45.5-88t-20.5-105.5-6-115-1-117.5q-1-32-1-69.5t-1-90.5h-173zm675-143v-118h-178l20-250h-157l20 250h-174v118h469z"/><glyph glyph-name="uniFB30" unicode="אּ" horiz-adv-x="1151" d="M117-9q0 28 .5 64t1 77.5 1.5 85.5l2 88q2 75 11 133.5t26 106.5 42.5 89 60.5 81q-35 50-59.5 91t-39.5 75q-16 35-27 71t-19 67q36 16 78 29.5t84 23.5l7.5-23.5 7.5-23.5q10-32 22.5-64t32.5-70 50.5-84 76.5-104q16-21 31.5-38.5l36.5-41.5 52-59.5 80-91.5 4-5q36 26 59 55t39.5 62.5 29 72l25.5 82.5 21.5 78.5 20.5 78.5-146 28 27 140 280-49 5-129q-10-48-26-105l-30-106q-18-63-35.5-109t-39.5-83-52.5-69-75.5-66l239-281-122-108-534 617q-31-38-45.5-88t-20.5-105.5-6-115-1-117.5q-1-32-1-69.5t-1-90.5h-173zm534 859q39 0 65.5-26t26.5-64q0-18-7.5-35t-20-29.5-29-20-35.5-7.5-35.5 7.5-28.5 20-19 29.5-7 35q0 37 26 63.5t64 26.5z"/><glyph glyph-name="uniFB31" unicode="בּ" horiz-adv-x="1121" d="M444 887q-44 0-79 1t-67.5 5-65.5 12.5-72 23.5l25.5 72 25.5 74q42-13 74-20t62.5-10.5 64-4.5 78.5-1h29q63 0 124-14t110-53q48-38 78-105t30-175v-540h184v-152h-947v152h590v515q0 62-9 104.5t-31.5 68-61.5 36.5-99 11h-43zm-48-274q39 0 65.5-26t26.5-64q0-18-7.5-35t-20-29.5-29-20-35.5-7.5-35.5 7.5-28.5 20-19 29.5-7 35q0 37 26 63.5t64 26.5z"/><glyph glyph-name="uniFB32" unicode="גּ" horiz-adv-x="833" d="M614 1039v-537q0-48 14-91.5t31-88.5q29-78 54.5-157.5t45.5-164.5h-161q-13 52-30.5 109.5t-37.5 108.5l-25 64-53.5-62.5-38.5-44-31.5-34-31.5-32.5q-53-54-115-89t-143-47q-10 38-18.5 76.5t-15.5 76.5q34 9 62 18t53 22.5 47.5 32 46.5 45.5l180 197v446h-228v152h395zm-370-391q39 0 65.5-26t26.5-64q0-18-7.5-35t-20-29.5-29-20-35.5-7.5-35.5 7.5-28.5 20-19 29.5-7 35q0 37 26 63.5t64 26.5z"/><glyph glyph-name="uniFB33" unicode="דּ" horiz-adv-x="1089" d="M381 887q-44 0-79 1t-67.5 5-65.5 12.5-72 23.5l25.5 72 25.5 74q42-13 74-20t62.5-10.5 64-4.5 78.5-1h572v-152h-202v-887h-173v887h-243zm3-274q39 0 65.5-26t26.5-64q0-18-7.5-35t-20-29.5-29-20-35.5-7.5-35.5 7.5-28.5 20-19 29.5-7 35q0 37 26 63.5t64 26.5z"/><glyph glyph-name="uniFB34" unicode="הּ" horiz-adv-x="1128" d="M425 887q-44 0-79 1t-67.5 5-65.5 12.5-72 23.5l25.5 72 25.5 74q42-13 74-20t62.5-10.5 64-4.5 78.5-1h195q63 0 124-14t110-54q48-38 78-107t30-178v-686h-173v667q0 63-8.5 105t-31 67.5-62 36.5-100.5 11h-208zm159-197q39 0 65.5-26t26.5-64q0-18-7.5-35t-20-29.5-29-20-35.5-7.5-35.5 7.5-28.5 20-19 29.5-7 35q0 37 26 63.5t64 26.5zm-427-376q0 45 .5 79t3.5 65 8 62.5 14 69.5l84.5-12.5 84.5-12.5-10.5-64.5-7-57-3.5-60-1-73.5v-310h-173v314z"/><glyph glyph-name="uniFB35" unicode="וּ" horiz-adv-x="655" d="M479 1039v-1039h-173v887h-175v152h348zm-379-426q39 0 65.5-26t26.5-64q0-18-7.5-35t-20-29.5-29-20-35.5-7.5-35.5 7.5-28.5 20-19 29.5-7 35q0 37 26 63.5t64 26.5z"/><glyph glyph-name="uniFB36" unicode="זּ" horiz-adv-x="836" d="M317 887q-30 1-57 3t-53.5 6.5-54 12.5-59.5 20l25.5 72 25.5 74q42-13 74-20t62.5-10.5 64-4.5 78.5-1h328v-152h-260l141-887h-177zm-152-274q39 0 65.5-26t26.5-64q0-18-7.5-35t-20-29.5-29-20-35.5-7.5-35.5 7.5-28.5 20-19 29.5-7 35q0 37 26 63.5t64 26.5z"/><glyph glyph-name="uniFB38" unicode="טּ" horiz-adv-x="1250" d="M184 545q-6 95-8.5 159.5t-7 113.5-14.5 89.5-29 86.5q36 20 74.5 36t76.5 30q19-36 31-69.5t19-72.5 11-89 8-119l31-564q14-1 28-1.5t28-.5q114 0 211 35t168.5 109 112 188 40.5 273q0 36-2.5 66.5t-7.5 52.5q-48 12-92.5 20t-96.5 13l-22.5-63.5-20-56.5-19-56.5-19.5-62.5-139 46q24 88 53.5 174.5l61.5 173.5q125-8 232.5-28.5t207.5-42.5q14-56 19.5-116t5.5-133q0-175-47.5-307.5t-132.5-225.5q-59-63-123.5-104t-134-65-143.5-33-150-9q-48 0-92.5 2.5t-84.5 7.5zm417-28q39 0 65.5-26t26.5-64q0-18-7.5-35t-20-29.5-29-20-35.5-7.5-35.5 7.5-28.5 20-19 29.5-7 35q0 37 26 63.5t64 26.5z"/><glyph glyph-name="uniFB39" unicode="יּ" horiz-adv-x="660" d="M515 1039v-324q0-54-1-90t-4-66-8-58-13-62l-169 25 9 55 7 53 4.5 63 1.5 84v168h-229v152h402zm-393-326q39 0 65.5-26t26.5-64q0-18-7.5-35t-20-29.5-29-20-35.5-7.5-35.5 7.5-28.5 20-19 29.5-7 35q0 37 26 63.5t64 26.5z"/><glyph glyph-name="uniFB3A" unicode="ךּ" horiz-adv-x="990" d="M375 887q-44 0-79 1t-67.5 5-65.5 12.5-72 23.5l25.5 72 25.5 74q42-13 74-20t62.5-10.5 64-4.5 78.5-1h380q9-30 14.5-52.5t8.5-39.5q3-18 4-33t1-31v-1198h-173v1202h-281zm13-274q39 0 65.5-26t26.5-64q0-18-7.5-35t-20-29.5-29-20-35.5-7.5-35.5 7.5-28.5 20-19 29.5-7 35q0 37 26 63.5t64 26.5z"/><glyph glyph-name="uniFB3B" unicode="כּ" horiz-adv-x="1025" d="M432 887q-44 0-79 1t-67.5 5-65.5 12.5-72 23.5l25.5 72 25.5 74q42-13 74-20t62.5-10.5 64-4.5 78.5-1h60q61 0 120.5-15.5t107.5-55.5 79.5-108 36.5-174q3-56 4-111.5l2-114.5 1-124v-138q0-24-1-43.5t-4-41.5-8.5-48.5-14.5-64.5h-763v152h621q0 123-2 254.5t-7 260.5q-2 63-11.5 105t-31.5 67.5-60.5 36.5-99.5 11h-75zm-21-274q39 0 65.5-26t26.5-64q0-18-7.5-35t-20-29.5-29-20-35.5-7.5-35.5 7.5-28.5 20-19 29.5-7 35q0 37 26 63.5t64 26.5z"/><glyph glyph-name="uniFB3C" unicode="לּ" horiz-adv-x="1002" d="M293 1323v-284h577q9-33 14-55t8-39q2-18 2.5-33.5t.5-33.5v-216q0-118-47.5-223t-141.5-210l-245-269-122 109 229 256 61.5 74 49 75 32 83.5 11.5 98.5v231h-602v436h173zm112-625q39 0 65.5-26t26.5-64q0-18-7.5-35t-20-29.5-29-20-35.5-7.5-35.5 7.5-28.5 20-19 29.5-7 35q0 37 26 63.5t64 26.5z"/><glyph glyph-name="uniFB3E" unicode="מּ" horiz-adv-x="1194" d="M105-9l28.5 172.5 22.5 130.5 17.5 102.5 15 89 14.5 89.5 16 104q5 50 1.5 84.5t-17 67-37.5 69l-59 91.5 36 22 33 20 36.5 21.5 47.5 27.5 39.5-56 29.5-44.5 23-40.5 20-42q42 39 80.5 69.5t78.5 51 85 31.5 99 11q132 0 220-68.5t117-210.5q8-40 11.5-99.5t5-123 1-124-.5-103.5q-1-69-3-132t-5-105l-4-46-6-50h-493v152h335q1 17 2.5 37t2 53.5 1 87 .5 137.5q0 38-1 77.5t-3 76-5.5 68.5-8.5 55q-9 37-23 67.5t-36 51.5-52 32.5-71 11.5q-44 0-84.5-14t-77.5-37.5-71-54.5-65-64l-31.5-196-24.5-152.5-19.5-120-16.5-98.5-15-89-15-90h-174zm521 622q39 0 65.5-26t26.5-64q0-18-7.5-35t-20-29.5-29-20-35.5-7.5-35.5 7.5-28.5 20-19 29.5-7 35q0 37 26 63.5t64 26.5z"/><glyph glyph-name="uniFB40" unicode="נּ" horiz-adv-x="794" d="M583 1039l4-34q3-34 9.5-92.5l14.5-137 17.5-169.5 19.5-189.5 19-195.5q4-44 6-72t2-50.5-2-44.5-6-54h-596v152h433l-77 735h-244v152h400zm-343-426q39 0 65.5-26t26.5-64q0-18-7.5-35t-20-29.5-29-20-35.5-7.5-35.5 7.5-28.5 20-19 29.5-7 35q0 37 26 63.5t64 26.5z"/><glyph glyph-name="uniFB41" unicode="סּ" horiz-adv-x="1149" d="M692 1039q91 0 156.5-22.5t108.5-70.5q29-33 47-79.5t28-98.5 13.5-106.5 3.5-105.5q0-78-9-160-12-100-46.5-178t-89.5-131.5-129.5-81.5-165.5-28q-117 0-199.5 38.5t-134.5 106-76 159-24 197.5q0 60 7 122.5t27 131.5q13 42 29.5 81.5t38.5 75.5q-45 3-86 11.5t-92 28.5l25.5 72 25.5 74q42-13 74-20t62.5-10.5 64-4.5 78.5-1h263zm-243-152q-45-67-68-144t-28-153q-2-30-3.5-60t-1.5-60q0-68 10.5-129t41.5-107q32-50 84-77.5t122-27.5q52 0 96 16.5t77.5 48.5 55.5 79 30 107q5 45 8 83.5t3 74.5q0 53-4.5 101t-12.5 99q-6 42-18 70.5t-34 46-57 25-87 7.5h-214zm158-274q39 0 65.5-26t26.5-64q0-18-7.5-35t-20-29.5-29-20-35.5-7.5-35.5 7.5-28.5 20-19 29.5-7 35q0 37 26 63.5t64 26.5z"/><glyph glyph-name="uniFB43" unicode="ףּ" horiz-adv-x="1086" d="M317 1085l169.5-33.5 166.5-35.5q51-11 100.5-31.5t89.5-55.5q40-37 65-93.5t25-141.5v-1010h-173v986q0 52-8 86.5t-27 57.5-50.5 36-79.5 23l-85.5 18.5-85.5 18.5-112-254 201-121-79-130-331 196zm243-289q39 0 65.5-26t26.5-64q0-18-7.5-35t-20-29.5-29-20-35.5-7.5-35.5 7.5-28.5 20-19 29.5-7 35q0 37 26 63.5t64 26.5z"/><glyph glyph-name="uniFB44" unicode="פּ" horiz-adv-x="1077" d="M330 1085l55-10.5 75.5-15 86-18 86.5-19.5 76.5-20 56.5-18q54-21 88.5-49.5t54.5-65 27.5-80.5 7.5-95v-497q0-23-1.5-44.5t-4.5-44.5q-4-23-9.5-49.5t-13.5-58.5h-825v151h683v520q0 51-6.5 84.5t-23.5 55-45.5 34.5-73.5 25q-43 11-92 22l-93 21-114-257 201-119-81-132-330 196zm236-294q39 0 65.5-26t26.5-64q0-18-7.5-35t-20-29.5-29-20-35.5-7.5-35.5 7.5-28.5 20-19 29.5-7 35q0 37 26 63.5t64 26.5z"/><glyph glyph-name="uniFB46" unicode="צּ" horiz-adv-x="1109" d="M332 577q-64 74-108.5 137.5t-71.5 119.5q-28 57-42.5 101t-25.5 85q37 15 78.5 28.5t83.5 24.5l7.5-23.5 7.5-23.5q10-32 22-64.5t32-70.5 50.5-84 77.5-103l28.5-35 31-36 42-47.5 61.5-69.5q31 19 53.5 41t41 48.5 33.5 59.5 31 74q15 40 26.5 77l22.5 75-142 43 39 137 273-77-7-128q-14-49-33-104.5t-37-100.5q-20-48-40-86t-44-68.5-53.5-56-66.5-47.5l226-265q-2-26-7-58.5t-17-79.5h-791v152h586zm259 273q39 0 65.5-26t26.5-64q0-18-7.5-35t-20-29.5-29-20-35.5-7.5-35.5 7.5-28.5 20-19 29.5-7 35q0 37 26 63.5t64 26.5z"/><glyph glyph-name="uniFB47" unicode="קּ" horiz-adv-x="1156" d="M439 887q-44 0-79 1t-67.5 5-65.5 12.5-72 23.5l25.5 72 25.5 74q42-13 74-20t62.5-10.5 64-4.5 78.5-1h530q8-28 12.5-49t7.5-38q5-32 7-65.5t2-69.5v-141q0-51-4-96t-15.5-87-32.5-82-56-81l-143.5-162.5-142.5-155.5-132 120 111 117 88.5 95.5 78.5 89.5q28 33 43 65.5t22 67 8.5 73.5 1.5 86q0 40-1 80t-3 81h-428zm167-168q39 0 65.5-26t26.5-64q0-18-7.5-35t-20-29.5-29-20-35.5-7.5-35.5 7.5-28.5 20-19 29.5-7 35q0 37 26 63.5t64 26.5zm-425-344q0 43 .5 78t3 67.5 7.5 64 13 66.5l85.5-12.5 85.5-12.5-10.5-64.5-7-57-3.5-60-1-73.5v-686h-173v690z"/><glyph glyph-name="uniFB48" unicode="רּ" horiz-adv-x="1007" d="M395 887q-44 0-79 1t-67.5 5-65.5 12.5-72 23.5l25.5 72 25.5 74q42-13 74-20t62.5-10.5 64-4.5 78.5-1h94q63 0 124.5-14t110.5-53q48-39 78.5-108t30.5-178v-686h-173v667q0 62-9 104.5t-32 68-62 36.5-99 11h-109zm13-274q39 0 65.5-26t26.5-64q0-18-7.5-35t-20-29.5-29-20-35.5-7.5-35.5 7.5-28.5 20-19 29.5-7 35q0 37 26 63.5t64 26.5z"/><glyph glyph-name="uniFB49" unicode="שּ" horiz-adv-x="1432" d="M200 548q-8 95-11.5 159.5t-9 113.5-16 89.5-30.5 86.5q35 20 73.5 36t76.5 30q19-36 31.5-69.5t20.5-72.5 13-89 10-119l42-559q36-3 69-3 170 0 297 52t211 146 125.5 223.5 41.5 284.5q0 43-3 85t-8 85q42 11 83 19.5t87 15.5q8-43 12-89t4-96q0-219-60-385t-173-277-275-167-365-56q-49 0-99.5 2.5t-103.5 9.5zm606 514q14-48 14-95 0-29-4.5-58.5t-12.5-59.5q-14-50-34-99.5t-43-100.5l-111-243-148 65 109 243q28 63 44.5 104t24.5 74q7 29 7 62 0 31-6 76zm86-404q39 0 65.5-26t26.5-64q0-18-7.5-35t-20-29.5-29-20-35.5-7.5-35.5 7.5-28.5 20-19 29.5-7 35q0 37 26 63.5t64 26.5z"/><glyph glyph-name="uniFB4A" unicode="תּ" horiz-adv-x="1180" d="M284 149q-32 97-49 185t-17 173q0 99 25 192.5t81 188.5q-26 1-49.5 3.5t-47.5 7-49 12-54 18.5l25.5 72 25.5 74q42-13 74-20t62.5-10.5 64-4.5 78.5-1h260q63 0 124.5-14t111.5-54q49-38 79.5-107t30.5-178v-686h-173v667q0 62-8 104.5t-30 68-60 36.5-98 11h-196q-56-77-78.5-171t-22.5-194q0-81 12.5-159.5t32.5-149.5l33-107-4-51.5-7-54.5h-396v149h219zm351 464q39 0 65.5-26t26.5-64q0-18-7.5-35t-20-29.5-29-20-35.5-7.5-35.5 7.5-28.5 20-19 29.5-7 35q0 37 26 63.5t64 26.5z"/><glyph glyph-name="uniFB4B" unicode="וֹ" horiz-adv-x="655" d="M309 1365q39 0 65.5-26t26.5-64q0-39-26.5-66t-65.5-27q-38 0-64 27.5t-26 65.5q0 37 26 63.5t64 26.5zm170-326v-1039h-173v887h-175v152h348z"/></font>
</defs>
</svg>
